<svg aria-hidden="true" style="position: absolute; width: 0; height: 0; overflow: hidden;" version="1.1" xmlns="http://www.w3.org/2000/svg" xmlns:xlink="http://www.w3.org/1999/xlink">
<defs>
<symbol id="icon-gamburger" viewBox="0 0 33 32">
<path  d="M23.409 9.737c-0.224-0.224-0.587-0.224-0.81 0l-1.146 1.146c-0.224 0.224-0.224 0.587 0 0.81s0.587 0.224 0.81 0l1.146-1.146c0.224-0.224 0.224-0.587 0-0.81z"></path>
<path  d="M9.659 9.737c-0.224-0.224-0.586-0.224-0.81 0l-1.146 1.146c-0.224 0.224-0.224 0.587 0 0.81s0.587 0.224 0.81 0l1.146-1.146c0.224-0.224 0.224-0.587 0-0.81z"></path>
<path  d="M20.545 7.445c-0.224-0.224-0.587-0.224-0.81 0l-1.146 1.146c-0.224 0.224-0.224 0.587 0 0.81s0.587 0.224 0.81 0l1.146-1.146c0.224-0.224 0.224-0.587 0-0.81z"></path>
<path  d="M13.67 7.445c-0.224-0.224-0.586-0.224-0.81 0l-1.146 1.146c-0.224 0.224-0.224 0.587 0 0.81s0.587 0.224 0.81 0l1.146-1.146c0.224-0.224 0.224-0.587 0-0.81z"></path>
<path  d="M16.534 9.737c-0.224-0.224-0.587-0.224-0.81 0l-1.146 1.146c-0.224 0.224-0.224 0.587 0 0.81s0.587 0.224 0.81 0l1.146-1.146c0.224-0.224 0.224-0.587 0-0.81z"></path>
<path  d="M30.795 21.6c0-0.948-0.771-1.719-1.719-1.719h-0.573v-1.847c0.024-0.020 0.048-0.040 0.071-0.061 0.372-0.339 1.149-0.556 1.655-0.562 0.316-0.004 0.57-0.264 0.566-0.58-0.004-0.314-0.26-0.566-0.573-0.566-0.002 0-0.005 0-0.007 0-0.492 0.006-1.145 0.137-1.712 0.405v-1.502c0.698-0.285 1.161-1.004 1.062-1.801-0.676-5.432-5.319-9.528-10.801-9.528h-5.271c-5.482 0-10.126 4.096-10.801 9.528-0.099 0.795 0.361 1.515 1.062 1.801v1.476c-0.569-0.258-1.224-0.387-1.726-0.379-0.316 0.004-0.57 0.264-0.565 0.58 0.004 0.314 0.26 0.565 0.573 0.565 0.003 0 0.005 0 0.008-0 0.512-0.008 1.308 0.206 1.695 0.56 0.005 0.005 0.011 0.009 0.016 0.014v1.896h-0.573c-0.95 0-1.719 0.769-1.719 1.719 0 0.852 0.623 1.56 1.437 1.695-0.134 0.353-0.144 0.74-0.019 1.107 0.71 2.094 2.673 3.5 4.885 3.5h16.729c2.212 0 4.175-1.407 4.885-3.501 0.124-0.367 0.114-0.753-0.019-1.106 0.799-0.131 1.437-0.826 1.437-1.695zM3.829 13.509c0.605-4.859 4.759-8.523 9.664-8.523h5.271c4.905 0 9.060 3.664 9.664 8.524 0.041 0.331-0.217 0.619-0.536 0.641-0.004 0-0.008 0.001-0.011 0.001-0.010 0.001-0.020 0.001-0.029 0.001h-23.446c-0.337 0-0.62-0.297-0.577-0.643zM25.137 17.127c-1.259-1.148-2.951-1.148-4.21 0-0.822 0.75-1.843 0.75-2.665 0-1.259-1.148-2.951-1.148-4.21 0-0.822 0.75-1.843 0.75-2.665 0-1.259-1.148-2.951-1.148-4.21 0-0.697 0.636-1.531 0.737-2.278 0.29v-2.118h22.458v2.152c-0.731 0.407-1.544 0.294-2.221-0.323zM27.358 18.692v1.189h-22.458v-1.206c0.31 0.107 0.628 0.161 0.945 0.161 0.739 0 1.477-0.289 2.105-0.862 0.822-0.75 1.843-0.75 2.665 0 1.259 1.148 2.951 1.148 4.21 0 0.822-0.75 1.843-0.75 2.665 0 1.259 1.148 2.951 1.148 4.21 0 0.822-0.75 1.843-0.75 2.665 0 0.876 0.799 1.977 1.045 2.993 0.719zM28.293 24.034c-0.552 1.628-2.079 2.723-3.8 2.723h-16.729c-1.72 0-3.247-1.094-3.799-2.722-0.119-0.351 0.184-0.715 0.56-0.715h23.208c0.377 0 0.678 0.366 0.56 0.715zM29.076 22.173h-25.896c-0.316 0-0.573-0.257-0.573-0.573s0.257-0.573 0.573-0.573h25.896c0.316 0 0.573 0.257 0.573 0.573s-0.257 0.573-0.573 0.573z"></path>
</symbol>
<symbol id="icon-free" viewBox="0 0 32 32">
<path  d="M29.457 18.023c-0.085-0.113-0.218-0.18-0.36-0.18h-1.076l1.489-6.683c0.054-0.246 0.007-0.503-0.133-0.712-0.131-0.2-0.34-0.337-0.576-0.378l-1.735-0.306c-0.077-0.012-0.155-0.014-0.232-0.004l-0-3.978c0.010-0.263-0.087-0.519-0.269-0.709-0.162-0.17-0.386-0.266-0.621-0.267h-1.757c-0.495 0.013-0.889 0.418-0.89 0.912l-0.033 1.101-0.814-0.19c-0.24-0.056-0.492-0.011-0.698 0.124s-0.347 0.349-0.39 0.591l-0.109 0.588c-0.055-0.020-0.111-0.036-0.169-0.045l-1.927-0.321 0.018-0.477c0.010-0.244-0.081-0.482-0.25-0.658s-0.404-0.276-0.648-0.276h-0.436l0.563-1.87c0.074-0.233 0.051-0.486-0.064-0.701-0.11-0.211-0.299-0.368-0.526-0.438l-1.716-0.544c-0.229-0.073-0.479-0.051-0.691 0.062s-0.371 0.307-0.439 0.538l-1.114 3.708-0.043-1.236c-0.015-0.485-0.415-0.87-0.9-0.868h-1.807c-0.244-0-0.478 0.098-0.648 0.274s-0.261 0.412-0.253 0.656l0.094 2.718-2.035 0.334c-0.463 0.076-0.791 0.494-0.753 0.962h-1.353c-0.496 0.001-0.899 0.403-0.899 0.899v2.769l-0.474-0.347c-0.186-0.14-0.422-0.199-0.652-0.163-0.237 0.036-0.45 0.167-0.589 0.362l-0.806 1.132c-0.29 0.401-0.215 0.959 0.169 1.27l2.351 1.805v0.365h-2.234c-0.141 0-0.275 0.067-0.36 0.18s-0.112 0.26-0.072 0.396l2.344 8.036c0.538 1.819 2.206 3.070 4.103 3.078h14.044c1.897-0.007 3.565-1.258 4.103-3.078l2.343-8.036c0.040-0.136 0.013-0.282-0.072-0.396zM26.824 11.010h0.011v-0.047l0.076-0.314 1.721 0.316-1.532 6.878h-1.941l1.664-6.833zM24.196 5.748c0.001-0.024 0.009-0.040 0-0.043l1.724-0.007c0.004 0.003 0.018 0.022 0.016 0.070v5.196l-1.083 4.379-0.921-1.119 1.026-6.133c0.081-0.471-0.217-0.923-0.682-1.034l-0.119-0.028 0.038-1.281zM22.246 7.505l1.348 0.314 0.478 0.122-0.897 5.362-0.981-1.192c-0.164-0.198-0.404-0.319-0.661-0.335-0.027-0.002-0.054 0.003-0.082 0.003l0.794-4.276zM21.454 12.683l0.046 0.001 3.085 3.749-0.349 1.411h-0.623l-2.682-3.202-0.687-0.803 1.21-1.155zM22.413 17.812l-0.005 0.032h-1.801l0.256-1.881 1.55 1.849zM19.122 8.472l1.814 0.302-0.436 3.203-0.006 0.029 0.001 0-0.006 0.042-0.003 0.013h-0l-0.001 0.006-0.004 0.018-0.066 0.345-0.793 0.757c-0.344 0.321-0.374 0.856-0.068 1.213l0.407 0.486-0.558 2.956h-0.643l0.36-9.371zM18.277 7.054l-0.415 10.789h-1.799l0.415-10.789h1.799zM15.825 3.459l1.719 0.561-0.643 2.135h-0.422c-0.484-0.001-0.881 0.381-0.899 0.864l-0.019 0.484h-0.948l1.211-4.045zM15.527 8.403l-0.363 9.441h-0.932l-0.327-9.441h1.622zM12.91 5.705l0.423 12.138h-1.811l-0.418-12.138h1.807zM10.328 9.361l0.294 8.482h-1.389l-0.825-8.167 1.92-0.315zM6.156 10.65h1.443l0.492 4.847-1.935-1.418v-3.428zM3.465 14.93l0.784-1.134 3.964 2.906 0.116 1.142h-1.12l-3.744-2.913zM26.322 26.203c-0.425 1.437-1.742 2.424-3.24 2.43h-14.044c-1.498-0.006-2.815-0.993-3.24-2.43l-2.176-7.46h24.876l-2.176 7.46z"></path>
<path  d="M7.543 25.376c0.255 0.862 1.046 1.455 1.945 1.458h2.512c0.248 0 0.45-0.201 0.45-0.45s-0.201-0.45-0.45-0.45h-2.512c-0.497-0.001-0.935-0.327-1.080-0.802l-0.905-3.361c-0.065-0.24-0.311-0.382-0.551-0.317s-0.382 0.311-0.317 0.551l0.908 3.37z"></path>
<path  d="M13.799 26.834h0.45c0.248 0 0.45-0.201 0.45-0.45s-0.201-0.45-0.45-0.45h-0.45c-0.248 0-0.45 0.201-0.45 0.45s0.201 0.45 0.45 0.45z"></path>
</symbol>
<symbol id="icon-pacman" viewBox="0 0 27 32">
<path  d="M15.772 15.7l-0.64-0.64-0.64 0.64 0.64 0.64 0.64-0.64zM26.974 4.498l0.64 0.64 0.649-0.649-0.659-0.64-0.631 0.649zM27.17 27.099l0.642 0.638 0.636-0.64-0.638-0.638-0.64 0.64zM16.412 16.341l11.203-11.203-1.281-1.281-11.203 11.203 1.281 1.281zM27.81 26.458l-11.398-11.398-1.281 1.281 11.398 11.398 1.281-1.281zM26.527 26.46c-2.716 2.733-6.476 4.424-10.633 4.424v1.811c4.658 0 8.875-1.897 11.917-4.958l-1.285-1.277zM15.895 30.884c-8.278 0-14.989-6.711-14.989-14.989h-1.811c0 9.279 7.522 16.8 16.8 16.8v-1.811zM0.906 15.895c0-8.278 6.711-14.989 14.989-14.989v-1.811c-9.279 0-16.8 7.522-16.8 16.8h1.811zM15.895 0.906c4.063 0 7.747 1.616 10.448 4.241l1.263-1.299c-3.025-2.941-7.157-4.754-11.711-4.754v1.811z"></path>
</symbol>
<symbol id="icon-facebook" viewBox="0 0 32 32">
<path fill="#fff" style="fill: var(--color2, #fff)" d="M21.33 5.313h2.921v-5.088c-0.504-0.069-2.237-0.225-4.256-0.225-4.212 0-7.097 2.649-7.097 7.519v4.481h-4.648v5.688h4.648v14.312h5.699v-14.311h4.46l0.708-5.688h-5.169v-3.919c0.001-1.644 0.444-2.769 2.735-2.769z"></path>
</symbol>
<symbol id="icon-email-black" viewBox="0 0 32 32">
<path d="M26.667 5.333h-21.333c-1.467 0-2.653 1.2-2.653 2.667l-0.013 16c0 1.467 1.2 2.667 2.667 2.667h21.333c1.467 0 2.667-1.2 2.667-2.667v-16c0-1.467-1.2-2.667-2.667-2.667zM26.133 11l-9.427 5.893c-0.427 0.267-0.987 0.267-1.413 0l-9.427-5.893c-0.333-0.213-0.533-0.573-0.533-0.96 0-0.893 0.973-1.427 1.733-0.96l8.933 5.587 8.933-5.587c0.76-0.467 1.733 0.067 1.733 0.96 0 0.387-0.2 0.747-0.533 0.96z"></path>
</symbol>
<symbol id="icon-email" viewBox="0 0 43 32">
<path  d="M38.667 0h-34.667c-2.206 0-4 1.794-4 4v24c0 2.206 1.794 4 4 4h34.667c2.206 0 4-1.794 4-4v-24c0-2.206-1.794-4-4-4zM38.667 2.667c0.181 0 0.353 0.038 0.511 0.103l-17.844 15.466-17.844-15.466c0.158-0.066 0.33-0.103 0.511-0.103h34.667zM38.667 29.333h-34.667c-0.736 0-1.333-0.598-1.333-1.333v-22.413l17.793 15.421c0.251 0.217 0.563 0.326 0.874 0.326s0.622-0.108 0.874-0.326l17.793-15.421v22.413c0 0.736-0.598 1.333-1.333 1.333z"></path>
</symbol>
<symbol id="icon-drinks" viewBox="0 0 32 32">
<path  d="M19.939 13.823h-0.278l-0.396-1.15c-0.030-0.087-0.112-0.146-0.204-0.146h-2.519v-1.753l2.604-0.897c0.113-0.039 0.173-0.162 0.134-0.275l-0.281-0.817c-0.019-0.054-0.058-0.099-0.11-0.124s-0.111-0.029-0.165-0.010l-2.75 0.947c-0.436 0.15-0.728 0.56-0.728 1.021v1.907h-2.519c-0.092 0-0.174 0.059-0.204 0.146l-0.396 1.15h-0.278c-0.357 0-0.648 0.291-0.648 0.648s0.291 0.648 0.648 0.648h0.238l0.858 8.071c0.012 0.11 0.104 0.193 0.215 0.193h5.471c0.11 0 0.203-0.083 0.215-0.193l0.858-8.071h0.238c0.357 0 0.648-0.291 0.648-0.648s-0.291-0.648-0.648-0.648zM15.677 10.62c0-0.276 0.176-0.522 0.437-0.613l2.546-0.877 0.141 0.408-2.546 0.877c-0.087 0.030-0.146 0.112-0.146 0.204v1.907h-0.432v-1.907zM18.434 22.95h-5.082l-0.832-7.832h6.747l-0.832 7.832zM19.939 14.687h-8.091c-0.119 0-0.216-0.097-0.216-0.216s0.097-0.216 0.216-0.216h0.432c0.092 0 0.174-0.058 0.204-0.146l0.396-1.15h6.026l0.298 0.864h-6.011c-0.119 0-0.216 0.097-0.216 0.216s0.097 0.216 0.216 0.216h6.309c0.003 0 0.007 0 0.010 0h0.427c0.119 0 0.216 0.097 0.216 0.216s-0.097 0.216-0.216 0.216z"></path>
</symbol>
<symbol id="icon-dominos" viewBox="0 0 32 32">
<path  d="M16.87 21.446c-0.355 0-0.643 0.284-0.643 0.639s0.289 0.639 0.643 0.639c0.355 0 0.639-0.284 0.639-0.639s-0.284-0.639-0.639-0.639zM25.507 23.8c-0.016 0.627 0.466 0.936 1.435 1.039 0.709 0.074 0.511 0.396 0.111 0.441-0.383 0.045-0.763-0.148-1.146-0.371l-0.507 0.742c1.373 0.87 2.939 0.462 3.018-0.532 0.049-0.614-0.445-1.097-1.356-1.072-0.585 0.012-0.548-0.379-0.186-0.408 0.379-0.029 0.676 0.082 1.022 0.322l0.371-0.73c-1.002-0.606-2.729-0.507-2.762 0.569zM17.975 26.125v-0.004h1.105v-1.538c0-0.519 0.223-0.61 0.474-0.639 0.301-0.037 0.528 0.021 0.532 0.639l0.012 1.538h1.113l-0.004-2.239c0-1.121-1.682-1.109-2.115-0.392v-0.429h-1.117v3.063zM17.447 23.009h-1.158v3.117h1.158v-3.117zM10.641 26.125v0.004h1.146v-1.538c0-0.569 0.132-0.61 0.429-0.639 0.305-0.029 0.437 0.021 0.445 0.639l0.012 1.538h1.109l0.008-1.591c0-0.289 0.070-0.548 0.379-0.561 0.379-0.017 0.458 0.025 0.458 0.474v1.67h1.183v-2.28c0-1.068-1.534-1.101-2.061-0.317-0.371-0.862-1.657-0.59-1.991-0.033v-0.429h-1.117v3.063zM8.629 22.835c-0.907 0-1.641 0.738-1.645 1.645 0 0.911 0.738 1.645 1.645 1.645 0.911 0 1.645-0.734 1.645-1.645s-0.734-1.645-1.645-1.645zM8.629 23.895c0.326 0 0.585 0.264 0.585 0.585 0 0.326-0.264 0.585-0.585 0.585-0.326 0-0.585-0.264-0.585-0.585 0.004-0.322 0.264-0.585 0.585-0.585zM2.465 26.125v-0.004h1.175c0.482 0 0.87-0.021 1.158-0.066 0.289-0.041 0.524-0.111 0.713-0.206 0.388-0.198 0.68-0.458 0.886-0.783 0.202-0.326 0.305-0.693 0.305-1.109s-0.103-0.787-0.309-1.113-0.499-0.59-0.882-0.783c-0.181-0.091-0.421-0.161-0.709-0.206-0.289-0.041-0.639-0.066-1.047-0.066h-1.29v4.337zM3.752 24.983v-2.045h0.528c0.169 0 0.309 0.012 0.429 0.033s0.214 0.054 0.289 0.099c0.157 0.095 0.276 0.218 0.363 0.371 0.082 0.153 0.124 0.33 0.124 0.524s-0.041 0.371-0.124 0.524c-0.082 0.153-0.202 0.276-0.363 0.371-0.078 0.045-0.173 0.078-0.293 0.099s-0.276 0.029-0.474 0.029h-0.478v-0.004zM23.157 22.835c-0.907 0-1.645 0.738-1.645 1.645 0 0.911 0.738 1.645 1.645 1.645s1.645-0.734 1.645-1.645c0-0.911-0.738-1.645-1.645-1.645zM23.157 23.895c0.326 0 0.585 0.264 0.585 0.585 0 0.326-0.26 0.585-0.585 0.585s-0.585-0.264-0.585-0.585c0-0.322 0.26-0.585 0.585-0.585zM25.144 21.454c0.256 0 0.474 0.153 0.569 0.371 0.074 0.169 0.082 0.379 0.033 0.561-0.066 0.276-0.301 0.544-0.787 0.796l-0.136-0.181c0.095-0.078 0.194-0.165 0.231-0.223 0.074-0.107-0.021-0.082-0.099-0.107-0.252-0.078-0.437-0.313-0.437-0.594 0.004-0.342 0.284-0.623 0.627-0.623z"></path>
<path  d="M28.809 22.98c0.045 0 0.087 0.012 0.132 0.033 0.041 0.025 0.078 0.058 0.099 0.099 0.025 0.041 0.037 0.087 0.037 0.136 0 0.045-0.012 0.091-0.033 0.136-0.025 0.041-0.058 0.078-0.099 0.099-0.045 0.025-0.087 0.033-0.136 0.033-0.045 0-0.095-0.012-0.136-0.033-0.041-0.025-0.078-0.058-0.099-0.099-0.025-0.045-0.033-0.087-0.033-0.136 0-0.045 0.012-0.095 0.033-0.136 0.025-0.045 0.058-0.078 0.103-0.099 0.041-0.021 0.087-0.033 0.132-0.033zM28.809 23.025c-0.041 0-0.074 0.008-0.111 0.029-0.033 0.021-0.062 0.045-0.082 0.082-0.021 0.033-0.029 0.074-0.029 0.111 0 0.041 0.008 0.078 0.029 0.111 0.021 0.037 0.045 0.066 0.082 0.082 0.033 0.021 0.074 0.029 0.111 0.029 0.041 0 0.078-0.008 0.111-0.029s0.062-0.045 0.082-0.082c0.021-0.033 0.029-0.074 0.029-0.111 0-0.041-0.012-0.078-0.029-0.111-0.021-0.037-0.049-0.066-0.087-0.082-0.033-0.021-0.070-0.029-0.107-0.029zM28.69 23.4v-0.293h0.099c0.033 0 0.058 0.004 0.074 0.008 0.012 0.004 0.025 0.012 0.033 0.029 0.008 0.012 0.012 0.029 0.012 0.041 0 0.021-0.008 0.041-0.025 0.058-0.012 0.016-0.033 0.025-0.062 0.025 0.012 0.004 0.021 0.008 0.025 0.016 0.012 0.012 0.025 0.029 0.045 0.058l0.033 0.058h-0.058l-0.025-0.045c-0.021-0.037-0.037-0.062-0.049-0.066-0.008-0.008-0.021-0.012-0.037-0.012h-0.029v0.124h-0.037zM28.735 23.235h0.058c0.025 0 0.045-0.004 0.054-0.012 0.012-0.008 0.016-0.021 0.016-0.033 0-0.008-0.004-0.016-0.008-0.025s-0.012-0.012-0.021-0.016c-0.008-0.004-0.025-0.004-0.045-0.004h-0.054v0.091z"></path>
<path  d="M13.518 9.668l4.040-4.028c0.169-0.169 0.445-0.169 0.614 0l3.814 3.826c0.169 0.169 0.169 0.445 0 0.614l-4.044 4.028-4.424-4.44zM17.142 8.954c0.425-0.425 1.109-0.421 1.534 0.004s0.421 1.113-0.004 1.534c-0.425 0.425-1.113 0.421-1.534-0.004-0.425-0.425-0.421-1.109 0.004-1.534z"></path>
<path  d="M14.087 13.572c0.425-0.421 1.109-0.421 1.534 0.004s0.42 1.109-0.004 1.534c-0.425 0.421-1.113 0.421-1.534-0.004-0.421-0.421-0.421-1.109 0.004-1.534zM10.913 13.584c0.425-0.425 1.109-0.421 1.534 0.004 0.421 0.425 0.421 1.109-0.004 1.534-0.425 0.421-1.113 0.421-1.534-0.004s-0.421-1.113 0.004-1.534zM9.185 13.988c-0.169 0.169-0.169 0.445 0 0.614l3.813 3.826c0.169 0.173 0.445 0.173 0.614 0.004l4.040-4.028-4.428-4.444-4.040 4.028z"></path>
<path  d="M15.019 18.577v-0.544h-0.206v-0.095h0.519v0.095h-0.206v0.544h-0.107zM15.402 18.577v-0.639h0.157l0.161 0.511 0.157-0.511h0.153v0.639h-0.099v-0.536l-0.165 0.536h-0.095l-0.169-0.544v0.544h-0.099z"></path>
</symbol>
<symbol id="icon-coffe" viewBox="0 0 33 32">
<path  d="M24.518 11.646h-0.556l-0.792-2.3c-0.060-0.174-0.224-0.291-0.408-0.291h-5.039v-3.506l5.208-1.794c0.226-0.078 0.345-0.324 0.268-0.549l-0.563-1.633c-0.037-0.108-0.116-0.197-0.219-0.248s-0.222-0.057-0.33-0.020l-5.499 1.895c-0.871 0.3-1.456 1.121-1.456 2.042v3.814h-5.039c-0.184 0-0.348 0.117-0.408 0.291l-0.792 2.3h-0.556c-0.714 0-1.296 0.581-1.296 1.296s0.581 1.296 1.296 1.296h0.475l1.716 16.141c0.023 0.22 0.209 0.386 0.43 0.386h10.941c0.221 0 0.406-0.167 0.429-0.386l1.716-16.141h0.475c0.714 0 1.296-0.581 1.296-1.296s-0.581-1.296-1.296-1.296zM15.995 5.24c0-0.553 0.351-1.045 0.874-1.225l5.091-1.754 0.281 0.817-5.091 1.754c-0.174 0.060-0.291 0.224-0.291 0.408v3.814h-0.864v-3.814zM21.509 29.901h-10.164l-1.665-15.664h13.494l-1.665 15.664zM24.518 13.373h-16.182c-0.238 0-0.432-0.194-0.432-0.432s0.194-0.432 0.432-0.432h0.864c0.184 0 0.348-0.117 0.408-0.291l0.792-2.3h12.053l0.595 1.728h-12.021c-0.239 0-0.432 0.193-0.432 0.432s0.193 0.432 0.432 0.432h12.617c0.007 0 0.013 0 0.020 0h0.854c0.238 0 0.432 0.194 0.432 0.432s-0.194 0.432-0.432 0.432z"></path>
</symbol>
<symbol id="icon-close" viewBox="0 0 32 32">
<path d="M26.667 7.303l-1.97-1.97-7.808 7.808-7.808-7.808-1.97 1.97 7.808 7.808-7.808 7.808 1.97 1.97 7.808-7.808 7.808 7.808 1.97-1.97-7.808-7.808 7.808-7.808z"></path>
</symbol>
<symbol id="icon-basket" viewBox="0 0 32 32">
<path  d="M14.436 27.994c0 1.24-0.943 2.263-2.123 2.263s-2.123-1.023-2.123-2.263c0-1.24 0.943-2.263 2.123-2.263s2.123 1.022 2.123 2.263zM24.415 27.994c0 1.24-0.943 2.263-2.123 2.263s-2.123-1.023-2.123-2.263c0-1.24 0.943-2.263 2.123-2.263s2.123 1.022 2.123 2.263zM13.452 27.994c0-0.653-0.517-1.165-1.139-1.165s-1.139 0.512-1.139 1.165c0 0.653 0.517 1.165 1.139 1.165s1.139-0.512 1.139-1.165zM23.431 27.994c0-0.653-0.517-1.165-1.139-1.165s-1.139 0.512-1.139 1.165c0 0.653 0.517 1.165 1.139 1.165s1.139-0.512 1.139-1.165zM7.87 9.156h22.604c0.571 0 0.979 0.568 0.867 1.157l-2.002 10.518c-0.084 0.438-0.441 0.767-0.867 0.767h-18.174l0.527 2.725 13.201-0.032c0.272-0.001 0.493 0.244 0.493 0.547s-0.22 0.549-0.491 0.55l-13.519 0.033c-0.281 0.006-0.521-0.215-0.577-0.508l-1.163-6.013c-0.057-0.296 0.112-0.588 0.378-0.652s0.528 0.125 0.585 0.421l0.354 1.832h18.31l1.95-10.246h-22.267l0.336 1.766c0.057 0.296-0.113 0.588-0.379 0.651s-0.527-0.127-0.584-0.423l-1.797-9.436h-4.285c-0.272 0-0.492-0.246-0.492-0.549s0.221-0.549 0.492-0.549h5.082l1.417 7.442zM3.146 16.731h1.088c0.272 0 0.492 0.246 0.492 0.549s-0.221 0.549-0.492 0.549h-1.087c-0.272 0-0.492-0.246-0.492-0.549s0.221-0.549 0.492-0.549zM12.006 17.828h-5.667c-0.272 0-0.492-0.246-0.492-0.549s0.221-0.549 0.492-0.549h5.667c0.272 0 0.492 0.246 0.492 0.549s-0.221 0.549-0.492 0.549zM11.092 14.401h-9.96c-0.272 0-0.492-0.246-0.492-0.549s0.221-0.549 0.492-0.549h9.96c0.272 0 0.492 0.246 0.492 0.549s-0.221 0.549-0.492 0.549z"></path>
</symbol>
<symbol id="icon-arrow-black" viewBox="0 0 53 32">
<path d="M11.152 14.080h27.285l-8.212-8.212c-0.148-0.143-0.266-0.314-0.348-0.504s-0.124-0.393-0.126-0.599c-0.002-0.206 0.037-0.41 0.115-0.601s0.193-0.364 0.339-0.51c0.146-0.146 0.319-0.261 0.51-0.339s0.395-0.117 0.601-0.115 0.41 0.045 0.599 0.126c0.189 0.081 0.36 0.2 0.504 0.348l10.861 10.861c0.291 0.291 0.454 0.686 0.454 1.097s-0.163 0.806-0.454 1.097l-10.861 10.861c-0.293 0.283-0.684 0.439-1.091 0.436s-0.796-0.167-1.084-0.454c-0.288-0.288-0.451-0.677-0.454-1.084s0.153-0.799 0.436-1.091l8.212-8.212h-27.285c-0.412 0-0.806-0.163-1.097-0.454s-0.454-0.686-0.454-1.097c0-0.412 0.163-0.806 0.454-1.097s0.686-0.454 1.097-0.454z"></path>
</symbol>
<symbol id="icon-appstore" viewBox="0 0 90 32">
<path fill="#fff" style="fill: var(--color2, #fff)" d="M14.502 15.827c-0.023-2.578 2.111-3.833 2.209-3.891-1.209-1.762-3.082-2.003-3.741-2.022-1.574-0.166-3.1 0.942-3.902 0.942-0.818 0-2.052-0.926-3.382-0.898-1.712 0.026-3.314 1.018-4.192 2.557-1.813 3.138-0.461 7.75 1.276 10.287 0.869 1.242 1.884 2.63 3.213 2.581 1.3-0.054 1.786-0.829 3.354-0.829 1.554 0 2.010 0.829 3.366 0.798 1.395-0.022 2.274-1.248 3.112-2.502 1.004-1.424 1.407-2.826 1.423-2.898-0.033-0.011-2.71-1.033-2.736-4.123z"></path>
<path fill="#fff" style="fill: var(--color2, #fff)" d="M11.942 8.245c0.699-0.874 1.178-2.064 1.045-3.271-1.012 0.045-2.278 0.7-3.006 1.555-0.645 0.754-1.221 1.989-1.072 3.15 1.137 0.085 2.304-0.574 3.034-1.434z"></path>
<path fill="#fff" style="fill: var(--color2, #fff)" d="M33.316 25.203h-1.817l-0.995-3.127h-3.459l-0.948 3.127h-1.769l3.427-10.646h2.117l3.444 10.646zM30.204 20.764l-0.9-2.78c-0.095-0.284-0.274-0.953-0.537-2.006h-0.032c-0.105 0.453-0.274 1.122-0.506 2.006l-0.884 2.78h2.858z"></path>
<path fill="#fff" style="fill: var(--color2, #fff)" d="M42.13 21.27c0 1.306-0.353 2.338-1.058 3.095-0.632 0.674-1.417 1.011-2.354 1.011-1.011 0-1.738-0.363-2.18-1.090h-0.032v4.044h-1.706v-8.278c0-0.821-0.022-1.663-0.063-2.527h1.5l0.095 1.217h0.032c0.569-0.917 1.432-1.374 2.59-1.374 0.906 0 1.662 0.358 2.266 1.074 0.606 0.717 0.909 1.659 0.909 2.828zM40.392 21.333c0-0.747-0.168-1.363-0.506-1.848-0.369-0.506-0.864-0.758-1.485-0.758-0.421 0-0.803 0.141-1.145 0.418-0.342 0.28-0.566 0.646-0.671 1.098-0.053 0.211-0.079 0.384-0.079 0.52v1.28c0 0.558 0.171 1.030 0.514 1.414s0.787 0.577 1.334 0.577c0.642 0 1.142-0.248 1.5-0.742s0.538-1.148 0.538-1.959z"></path>
<path fill="#fff" style="fill: var(--color2, #fff)" d="M50.959 21.27c0 1.306-0.353 2.338-1.059 3.095-0.631 0.674-1.416 1.011-2.353 1.011-1.011 0-1.738-0.363-2.179-1.090h-0.032v4.044h-1.706v-8.278c0-0.821-0.022-1.663-0.063-2.527h1.5l0.095 1.217h0.032c0.568-0.917 1.431-1.374 2.59-1.374 0.905 0 1.661 0.358 2.267 1.074 0.604 0.717 0.907 1.659 0.907 2.828zM49.222 21.333c0-0.747-0.169-1.363-0.506-1.848-0.369-0.506-0.862-0.758-1.484-0.758-0.422 0-0.803 0.141-1.146 0.418-0.342 0.28-0.566 0.646-0.67 1.098-0.052 0.211-0.079 0.384-0.079 0.52v1.28c0 0.558 0.171 1.030 0.512 1.414 0.342 0.384 0.787 0.577 1.336 0.577 0.642 0 1.142-0.248 1.5-0.742s0.538-1.148 0.538-1.959z"></path>
<path fill="#fff" style="fill: var(--color2, #fff)" d="M60.831 22.218c0 0.906-0.314 1.642-0.946 2.211-0.694 0.622-1.659 0.932-2.9 0.932-1.146 0-2.064-0.221-2.759-0.663l0.395-1.422c0.749 0.453 1.57 0.68 2.466 0.68 0.642 0 1.142-0.146 1.502-0.435 0.358-0.29 0.536-0.678 0.536-1.163 0-0.432-0.147-0.796-0.442-1.091-0.294-0.295-0.784-0.57-1.469-0.823-1.864-0.695-2.795-1.714-2.795-3.053 0-0.875 0.326-1.593 0.98-2.151 0.651-0.559 1.52-0.838 2.606-0.838 0.969 0 1.774 0.169 2.416 0.506l-0.426 1.39c-0.6-0.326-1.278-0.49-2.038-0.49-0.6 0-1.069 0.148-1.405 0.442-0.284 0.263-0.426 0.584-0.426 0.964 0 0.421 0.162 0.769 0.489 1.042 0.284 0.253 0.8 0.526 1.549 0.822 0.916 0.369 1.589 0.8 2.022 1.294 0.431 0.493 0.646 1.11 0.646 1.846z"></path>
<path fill="#fff" style="fill: var(--color2, #fff)" d="M66.47 18.806h-1.88v3.727c0 0.948 0.331 1.422 0.995 1.422 0.305 0 0.558-0.026 0.758-0.079l0.047 1.295c-0.336 0.126-0.778 0.189-1.326 0.189-0.674 0-1.2-0.206-1.58-0.616-0.378-0.411-0.569-1.101-0.569-2.070v-3.87h-1.12v-1.28h1.12v-1.406l1.675-0.506v1.911h1.88v1.282z"></path>
<path fill="#fff" style="fill: var(--color2, #fff)" d="M74.953 21.302c0 1.18-0.338 2.149-1.011 2.906-0.706 0.78-1.644 1.169-2.813 1.169-1.126 0-2.023-0.374-2.692-1.121s-1.003-1.69-1.003-2.827c0-1.19 0.344-2.164 1.034-2.922 0.689-0.758 1.618-1.138 2.787-1.138 1.126 0 2.033 0.374 2.717 1.122 0.654 0.726 0.981 1.662 0.981 2.81zM73.183 21.357c0-0.708-0.151-1.315-0.458-1.822-0.358-0.613-0.869-0.918-1.531-0.918-0.686 0-1.206 0.306-1.564 0.918-0.306 0.507-0.458 1.124-0.458 1.854 0 0.708 0.151 1.315 0.458 1.821 0.369 0.613 0.884 0.918 1.549 0.918 0.651 0 1.162-0.312 1.531-0.934 0.314-0.516 0.473-1.13 0.473-1.837z"></path>
<path fill="#fff" style="fill: var(--color2, #fff)" d="M80.497 19.026c-0.169-0.031-0.349-0.047-0.537-0.047-0.6 0-1.064 0.226-1.39 0.68-0.284 0.4-0.426 0.906-0.426 1.516v4.028h-1.705l0.016-5.259c0-0.885-0.022-1.69-0.064-2.417h1.486l0.062 1.469h0.047c0.18-0.505 0.464-0.911 0.853-1.216 0.38-0.274 0.79-0.411 1.233-0.411 0.158 0 0.3 0.011 0.426 0.031v1.626z"></path>
<path fill="#fff" style="fill: var(--color2, #fff)" d="M88.125 21.002c0 0.306-0.020 0.563-0.062 0.774h-5.117c0.020 0.758 0.267 1.338 0.742 1.738 0.431 0.358 0.989 0.537 1.674 0.537 0.758 0 1.449-0.121 2.070-0.363l0.267 1.184c-0.726 0.317-1.584 0.474-2.574 0.474-1.19 0-2.125-0.35-2.805-1.050-0.678-0.7-1.018-1.64-1.018-2.819 0-1.158 0.316-2.122 0.949-2.89 0.662-0.821 1.558-1.231 2.684-1.231 1.106 0 1.944 0.41 2.513 1.231 0.45 0.652 0.677 1.458 0.677 2.416zM86.498 20.559c0.011-0.506-0.1-0.942-0.331-1.311-0.295-0.474-0.749-0.711-1.359-0.711-0.558 0-1.011 0.231-1.358 0.695-0.284 0.369-0.453 0.811-0.505 1.326l3.553 0.001z"></path>
<path fill="#fff" style="fill: var(--color2, #fff)" d="M29.64 8.007c0 0.942-0.282 1.65-0.846 2.126-0.522 0.439-1.265 0.659-2.226 0.659-0.477 0-0.885-0.021-1.226-0.062v-5.145c0.446-0.072 0.926-0.109 1.444-0.109 0.916 0 1.606 0.199 2.072 0.598 0.522 0.45 0.783 1.094 0.783 1.933zM28.756 8.030c0-0.61-0.162-1.078-0.485-1.405s-0.795-0.489-1.417-0.489c-0.264 0-0.489 0.018-0.675 0.054v3.911c0.103 0.016 0.292 0.023 0.566 0.023 0.642 0 1.137-0.178 1.486-0.535s0.525-0.877 0.525-1.56z"></path>
<path fill="#fff" style="fill: var(--color2, #fff)" d="M34.327 8.83c0 0.58-0.166 1.055-0.497 1.428-0.347 0.383-0.807 0.574-1.382 0.574-0.554 0-0.994-0.183-1.323-0.551s-0.492-0.83-0.492-1.389c0-0.584 0.169-1.063 0.508-1.435s0.795-0.558 1.37-0.558c0.554 0 0.998 0.183 1.335 0.55 0.32 0.357 0.481 0.818 0.481 1.381zM33.458 8.857c0-0.348-0.075-0.646-0.225-0.895-0.176-0.301-0.426-0.451-0.752-0.451-0.337 0-0.593 0.15-0.769 0.451-0.15 0.249-0.225 0.552-0.225 0.91 0 0.348 0.075 0.646 0.225 0.895 0.182 0.301 0.434 0.451 0.761 0.451 0.32 0 0.571-0.153 0.752-0.459 0.155-0.254 0.233-0.554 0.233-0.902z"></path>
<path fill="#fff" style="fill: var(--color2, #fff)" d="M40.612 6.975l-1.18 3.771h-0.768l-0.489-1.638c-0.124-0.409-0.225-0.815-0.303-1.218h-0.015c-0.073 0.414-0.174 0.82-0.303 1.218l-0.519 1.638h-0.777l-1.11-3.771h0.862l0.426 1.793c0.103 0.424 0.188 0.828 0.256 1.21h0.015c0.062-0.315 0.166-0.717 0.311-1.202l0.535-1.8h0.683l0.513 1.762c0.124 0.43 0.225 0.843 0.302 1.242h0.023c0.057-0.388 0.142-0.802 0.256-1.242l0.458-1.762 0.823-0.001z"></path>
<path fill="#fff" style="fill: var(--color2, #fff)" d="M44.958 10.746h-0.838v-2.16c0-0.666-0.253-0.998-0.76-0.998-0.249 0-0.45 0.091-0.606 0.274-0.154 0.183-0.233 0.399-0.233 0.646v2.237h-0.838v-2.693c0-0.331-0.010-0.69-0.030-1.079h0.737l0.039 0.59h0.023c0.098-0.183 0.243-0.334 0.434-0.455 0.227-0.141 0.482-0.212 0.76-0.212 0.352 0 0.645 0.114 0.878 0.342 0.29 0.279 0.434 0.696 0.434 1.25v2.259z"></path>
<path fill="#fff" style="fill: var(--color2, #fff)" d="M47.27 10.746h-0.838v-5.502h0.838v5.502z"></path>
<path fill="#fff" style="fill: var(--color2, #fff)" d="M52.206 8.83c0 0.58-0.166 1.055-0.497 1.428-0.347 0.383-0.808 0.574-1.382 0.574-0.554 0-0.995-0.183-1.323-0.551s-0.492-0.83-0.492-1.389c0-0.584 0.169-1.063 0.508-1.435s0.795-0.558 1.369-0.558c0.554 0 0.998 0.183 1.336 0.55 0.32 0.357 0.481 0.818 0.481 1.381zM51.336 8.857c0-0.348-0.075-0.646-0.225-0.895-0.175-0.301-0.426-0.451-0.751-0.451-0.338 0-0.594 0.15-0.769 0.451-0.15 0.249-0.225 0.552-0.225 0.91 0 0.348 0.075 0.646 0.225 0.895 0.182 0.301 0.434 0.451 0.761 0.451 0.32 0 0.57-0.153 0.751-0.459 0.156-0.254 0.233-0.554 0.233-0.902z"></path>
<path fill="#fff" style="fill: var(--color2, #fff)" d="M56.264 10.746h-0.753l-0.062-0.434h-0.023c-0.258 0.346-0.625 0.52-1.102 0.52-0.356 0-0.644-0.114-0.861-0.342-0.197-0.206-0.295-0.463-0.295-0.768 0-0.461 0.192-0.812 0.578-1.055s0.928-0.362 1.626-0.357v-0.070c0-0.497-0.261-0.745-0.783-0.745-0.372 0-0.7 0.094-0.983 0.279l-0.17-0.55c0.35-0.217 0.783-0.326 1.294-0.326 0.986 0 1.48 0.52 1.48 1.56v1.389c0 0.377 0.018 0.677 0.054 0.899zM55.394 9.45v-0.582c-0.925-0.016-1.387 0.238-1.387 0.76 0 0.197 0.053 0.344 0.161 0.442s0.246 0.147 0.41 0.147c0.184 0 0.356-0.058 0.513-0.174s0.254-0.265 0.29-0.446c0.009-0.041 0.014-0.090 0.014-0.147z"></path>
<path fill="#fff" style="fill: var(--color2, #fff)" d="M61.028 10.746h-0.744l-0.039-0.606h-0.023c-0.238 0.461-0.642 0.691-1.211 0.691-0.454 0-0.833-0.178-1.133-0.535s-0.45-0.82-0.45-1.389c0-0.61 0.162-1.105 0.489-1.482 0.316-0.352 0.703-0.528 1.164-0.528 0.506 0 0.861 0.17 1.062 0.512h0.016v-2.165h0.839v4.486c0 0.367 0.010 0.706 0.030 1.016zM60.159 9.156v-0.629c0-0.109-0.008-0.197-0.023-0.264-0.047-0.202-0.149-0.371-0.303-0.508-0.156-0.137-0.344-0.206-0.561-0.206-0.313 0-0.558 0.124-0.738 0.373-0.178 0.249-0.269 0.566-0.269 0.954 0 0.373 0.086 0.675 0.258 0.908 0.182 0.248 0.426 0.372 0.733 0.372 0.275 0 0.495-0.103 0.662-0.31 0.162-0.191 0.241-0.422 0.241-0.69z"></path>
<path fill="#fff" style="fill: var(--color2, #fff)" d="M68.198 8.83c0 0.58-0.166 1.055-0.497 1.428-0.347 0.383-0.806 0.574-1.382 0.574-0.553 0-0.994-0.183-1.323-0.551-0.328-0.367-0.492-0.83-0.492-1.389 0-0.584 0.169-1.063 0.508-1.435s0.795-0.558 1.37-0.558c0.553 0 0.998 0.183 1.334 0.55 0.32 0.357 0.481 0.818 0.481 1.381zM67.33 8.857c0-0.348-0.075-0.646-0.225-0.895-0.177-0.301-0.426-0.451-0.753-0.451-0.336 0-0.592 0.15-0.769 0.451-0.15 0.249-0.225 0.552-0.225 0.91 0 0.348 0.075 0.646 0.225 0.895 0.182 0.301 0.434 0.451 0.761 0.451 0.32 0 0.572-0.153 0.753-0.459 0.154-0.254 0.233-0.554 0.233-0.902z"></path>
<path fill="#fff" style="fill: var(--color2, #fff)" d="M72.706 10.746h-0.838v-2.16c0-0.666-0.253-0.998-0.761-0.998-0.249 0-0.45 0.091-0.605 0.274s-0.233 0.399-0.233 0.646v2.237h-0.839v-2.693c0-0.331-0.010-0.69-0.030-1.079h0.736l0.039 0.59h0.023c0.098-0.183 0.244-0.334 0.434-0.455 0.228-0.141 0.482-0.212 0.761-0.212 0.351 0 0.644 0.114 0.877 0.342 0.29 0.279 0.434 0.696 0.434 1.25v2.259z"></path>
<path fill="#fff" style="fill: var(--color2, #fff)" d="M78.348 7.603h-0.923v1.832c0 0.466 0.164 0.698 0.489 0.698 0.15 0 0.275-0.013 0.374-0.039l0.022 0.636c-0.166 0.062-0.383 0.094-0.651 0.094-0.331 0-0.589-0.101-0.775-0.302s-0.28-0.541-0.28-1.017v-1.902h-0.551v-0.628h0.551v-0.691l0.822-0.248v0.938h0.923v0.629h0.001z"></path>
<path fill="#fff" style="fill: var(--color2, #fff)" d="M82.787 10.746h-0.839v-2.144c0-0.676-0.253-1.014-0.759-1.014-0.389 0-0.654 0.196-0.8 0.588-0.025 0.082-0.039 0.183-0.039 0.302v2.268h-0.838v-5.501h0.838v2.273h0.016c0.264-0.414 0.642-0.62 1.133-0.62 0.347 0 0.634 0.114 0.862 0.342 0.284 0.284 0.426 0.706 0.426 1.265v2.242z"></path>
<path fill="#fff" style="fill: var(--color2, #fff)" d="M87.366 8.682c0 0.15-0.011 0.277-0.031 0.38h-2.514c0.011 0.373 0.131 0.657 0.364 0.854 0.213 0.176 0.487 0.264 0.823 0.264 0.372 0 0.711-0.059 1.017-0.178l0.131 0.582c-0.358 0.155-0.778 0.233-1.266 0.233-0.584 0-1.044-0.172-1.377-0.516-0.334-0.344-0.5-0.806-0.5-1.385 0-0.569 0.154-1.042 0.466-1.42 0.325-0.403 0.764-0.605 1.318-0.605 0.542 0 0.954 0.202 1.233 0.605 0.225 0.32 0.336 0.716 0.336 1.186zM86.566 8.466c0.006-0.249-0.049-0.463-0.162-0.644-0.146-0.233-0.367-0.35-0.667-0.35-0.274 0-0.497 0.114-0.667 0.342-0.139 0.182-0.222 0.398-0.249 0.652h1.746z"></path>
</symbol>
<symbol id="icon-instagram" viewBox="0 0 32 32">
<path fill="#fff" style="fill: var(--color2, #fff)" d="M31.969 9.408c-0.075-1.7-0.35-2.869-0.744-3.882-0.406-1.075-1.032-2.038-1.851-2.838-0.8-0.813-1.769-1.444-2.832-1.844-1.019-0.394-2.182-0.669-3.882-0.744-1.713-0.081-2.257-0.1-6.601-0.1s-4.888 0.019-6.595 0.094c-1.7 0.075-2.869 0.35-3.882 0.744-1.075 0.406-2.038 1.031-2.838 1.85-0.813 0.8-1.444 1.769-1.844 2.832-0.394 1.019-0.669 2.182-0.744 3.882-0.081 1.713-0.1 2.257-0.1 6.601s0.019 4.888 0.094 6.595c0.075 1.7 0.35 2.869 0.744 3.882 0.406 1.075 1.038 2.038 1.85 2.838 0.8 0.813 1.769 1.444 2.832 1.844 1.019 0.394 2.182 0.669 3.882 0.744 1.706 0.075 2.25 0.094 6.595 0.094s4.888-0.019 6.595-0.094c1.7-0.075 2.869-0.35 3.882-0.744 2.151-0.832 3.851-2.532 4.682-4.682 0.394-1.019 0.669-2.182 0.744-3.882 0.075-1.707 0.094-2.251 0.094-6.595s-0.006-4.888-0.081-6.595zM29.087 22.473c-0.069 1.563-0.331 2.407-0.55 2.969-0.538 1.394-1.644 2.5-3.038 3.038-0.563 0.219-1.413 0.481-2.969 0.55-1.688 0.075-2.194 0.094-6.464 0.094s-4.782-0.019-6.464-0.094c-1.563-0.069-2.407-0.331-2.969-0.55-0.694-0.256-1.325-0.663-1.838-1.194-0.531-0.519-0.938-1.144-1.194-1.838-0.219-0.563-0.481-1.413-0.55-2.969-0.075-1.688-0.094-2.194-0.094-6.464s0.019-4.782 0.094-6.464c0.069-1.563 0.331-2.407 0.55-2.969 0.256-0.694 0.663-1.325 1.2-1.838 0.519-0.531 1.144-0.938 1.838-1.194 0.563-0.219 1.413-0.481 2.969-0.55 1.688-0.075 2.194-0.094 6.464-0.094 4.276 0 4.782 0.019 6.464 0.094 1.563 0.069 2.407 0.331 2.969 0.55 0.694 0.256 1.325 0.662 1.838 1.194 0.531 0.519 0.938 1.144 1.194 1.838 0.219 0.563 0.481 1.413 0.55 2.969 0.075 1.688 0.094 2.194 0.094 6.464s-0.019 4.77-0.094 6.458z"></path>
<path fill="#fff" style="fill: var(--color2, #fff)" d="M16.059 7.783c-4.538 0-8.22 3.682-8.22 8.22s3.682 8.22 8.22 8.22c4.539 0 8.22-3.682 8.22-8.22s-3.682-8.22-8.22-8.22zM16.059 21.335c-2.944 0-5.332-2.388-5.332-5.332s2.388-5.332 5.332-5.332c2.944 0 5.332 2.388 5.332 5.332s-2.388 5.332-5.332 5.332z"></path>
<path fill="#fff" style="fill: var(--color2, #fff)" d="M26.524 7.458c0 1.060-0.859 1.919-1.919 1.919s-1.919-0.859-1.919-1.919c0-1.060 0.859-1.919 1.919-1.919s1.919 0.859 1.919 1.919z"></path>
</symbol>
<symbol id="icon-kfc" viewBox="0 0 32 32">
<path  d="M5.692 4.815c-0.499 0.072-0.892 0.523-0.892 1.025 0 0.206 1.616 20.494 1.64 20.588 0.105 0.413 0.477 0.732 0.914 0.782 0.092 0.011 2.809 0.014 8.746 0.011l8.612-0.004 0.109-0.034c0.373-0.116 0.653-0.398 0.742-0.749 0.018-0.072 0.263-3.067 0.557-6.758 0.009-0.109 0.017-0.219 0.026-0.329 0.476-5.964 1.066-13.539 1.053-13.629-0.063-0.431-0.354-0.761-0.783-0.886-0.098-0.029-20.526-0.045-20.725-0.016zM26.366 5.109c0.316 0.106 0.532 0.366 0.562 0.676 0.012 0.122-1.603 20.457-1.634 20.571-0.071 0.265-0.276 0.471-0.553 0.556-0.117 0.036-17.305 0.043-17.449 0.007-0.265-0.066-0.492-0.275-0.569-0.525-0.028-0.091-1.646-20.292-1.646-20.553-0-0.349 0.268-0.667 0.627-0.744 0.168-0.036 20.553-0.025 20.662 0.011zM15.605 5.843c-0.47 0.050-1.11 0.225-1.609 0.441-0.28 0.121-0.336 0.164-0.336 0.259-0 0.123-0.23 0.394-0.408 0.48-0.176 0.085-0.271 0.109-0.595 0.145-0.035 0.004-0.066 0.016-0.071 0.027-0.025 0.066 0.239 0.377 0.37 0.435 0.124 0.055 0.043 0.083-0.28 0.095-0.326 0.012-0.421 0.058-0.505 0.241-0.040 0.088-0.035 0.112 0.060 0.256 0.215 0.327 0.209 0.515-0.021 0.698-0.289 0.23-0.292 0.269-0.075 1.152 0.084 0.34 0.162 0.646 0.174 0.679 0.023 0.063 0.012 0.093-0.032 0.093-0.043 0-0.132 0.064-0.16 0.115-0.12 0.216-0.086 0.549 0.134 1.277 0.155 0.515 0.174 0.584 0.221 0.816 0.118 0.581 0.26 0.786 0.541 0.782 0.112-0.002 0.116 0.003 0.128 0.165 0.022 0.292 0.094 0.576 0.211 0.831 0.038 0.082 0.059 0.155 0.072 0.248 0.057 0.412 0.312 0.87 0.696 1.253 0.164 0.163 0.293 0.268 0.708 0.575 0.166 0.123 0.302 0.228 0.302 0.234s-0.149 0.014-0.331 0.019c-0.323 0.008-0.463 0.026-0.502 0.066-0.044 0.044-0.060 0.767-0.018 0.848 0.049 0.095 0.205 0.104 1.191 0.063 0.254-0.010 0.24-0.030 0.142 0.205-0.040 0.097-0.141 0.349-0.224 0.562-0.189 0.482-0.368 0.887-0.552 1.251-0.179 0.355-0.185 0.317 0.050 0.365 0.046 0.010 0.15 0.050 0.23 0.089 0.209 0.102 0.202 0.105 0.297-0.092 0.168-0.348 0.47-1.112 0.545-1.377 0.021-0.074 0.043-0.135 0.050-0.135 0.015 0 0.013 1.342-0.002 1.625-0.017 0.3-0.009 0.309 0.221 0.255 0.084-0.020 0.188-0.033 0.274-0.034 0.164-0.002 0.164-0.002 0.189-0.198 0.067-0.535-0.054-1.802-0.226-2.37-0.047-0.156-0.047-0.16 0.019-0.171 0.106-0.017 0.553-0.010 0.828 0.015 0.307 0.027 0.346 0.023 0.376-0.035 0.034-0.068 0.045-0.771 0.013-0.835-0.049-0.098-0.266-0.142-0.611-0.125-0.208 0.010-0.21 0.008-0.072-0.077 0.456-0.281 1.15-0.9 1.341-1.197 0.294-0.455 0.548-1.287 0.549-1.792 0-0.219 0.005-0.227 0.156-0.236 0.292-0.017 0.382-0.167 0.623-1.037 0.253-0.912 0.318-1.212 0.32-1.481 0.002-0.267-0.024-0.318-0.228-0.443-0.049-0.030-0.053-0.005 0.072-0.4 0.132-0.417 0.165-0.547 0.175-0.683l0.009-0.12-0.072-0.070c-0.128-0.124-0.146-0.163-0.172-0.376-0.216-1.768-1.424-3.062-3.126-3.346-0.176-0.029-0.878-0.051-1.056-0.032zM16.255 6.183c0.692 0.070 1.347 0.336 1.978 0.804 0.625 0.464 0.967 1.082 1.097 1.985 0.053 0.369 0.018 1.204-0.054 1.287-0.051 0.059-0.066 0.032-0.151-0.26-0.161-0.556-0.288-0.878-0.463-1.167-0.108-0.18-0.125-0.144-0.127 0.276l-0.002 0.349 0.044 0.060c0.187 0.26 0.233 0.358 0.308 0.657 0.063 0.248 0.080 0.447 0.041 0.462-0.015 0.006-0.119-0.004-0.232-0.021-0.248-0.038-0.582-0.046-1.254-0.030-0.627 0.015-0.741 0.044-1.042 0.268-0.167 0.124-0.183 0.131-0.276 0.111-0.104-0.022-0.222-0.020-0.323 0.006-0.107 0.028-0.138 0.016-0.283-0.101-0.32-0.259-0.415-0.277-1.426-0.278l-0.829-0 0.007-0.117c0.013-0.203 0.076-0.298 0.254-0.38 0.131-0.060 0.12-0.038 0.2-0.433 0.157-0.78 0.392-1.206 0.82-1.49 0.317-0.21 0.908-0.192 1.371 0.043 0.105 0.053 0.113 0.052 0.255-0.072 0.17-0.147 0.17-0.147-0.022-0.335-0.669-0.654-1.435-0.797-2.352-0.439-0.111 0.043-0.204 0.074-0.206 0.067-0.042-0.109 0.541-0.513 0.934-0.648 0.264-0.091 0.242-0.181-0.044-0.181-0.11-0-0.13-0.024-0.070-0.087 0.195-0.203 1.252-0.395 1.846-0.336zM14.546 7.721c0.067 0.028 0.056 0.043-0.075 0.1-0.404 0.176-0.64 0.401-0.873 0.832-0.062 0.116-0.096 0.159-0.178 0.231-0.207 0.181-0.232 0.217-0.311 0.46-0.109 0.335-0.165 0.646-0.19 1.055-0.014 0.235-0.027 0.266-0.132 0.319-0.101 0.051-0.089 0.069-0.182-0.289-0.259-1.001-0.259-1 0.107-1.527 0.090-0.13 0.075-0.303-0.053-0.575-0.076-0.162-0.085-0.154 0.214-0.192 0.278-0.035 0.633-0.142 0.899-0.271 0.312-0.151 0.621-0.208 0.775-0.144zM13.37 10.782c0.080 0.072-0.009 0.168-0.12 0.129-0.034-0.012-0.080-0.022-0.103-0.022-0.059 0-0.083-0.048-0.039-0.079 0.018-0.012 0.052-0.023 0.077-0.023s0.054-0.007 0.066-0.014c0.034-0.022 0.090-0.017 0.119 0.009zM18.799 10.786c0.105 0.019 0.14 0.103 0.042 0.103-0.019 0-0.062 0.010-0.096 0.022-0.081 0.028-0.096 0.028-0.131-0.007-0.064-0.064-0.016-0.156 0.073-0.139 0.028 0.005 0.079 0.015 0.112 0.021zM14.021 10.973c0.004 0.026-0.010 0.041-0.062 0.073-0.037 0.022-0.14 0.088-0.229 0.146-0.172 0.112-0.213 0.124-0.262 0.075-0.052-0.052 0.002-0.188 0.107-0.265 0.093-0.069 0.437-0.091 0.446-0.028zM18.183 10.949c0.175 0.044 0.209 0.319 0.040 0.319-0.106 0-0.445-0.249-0.421-0.311 0.011-0.030 0.274-0.036 0.381-0.009zM14.801 11.005c0.075 0.036 0.15 0.13 0.135 0.168-0.007 0.019-0.033 0.021-0.158 0.014-0.18-0.010-0.292 0.015-0.514 0.115-0.175 0.078-0.268 0.101-0.316 0.077-0.078-0.039-0.045-0.080 0.156-0.194 0.064-0.036 0.145-0.083 0.181-0.103 0.198-0.115 0.383-0.142 0.517-0.077zM17.591 11.048c0.033 0.017 0.111 0.077 0.174 0.134s0.158 0.132 0.211 0.168c0.114 0.076 0.12 0.084 0.091 0.108-0.053 0.044-0.217-0.018-0.377-0.141-0.151-0.116-0.255-0.138-0.475-0.1-0.216 0.037-0.235-0.033-0.037-0.134 0.163-0.083 0.294-0.094 0.412-0.034zM19.024 11.082c0.034 0.064 0.039 0.153 0.025 0.461-0.018 0.4 0.001 0.425 0.185 0.241 0.078-0.077 0.088-0.114 0.069-0.247-0.031-0.213 0.067-0.394 0.194-0.36 0.21 0.056 0.212 0.225 0.010 0.95-0.044 0.156-0.102 0.377-0.129 0.49-0.157 0.651-0.266 0.824-0.466 0.74-0.088-0.037-0.111-0.021-0.208 0.136-0.109 0.178-0.116 0.201-0.126 0.434-0.049 1.123-0.6 2.054-1.401 2.367-0.208 0.081-0.262 0.080-0.355-0.007-0.064-0.060-0.115-0.083-0.12-0.055-0.001 0.006-0.003 0.083-0.004 0.172-0.003 0.191-0.016 0.223-0.169 0.415-0.141 0.177-0.177 0.258-0.211 0.47-0.042 0.263-0.665-0.357-0.839-0.834-0.050-0.137-0.047-0.337 0.008-0.517 0.103-0.336 0.124-0.499 0.091-0.716-0.009-0.061-0.007-0.080 0.013-0.099 0.041-0.041 0.076-0.008 0.185 0.176 0.071 0.118 0.115 0.009 0.091-0.223-0.013-0.121-0.065-0.18-0.189-0.216-0.258-0.075-0.079-0.224 0.254-0.211 0.556 0.021 0.676 0.010 0.988-0.089 0.222-0.070 0.24-0.070 0.348-0 0.109 0.071 0.117 0.091 0.127 0.337 0.016 0.422 0.168 0.399 0.257-0.039 0.044-0.213 0.070-0.28 0.138-0.354 0.171-0.184 0.245-0.453 0.219-0.795-0.016-0.208-0.051-0.263-0.218-0.343-0.106-0.050-0.238-0.183-0.367-0.368-0.203-0.292-0.297-0.38-0.485-0.458-0.172-0.071-0.224-0.039-0.184 0.114 0.055 0.212 0.031 0.26-0.188 0.366-0.329 0.161-0.606 0.15-0.87-0.032-0.261-0.18-0.295-0.407-0.117-0.781 0.080-0.169 0.093-0.215 0.125-0.452 0.058-0.428 0.1-0.517 0.247-0.517 0.125 0 0.18 0.051 0.219 0.204 0.075 0.296 0.196 0.414 0.326 0.32 0.090-0.065 0.098-0.094 0.055-0.188-0.059-0.128-0.028-0.148 0.116-0.074 0.188 0.097 0.525 0.135 0.762 0.088 0.258-0.052 0.364-0.031 0.423 0.084 0.039 0.077 0.054 0.086 0.169 0.104 0.182 0.029 0.198 0.045 0.159 0.164-0.048 0.146-0.199 0.25-0.435 0.302-0.151 0.033-0.154 0.035-0.154 0.101 0 0.125 0.111 0.153 0.358 0.089 0.339-0.087 0.484-0.304 0.603-0.903 0.076-0.38 0.079-0.386 0.249-0.443 0.142-0.047 0.197-0.049 0.221-0.005zM12.722 11.224c0.093 0.057 0.13 0.181 0.088 0.296-0.049 0.133-0.046 0.17 0.062 0.761 0.087 0.477 0.067 0.6-0.079 0.472-0.064-0.056-0.089-0.102-0.116-0.213-0.011-0.046-0.071-0.265-0.132-0.485-0.125-0.45-0.143-0.569-0.104-0.703 0.042-0.145 0.164-0.2 0.282-0.129zM14.652 11.559c0.193 0.034 0.265 0.036 0.431 0.012 0.157-0.023 0.177-0.008 0.101 0.075-0.064 0.070-0.063 0.069-0.015 0.161 0.11 0.21-0.139 0.408-0.561 0.445-0.131 0.011-0.148 0.024-0.148 0.108 0 0.085 0.040 0.105 0.208 0.103 0.191-0.002 0.185-0.003 0.185 0.017 0 0.009-0.019 0.047-0.043 0.084s-0.053 0.106-0.066 0.154c-0.029 0.111-0.036 0.117-0.203 0.182-0.076 0.030-0.18 0.084-0.231 0.12-0.425 0.303-0.63 0.212-0.82-0.364-0.133-0.4-0.103-0.463 0.159-0.337 0.175 0.084 0.245 0.090 0.285 0.025 0.062-0.101 0.046-0.136-0.091-0.202-0.241-0.114-0.399-0.367-0.28-0.446 0.040-0.026 0.070-0.016 0.144 0.046 0.138 0.116 0.193 0.119 0.292 0.011 0.191-0.208 0.333-0.251 0.652-0.195zM15.235 12.49c0.030 0.024 0.032 0.032 0.016 0.066-0.032 0.069-0.037 0.185-0.012 0.256 0.061 0.172-0.019 0.247-0.142 0.133-0.19-0.174-0.057-0.613 0.138-0.455zM16.895 13.224c0.027 0.018 0.102 0.098 0.167 0.178 0.124 0.152 0.283 0.287 0.372 0.315 0.409 0.13-0.331 0.317-0.883 0.224-0.079-0.013-0.226-0.050-0.326-0.082-0.212-0.068-0.285-0.069-0.445-0.005-0.358 0.143-0.991 0.159-1.244 0.030-0.154-0.078-0.151-0.12 0.014-0.19 0.060-0.025 0.195-0.103 0.302-0.173 0.322-0.212 0.469-0.247 0.616-0.146 0.331 0.229 0.715 0.251 0.91 0.050 0.049-0.050 0.099-0.084 0.153-0.104 0.044-0.016 0.11-0.047 0.146-0.069 0.116-0.069 0.152-0.074 0.219-0.028zM14.008 13.708c0.029 0.031 0.035 0.058 0.046 0.208 0.046 0.616 0.249 1.28 0.392 1.28 0.029 0 0.043-0.019 0.089-0.122 0.103-0.233 0.148-0.25 0.194-0.075 0.051 0.193 0.157 0.538 0.199 0.647 0.066 0.172 0.041 0.213-0.127 0.212-0.607-0.002-1.482-1.402-1.215-1.944 0.098-0.198 0.326-0.31 0.423-0.206zM16.543 14.182c0.215 0.021 0.205 0.059-0.028 0.115-0.223 0.054-0.742 0.092-0.852 0.062-0.114-0.031-0.243-0.141-0.193-0.164 0.077-0.036 0.754-0.044 1.073-0.013zM21.105 21.673c-1.626 0.114-2.615 1.015-2.614 2.381 0.001 1.369 1.382 2.070 3.316 1.683 0.403-0.081 0.378-0.057 0.449-0.431 0.074-0.389 0.070-0.394-0.25-0.313-1.426 0.36-2.35-0.333-2.045-1.535 0.161-0.634 0.6-1.055 1.18-1.131 0.463-0.061 0.769 0.134 0.792 0.507 0.010 0.163 0.012 0.164 0.259 0.164s0.217 0.048 0.349-0.544c0.147-0.661 0.155-0.622-0.128-0.686-0.428-0.098-0.835-0.127-1.307-0.094zM10.23 21.763c-0.024 0.037-0.082 0.284-0.082 0.345 0 0.047 0.020 0.066 0.121 0.117 0.106 0.053 0.16 0.134 0.167 0.252 0.006 0.088-0.408 2.054-0.494 2.345-0.077 0.261-0.204 0.427-0.361 0.472-0.151 0.043-0.151 0.043-0.188 0.189-0.083 0.329-0.19 0.298 1.023 0.298 1.17 0 1.046 0.021 1.095-0.19 0.055-0.242 0.049-0.275-0.062-0.319-0.065-0.026-0.144-0.106-0.164-0.167-0.015-0.044 0.149-0.884 0.213-1.092 0.012-0.038 0.011-0.038 0.21 0.318 0.565 1.014 0.833 1.3 1.326 1.414 0.149 0.035 1.272 0.049 1.316 0.017 0.027-0.020 0.096-0.268 0.097-0.348 0.001-0.060-0.047-0.090-0.162-0.103-0.237-0.025-0.27-0.059-0.972-1.009-0.536-0.726-0.557-0.757-0.532-0.781 0.151-0.143 1.438-1.19 1.503-1.222 0.104-0.053 0.249-0.097 0.357-0.111 0.118-0.015 0.136-0.035 0.17-0.189 0.065-0.297 0.159-0.27-0.903-0.27-0.962 0-0.921-0.003-0.94 0.077-0.072 0.304-0.070 0.338 0.029 0.393 0.154 0.086 0.154 0.086-0.564 0.683-0.802 0.667-0.827 0.687-0.833 0.681-0.009-0.011 0.238-1.113 0.262-1.166 0.033-0.075 0.116-0.151 0.21-0.192 0.104-0.046 0.107-0.050 0.143-0.218 0.062-0.287 0.173-0.258-0.993-0.258h-0.971l-0.021 0.033zM15.155 21.763c-0.024 0.037-0.082 0.284-0.082 0.345 0 0.048 0.011 0.058 0.117 0.114 0.049 0.026 0.096 0.065 0.122 0.103 0.083 0.118 0.092 0.064-0.289 1.788-0.377 1.708-0.356 1.598-0.315 1.639 0.043 0.043 1.624 0.046 1.673 0.004 0.034-0.029 0.113-0.363 0.097-0.412-0.005-0.016-0.034-0.042-0.065-0.057-0.245-0.125-0.248-0.198-0.052-1.031l0.008-0.033h0.674c0.517 0 0.68-0.004 0.699-0.018 0.024-0.018 0.156-0.561 0.156-0.642 0-0.084 0.006-0.083-0.704-0.083-0.61 0-0.651-0.002-0.651-0.026 0-0.014 0.051-0.258 0.114-0.543l0.114-0.517 0.465-0.004c0.701-0.006 0.778 0.031 0.778 0.371 0 0.157 0.020 0.169 0.273 0.162 0.157-0.004 0.198-0.009 0.217-0.029 0.023-0.023 0.253-1.008 0.253-1.084 0-0.084 0.111-0.079-1.819-0.079h-1.765l-0.021 0.033zM26.045 25.766c0 0.043 0.001 0.044 0.080 0.044h0.080v0.539h0.102v-0.539h0.080c0.079 0 0.080-0 0.080-0.044v-0.044h-0.423v0.044zM26.613 25.723v0.627h0.087l0.001-0.444 0.060 0.128c0.076 0.162 0.090 0.163 0.168 0.007l0.061-0.12 0.001 0.215 0.001 0.215h0.087v-0.627h-0.045c-0.042 0-0.048 0.008-0.115 0.149l-0.070 0.149-0.075-0.149c-0.070-0.139-0.078-0.149-0.119-0.149h-0.044z"></path>
</symbol>
<symbol id="icon-left-arrow" viewBox="0 0 32 32">
<path fill="#f76141" style="fill: var(--color4, #f76141)" d="M11.2 15.84l7.32-8.175v16.351l-7.32-8.175z"></path>
</symbol>
<symbol id="icon-location" viewBox="0 0 32 32">
<path  d="M14.179 30.010c-4.923-4.979-11.354-11.484-10.962-18.485 0.73-6.485 6.232-11.525 12.91-11.525s12.18 5.040 12.91 11.525c0.266 7.517-5.359 13.036-10.517 18.096-0.818 0.803-1.624 1.593-2.393 2.379-0.605-0.632-1.262-1.296-1.948-1.99zM16.005 17.41c2.911 0 5.27-2.36 5.27-5.272s-2.36-5.272-5.27-5.272c-2.911 0-5.271 2.36-5.271 5.272s2.36 5.272 5.271 5.272z"></path>
</symbol>
<symbol id="icon-logo" viewBox="0 0 32 32">
<path  d="M26.97 5.772l-9.178 9.179 9.339 9.339c-2.359 2.374-5.627 3.844-9.238 3.844-7.192 0-13.023-5.831-13.023-13.023s5.831-13.023 13.023-13.023c3.53 0 6.732 1.405 9.078 3.685z"></path>
<path  d="M17.792 14.951l-1.476-1.476-1.476 1.476 1.476 1.476 1.476-1.476zM26.97 5.772l1.476 1.476 1.497-1.497-1.517-1.475-1.455 1.496zM27.13 24.289l1.48 1.471 1.466-1.476-1.471-1.471-1.476 1.476zM19.267 16.426l9.178-9.178-2.951-2.951-9.179 9.179 2.951 2.951zM28.606 22.814l-9.339-9.339-2.951 2.951 9.339 9.339 2.951-2.951zM25.65 22.818c-1.983 1.996-4.725 3.228-7.758 3.228v4.174c4.189 0 7.984-1.708 10.718-4.46l-2.961-2.942zM17.893 26.046c-6.040 0-10.936-4.896-10.936-10.936h-4.174c0 8.345 6.765 15.11 15.11 15.11v-4.174zM6.957 15.11c0-6.040 4.896-10.936 10.936-10.936v-4.174c-8.345 0-15.11 6.765-15.11 15.11h4.174zM17.893 4.174c2.965 0 5.651 1.177 7.623 3.095l2.91-2.993c-2.719-2.644-6.438-4.276-10.533-4.276v4.174z"></path>
</symbol>
<symbol id="icon-mcdonalds" viewBox="0 0 32 32">
<path  d="M20.972 7.478c1.937 0 3.509 8.177 3.509 18.276h2.827c0-10.872-2.852-19.674-6.344-19.674-1.996 0-3.758 2.637-4.922 6.78-1.164-4.143-2.927-6.78-4.906-6.78-3.492 0-6.336 8.793-6.336 19.665h2.827c0-10.099 1.555-18.268 3.492-18.268s3.509 7.553 3.509 16.87h2.81c0-9.317 1.58-16.87 3.517-16.87z"></path>
</symbol>
<symbol id="icon-menu" viewBox="0 0 32 32">
<path  d="M4 8c0-0.736 0.597-1.333 1.333-1.333h21.333c0.736 0 1.333 0.597 1.333 1.333s-0.597 1.333-1.333 1.333h-21.333c-0.736 0-1.333-0.597-1.333-1.333z"></path>
<path  d="M4 16c0-0.736 0.597-1.333 1.333-1.333h21.333c0.736 0 1.333 0.597 1.333 1.333s-0.597 1.333-1.333 1.333h-21.333c-0.736 0-1.333-0.597-1.333-1.333z"></path>
<path  d="M4 24c0-0.736 0.597-1.333 1.333-1.333h21.333c0.736 0 1.333 0.597 1.333 1.333s-0.597 1.333-1.333 1.333h-21.333c-0.736 0-1.333-0.597-1.333-1.333z"></path>
</symbol>
<symbol id="icon-novus" viewBox="0 0 32 32">
<path  d="M11.328 13.208c-3.346 0.431-2.754 5.763 0.696 5.371 3.386-0.385 2.789-5.82-0.696-5.371zM24.707 16.913c-0.712 1.982 2.845 2.193 3.521 0.736 0.471-1.013-0.061-1.932-1.066-2.26-0.311-0.102-1.403-0.269-1.167-0.808 0.338-0.772 1.532-0.202 1.985 0.081 0.735-1.799-2.541-1.962-3.128-0.816-1.013 2.214 2.027 2.054 2.052 3.025s-1.91 0.262-2.198 0.041zM3.84 13.272v5.237h1.268l-0.041-3.56h0.041c0.546 1.745 1.511 3.56 3.478 3.56v-5.237h-1.228v3.519c-0.968-1.682-1.241-3.519-3.519-3.519zM14.11 13.272c0.568 1.736 1.14 3.469 1.751 5.19 0.459 0 0.939-0.001 1.579-0.001 0.577-1.722 1.209-3.467 1.785-5.19-0.316 0-0.825 0-1.305 0-0.42 1.578-0.791 2.758-1.191 4.092h-0.041l-1.105-4.092h-1.473zM19.552 13.272c0 1.243-0.116 3.642 0.217 4.296 0.704 1.383 3.283 1.398 4.059 0.082 0.434-0.736 0.267-3.138 0.267-4.378h-1.391c0 3.11 0.337 4.378-0.9 4.289-1.322 0.007-0.682-1.179-0.859-4.289h-1.391zM11.532 14.226c1.675-0.24 1.831 3.105 0.327 3.328-1.691 0.25-1.862-3.108-0.327-3.328z"></path>
</symbol>
<symbol id="icon-party" viewBox="0 0 32 32">
<path d="M7.669 1.991l0.106 1.367-1.044 0.891 1.337 0.323 0.525 1.266 0.719-1.168 1.362-0.109-0.887-1.044 0.319-1.333-1.269 0.522-1.169-0.714zM29 2.533c-0.265 0-0.519 0.105-0.707 0.293s-0.293 0.442-0.293 0.707 0.105 0.52 0.293 0.707c0.187 0.188 0.442 0.293 0.707 0.293s0.52-0.105 0.707-0.293 0.293-0.442 0.293-0.707c0-0.265-0.105-0.52-0.293-0.707s-0.442-0.293-0.707-0.293zM14.988 3.19c-0.265 0-0.52 0.105-0.707 0.293s-0.293 0.442-0.293 0.707c0 0.265 0.105 0.52 0.293 0.707s0.442 0.293 0.707 0.293c0.265 0 0.52-0.105 0.707-0.293s0.293-0.442 0.293-0.707c0-0.265-0.105-0.52-0.293-0.707s-0.442-0.293-0.707-0.293zM26.481 3.617c-0.575 0.109-1.106 0.449-1.619 0.892-0.475 0.408-0.919 0.916-1.294 1.466-1.175 0.188-2.35 0.667-3.137 1.321-1.006 0.825-1.9 2.238-2.387 3.694-0.462 0.194-0.9 0.425-1.256 0.675-0.969 0.681-1.469 1.988-1.838 3.125-0.369 1.144-0.55 2.144-0.55 2.144l1.113 0.2c0 0 0.169-0.938 0.506-1.994 0.344-1.056 0.925-2.206 1.419-2.55 0.081-0.056 0.188-0.119 0.281-0.175-0.038 0.356-0.038 0.713 0.019 1.050 0.113 0.713 0.5 1.394 1.188 1.762 0.488 0.262 1.038 0.2 1.5 0.012 0.462-0.194 0.875-0.512 1.231-0.887s0.65-0.819 0.825-1.288c0.175-0.469 0.238-1 0.012-1.494h-0.006c-0.244-0.525-0.712-0.863-1.212-1.006s-1.038-0.137-1.575-0.056c-0.094 0.012-0.181 0.044-0.275 0.063 0.462-0.988 1.125-1.919 1.719-2.412 0.387-0.319 1.038-0.625 1.731-0.85-0.087 0.237-0.156 0.475-0.188 0.719-0.1 0.656 0.044 1.369 0.569 1.856 0.381 0.35 0.894 0.406 1.344 0.331 0.444-0.075 0.875-0.275 1.262-0.531 0.387-0.262 0.731-0.588 0.975-0.969s0.406-0.869 0.25-1.356v-0.006c-0.206-0.629-0.719-1.062-1.287-1.267-0.244-0.088-0.5-0.137-0.762-0.166 0.181-0.204 0.369-0.394 0.556-0.558 0.425-0.365 0.856-0.594 1.1-0.639l-0.213-1.105zM10.925 5.808l-0.95 0.598 2.156 3.453-3.525 0.181 1.656 3.612 1.025-0.475-0.969-2.1 3.787-0.194-3.181-5.076zM24.45 7.015c0.381-0.006 0.719 0.038 0.969 0.131 0.337 0.119 0.506 0.269 0.594 0.55 0.025 0.069 0.012 0.206-0.119 0.413-0.138 0.213-0.381 0.45-0.656 0.637-0.281 0.188-0.594 0.319-0.825 0.356-0.238 0.044-0.344 0-0.394-0.044-0.219-0.2-0.281-0.45-0.219-0.869 0.050-0.338 0.206-0.744 0.438-1.162 0.075 0 0.144-0.013 0.212-0.013zM5.937 8.221c-0.265 0-0.52 0.105-0.707 0.293s-0.293 0.442-0.293 0.707c0 0.265 0.105 0.52 0.293 0.707s0.442 0.293 0.707 0.293c0.131 0 0.261-0.026 0.383-0.076s0.232-0.124 0.325-0.217c0.093-0.093 0.167-0.203 0.217-0.325s0.076-0.251 0.076-0.383c0-0.131-0.026-0.261-0.076-0.383s-0.124-0.232-0.217-0.325c-0.093-0.093-0.203-0.166-0.325-0.217s-0.252-0.076-0.383-0.076zM28.194 10.546l-0.9 1.038-1.363-0.113 0.712 1.175-0.531 1.262 1.338-0.313 1.037 0.894 0.119-1.369 1.169-0.713-1.262-0.531-0.319-1.331zM20.475 11.577c0.181 0.006 0.35 0.031 0.481 0.069 0.269 0.075 0.413 0.188 0.512 0.4 0.056 0.119 0.063 0.338-0.044 0.625-0.106 0.294-0.325 0.631-0.587 0.912s-0.581 0.506-0.844 0.612c-0.262 0.106-0.425 0.1-0.531 0.044h-0.006c-0.362-0.2-0.538-0.488-0.606-0.95-0.063-0.394-0.019-0.894 0.113-1.431 0.306-0.106 0.612-0.194 0.906-0.238 0.219-0.031 0.419-0.044 0.606-0.044zM7.825 14.821c-0.45-0.012-0.731 0.094-0.906 0.269s-0.281 0.456-0.269 0.906c0.013 0.456 0.162 1.056 0.45 1.725 0.575 1.344 1.706 2.962 3.225 4.488 1.519 1.519 3.144 2.644 4.488 3.219 0.662 0.288 1.262 0.438 1.719 0.45 0.456 0.019 0.731-0.094 0.906-0.269s0.288-0.45 0.269-0.906c-0.012-0.456-0.162-1.056-0.45-1.725-0.575-1.337-1.7-2.962-3.219-4.481-1.519-1.525-3.144-2.65-4.488-3.225-0.669-0.287-1.269-0.438-1.725-0.45zM22.325 16.777l-2.062 3.375-1.819-1.744-0.775 0.813 2.819 2.706 2.113-3.45 2.419 2.019 5.581-2.387-0.437-1.038-4.956 2.125-2.881-2.419zM5.839 17.571l-1.103 3.619c2.588 3.069 5.607 4.794 8.882 5.919l1.35-0.413c-0.194-0.069-0.4-0.15-0.606-0.237-1.525-0.65-3.231-1.85-4.831-3.456-1.606-1.606-2.806-3.313-3.459-4.838-0.088-0.2-0.166-0.4-0.233-0.594zM4.351 22.458l-0.876 2.875c1.806 1.688 3.688 2.45 5.662 3.138l2.713-0.825c-2.7-1.1-5.25-2.706-7.499-5.188zM23 22.533c-0.265 0-0.52 0.105-0.707 0.293s-0.293 0.442-0.293 0.707c0 0.265 0.105 0.52 0.293 0.707s0.442 0.293 0.707 0.293c0.265 0 0.52-0.105 0.707-0.293s0.293-0.442 0.293-0.707c0-0.265-0.105-0.52-0.293-0.707s-0.442-0.293-0.707-0.293zM3.113 26.527l-1.268 4.163 5.518-1.681c-1.423-0.569-2.861-1.294-4.249-2.481z"></path>
</symbol>
<symbol id="icon-person" viewBox="0 0 32 32">
<path d="M16 16c2.947 0 5.333-2.387 5.333-5.333s-2.387-5.333-5.333-5.333c-2.947 0-5.333 2.387-5.333 5.333s2.387 5.333 5.333 5.333zM16 18.667c-3.56 0-10.667 1.787-10.667 5.333v1.333c0 0.733 0.6 1.333 1.333 1.333h18.667c0.733 0 1.333-0.6 1.333-1.333v-1.333c0-3.547-7.107-5.333-10.667-5.333z"></path>
</symbol>
<symbol id="icon-phone" viewBox="0 0 32 32">
<path d="M24.881 19.773l-3.268-0.373c-0.785-0.090-1.557 0.18-2.11 0.733l-2.367 2.367c-3.641-1.853-6.626-4.825-8.478-8.478l2.38-2.38c0.553-0.553 0.823-1.325 0.733-2.11l-0.373-3.242c-0.154-1.299-1.248-2.277-2.56-2.277h-2.226c-1.454 0-2.663 1.209-2.573 2.663 0.682 10.987 9.469 19.761 20.443 20.443 1.454 0.090 2.663-1.119 2.663-2.573v-2.226c0.013-1.3-0.965-2.393-2.264-2.547z"></path>
</symbol>
<symbol id="icon-pizza" viewBox="0 0 32 32">
<path  d="M27.138 4.862c-2.933-2.933-6.833-4.548-10.981-4.548s-8.048 1.615-10.981 4.548c-2.933 2.933-4.548 6.833-4.548 10.981s1.615 8.048 4.548 10.981c2.933 2.933 6.833 4.548 10.981 4.548s8.048-1.615 10.981-4.548c2.933-2.933 4.548-6.833 4.548-10.981s-1.615-8.048-4.548-10.981zM26.426 26.113c-2.743 2.743-6.39 4.254-10.27 4.254s-7.526-1.511-10.269-4.254c-2.743-2.743-4.254-6.39-4.254-10.269s1.511-7.526 4.254-10.269c2.743-2.743 6.39-4.254 10.269-4.254s7.526 1.511 10.27 4.254c2.743 2.743 4.254 6.39 4.254 10.269s-1.511 7.526-4.254 10.27z"></path>
<path  d="M29.079 14.229c-0.142-0.314-0.276-0.612-0.332-0.89-0.058-0.294-0.048-0.629-0.037-0.984 0.017-0.542 0.034-1.103-0.186-1.634-0.225-0.542-0.638-0.929-1.037-1.303-0.255-0.239-0.496-0.464-0.657-0.705-0.164-0.245-0.282-0.556-0.407-0.886-0.193-0.509-0.392-1.035-0.803-1.446s-0.937-0.61-1.446-0.803c-0.329-0.125-0.64-0.243-0.886-0.407-0.241-0.162-0.467-0.402-0.706-0.657-0.374-0.399-0.761-0.812-1.303-1.037-0.532-0.221-1.092-0.203-1.635-0.187-0.355 0.011-0.69 0.021-0.984-0.037-0.279-0.055-0.576-0.189-0.89-0.332-0.478-0.216-1.019-0.461-1.614-0.461s-1.137 0.245-1.614 0.461c-0.314 0.142-0.612 0.276-0.89 0.332-0.294 0.058-0.629 0.048-0.984 0.037-0.542-0.017-1.103-0.034-1.634 0.186-0.542 0.225-0.929 0.638-1.303 1.037-0.239 0.255-0.464 0.496-0.705 0.657-0.245 0.164-0.556 0.282-0.886 0.407-0.509 0.193-1.035 0.392-1.446 0.803s-0.61 0.937-0.803 1.446c-0.125 0.329-0.243 0.64-0.407 0.886-0.162 0.241-0.402 0.467-0.657 0.706-0.399 0.374-0.812 0.761-1.037 1.303-0.221 0.532-0.203 1.092-0.187 1.635 0.011 0.355 0.021 0.69-0.037 0.984-0.055 0.279-0.189 0.576-0.332 0.89-0.216 0.478-0.461 1.019-0.461 1.614s0.245 1.137 0.461 1.614c0.142 0.314 0.276 0.612 0.332 0.89 0.058 0.294 0.048 0.629 0.037 0.984-0.017 0.542-0.034 1.103 0.186 1.634 0.225 0.542 0.638 0.929 1.037 1.303 0.255 0.239 0.496 0.464 0.657 0.705 0.164 0.245 0.282 0.556 0.407 0.886 0.193 0.509 0.392 1.035 0.803 1.446s0.937 0.61 1.446 0.803c0.329 0.125 0.64 0.243 0.886 0.407 0.241 0.162 0.467 0.402 0.706 0.657 0.374 0.399 0.761 0.812 1.303 1.037 0.532 0.221 1.092 0.203 1.635 0.187 0.355-0.011 0.69-0.021 0.984 0.037 0.279 0.055 0.576 0.189 0.89 0.332 0.478 0.216 1.019 0.461 1.614 0.461s1.137-0.245 1.614-0.461c0.314-0.142 0.612-0.276 0.89-0.332 0.295-0.058 0.629-0.048 0.984-0.037 0.542 0.017 1.103 0.034 1.634-0.186 0.542-0.225 0.929-0.638 1.303-1.037 0.239-0.255 0.464-0.496 0.705-0.657 0.245-0.164 0.556-0.282 0.886-0.407 0.509-0.193 1.035-0.392 1.446-0.803s0.61-0.937 0.803-1.446c0.125-0.329 0.243-0.64 0.407-0.886 0.162-0.241 0.402-0.467 0.657-0.706 0.399-0.374 0.812-0.761 1.037-1.303 0.221-0.532 0.203-1.092 0.187-1.635-0.011-0.355-0.021-0.69 0.037-0.984 0.055-0.279 0.189-0.576 0.332-0.89 0.216-0.478 0.461-1.019 0.461-1.614s-0.245-1.137-0.461-1.614zM28.162 17.043c-0.159 0.353-0.324 0.717-0.402 1.11-0.080 0.407-0.068 0.815-0.056 1.21 0.014 0.456 0.027 0.886-0.11 1.218-0.142 0.342-0.459 0.639-0.795 0.954-0.285 0.267-0.58 0.543-0.806 0.88-0.228 0.341-0.372 0.721-0.512 1.089-0.162 0.428-0.316 0.833-0.574 1.091s-0.663 0.411-1.091 0.573c-0.368 0.139-0.748 0.283-1.089 0.512-0.337 0.226-0.613 0.52-0.88 0.806-0.315 0.336-0.612 0.654-0.954 0.795-0.332 0.138-0.762 0.124-1.218 0.11-0.395-0.012-0.804-0.025-1.21 0.056-0.392 0.078-0.757 0.242-1.11 0.402-0.422 0.191-0.821 0.371-1.2 0.371s-0.777-0.18-1.2-0.371c-0.353-0.159-0.717-0.324-1.11-0.402-0.258-0.051-0.517-0.065-0.772-0.065-0.147 0-0.294 0.005-0.438 0.009-0.456 0.014-0.886 0.027-1.218-0.11-0.342-0.142-0.639-0.459-0.954-0.795-0.267-0.285-0.543-0.58-0.88-0.806-0.341-0.228-0.721-0.372-1.089-0.512-0.428-0.162-0.833-0.316-1.091-0.574s-0.411-0.663-0.574-1.091c-0.139-0.368-0.283-0.748-0.511-1.089-0.226-0.337-0.52-0.613-0.806-0.88-0.336-0.315-0.654-0.612-0.795-0.954-0.138-0.332-0.124-0.762-0.11-1.218 0.012-0.395 0.025-0.804-0.056-1.21-0.078-0.392-0.242-0.757-0.402-1.11-0.191-0.422-0.371-0.821-0.371-1.2s0.18-0.777 0.371-1.2c0.159-0.353 0.324-0.717 0.402-1.11 0.080-0.407 0.068-0.815 0.056-1.21-0.014-0.456-0.027-0.886 0.11-1.218 0.142-0.342 0.459-0.639 0.795-0.954 0.285-0.267 0.58-0.543 0.806-0.88 0.228-0.341 0.372-0.721 0.512-1.089 0.162-0.428 0.316-0.833 0.574-1.091s0.663-0.411 1.091-0.574c0.368-0.139 0.748-0.283 1.089-0.511 0.337-0.226 0.613-0.52 0.88-0.805 0.315-0.336 0.612-0.654 0.954-0.795 0.332-0.138 0.762-0.124 1.218-0.11 0.395 0.012 0.804 0.025 1.21-0.056 0.392-0.078 0.757-0.242 1.11-0.402 0.422-0.191 0.821-0.371 1.2-0.371s0.777 0.18 1.2 0.371c0.353 0.159 0.717 0.324 1.11 0.402 0.407 0.080 0.815 0.068 1.21 0.056 0.456-0.014 0.886-0.027 1.218 0.11 0.342 0.142 0.639 0.459 0.954 0.795 0.267 0.285 0.543 0.58 0.88 0.806 0.341 0.228 0.721 0.372 1.089 0.512 0.428 0.162 0.833 0.316 1.091 0.574s0.411 0.663 0.573 1.091c0.139 0.368 0.283 0.748 0.512 1.089 0.226 0.337 0.52 0.613 0.805 0.88 0.336 0.315 0.654 0.612 0.795 0.954 0.138 0.332 0.124 0.762 0.11 1.218-0.012 0.395-0.025 0.804 0.056 1.21 0.078 0.392 0.242 0.757 0.402 1.11 0.191 0.422 0.371 0.821 0.371 1.2s-0.18 0.777-0.371 1.2z"></path>
<path  d="M12.937 11.516c1.165 0 2.113-0.948 2.113-2.113s-0.948-2.113-2.113-2.113-2.113 0.948-2.113 2.113c0 1.165 0.948 2.113 2.113 2.113zM12.937 8.297c0.61 0 1.107 0.496 1.107 1.107s-0.496 1.107-1.107 1.107c-0.61 0-1.107-0.496-1.107-1.107s0.496-1.107 1.107-1.107z"></path>
<path  d="M24.173 13.16c0-1.165-0.948-2.113-2.113-2.113s-2.113 0.948-2.113 2.113c0 1.165 0.948 2.113 2.113 2.113s2.113-0.948 2.113-2.113zM22.060 14.267c-0.61 0-1.107-0.497-1.107-1.107s0.497-1.107 1.107-1.107c0.61 0 1.107 0.496 1.107 1.107s-0.497 1.107-1.107 1.107z"></path>
<path  d="M18.84 20.706c-1.165 0-2.113 0.948-2.113 2.113s0.948 2.113 2.113 2.113 2.113-0.948 2.113-2.113c0-1.165-0.948-2.113-2.113-2.113zM18.84 23.926c-0.61 0-1.107-0.497-1.107-1.107s0.497-1.107 1.107-1.107c0.61 0 1.107 0.497 1.107 1.107s-0.496 1.107-1.107 1.107z"></path>
<path  d="M12.903 17.99c0-1.165-0.948-2.113-2.113-2.113s-2.113 0.948-2.113 2.113c0 1.165 0.948 2.113 2.113 2.113s2.113-0.948 2.113-2.113zM10.79 19.097c-0.61 0-1.107-0.497-1.107-1.107s0.497-1.107 1.107-1.107c0.61 0 1.107 0.497 1.107 1.107s-0.496 1.107-1.107 1.107z"></path>
<path  d="M18.27 16.917c0-0.869-0.707-1.576-1.576-1.576s-1.576 0.707-1.576 1.576c0 0.869 0.707 1.576 1.576 1.576s1.576-0.707 1.576-1.576zM16.693 17.487c-0.314 0-0.57-0.256-0.57-0.57s0.256-0.57 0.57-0.57c0.314 0 0.57 0.256 0.57 0.57s-0.256 0.57-0.57 0.57z"></path>
<path  d="M18.84 9.906c0.869 0 1.576-0.707 1.576-1.576s-0.707-1.576-1.576-1.576c-0.869 0-1.576 0.707-1.576 1.576s0.707 1.576 1.576 1.576zM18.84 7.76c0.314 0 0.57 0.256 0.57 0.57s-0.256 0.57-0.57 0.57-0.57-0.256-0.57-0.57c0-0.314 0.256-0.57 0.57-0.57z"></path>
<path  d="M23.67 16.95c-0.869 0-1.576 0.707-1.576 1.576s0.707 1.576 1.576 1.576c0.869 0 1.576-0.707 1.576-1.576s-0.707-1.576-1.576-1.576zM23.67 19.097c-0.314 0-0.57-0.256-0.57-0.57s0.256-0.57 0.57-0.57c0.314 0 0.57 0.256 0.57 0.57s-0.256 0.57-0.57 0.57z"></path>
<path  d="M12.937 21.78c-0.869 0-1.576 0.707-1.576 1.576s0.707 1.576 1.576 1.576c0.869 0 1.576-0.707 1.576-1.576s-0.707-1.576-1.576-1.576zM12.937 23.926c-0.314 0-0.57-0.256-0.57-0.57s0.256-0.57 0.57-0.57c0.314 0 0.57 0.256 0.57 0.57s-0.256 0.57-0.57 0.57z"></path>
<path  d="M8.644 14.2c0.869 0 1.576-0.707 1.576-1.576s-0.707-1.576-1.576-1.576c-0.869 0-1.576 0.707-1.576 1.576s0.707 1.576 1.576 1.576zM8.644 12.053c0.314 0 0.57 0.256 0.57 0.57s-0.256 0.57-0.57 0.57c-0.314 0-0.57-0.256-0.57-0.57s0.256-0.57 0.57-0.57z"></path>
<path  d="M14.235 12.71c-0.248-0.124-0.551-0.024-0.675 0.225s-0.024 0.551 0.225 0.675l1.073 0.537c0.072 0.036 0.149 0.053 0.225 0.053 0.185 0 0.362-0.102 0.45-0.278 0.124-0.249 0.024-0.551-0.225-0.675l-1.073-0.537z"></path>
<path  d="M17.23 12.59c0.129 0 0.258-0.049 0.356-0.147l0.537-0.537c0.197-0.196 0.197-0.515 0-0.711s-0.515-0.196-0.711 0l-0.537 0.537c-0.196 0.196-0.196 0.515 0 0.711 0.098 0.098 0.227 0.147 0.356 0.147z"></path>
<path  d="M15.439 19.781l-0.537-0.537c-0.197-0.197-0.515-0.197-0.711 0s-0.197 0.515 0 0.711l0.537 0.537c0.098 0.098 0.227 0.147 0.356 0.147s0.258-0.049 0.356-0.147c0.196-0.196 0.196-0.515 0-0.711z"></path>
<path  d="M20.269 17.097c-0.197-0.196-0.515-0.196-0.711 0s-0.197 0.515 0 0.711l0.537 0.537c0.098 0.098 0.227 0.147 0.356 0.147s0.258-0.049 0.356-0.147c0.196-0.196 0.196-0.515 0-0.711l-0.537-0.537z"></path>
<path  d="M26.128 14.32l-1.073 0.537c-0.249 0.124-0.349 0.426-0.225 0.675 0.088 0.176 0.266 0.278 0.45 0.278 0.076 0 0.152-0.017 0.225-0.053l1.073-0.537c0.249-0.124 0.349-0.426 0.225-0.675s-0.426-0.349-0.675-0.225z"></path>
<path  d="M7.389 16.024c-0.196-0.196-0.515-0.196-0.711 0l-0.537 0.537c-0.197 0.197-0.197 0.515 0 0.711 0.098 0.098 0.227 0.147 0.356 0.147s0.258-0.049 0.356-0.147l0.537-0.537c0.197-0.196 0.197-0.515 0-0.711z"></path>
<path  d="M15.264 6.539c0.098 0.098 0.227 0.147 0.356 0.147s0.258-0.049 0.356-0.147c0.196-0.197 0.196-0.515 0-0.711l-0.537-0.537c-0.196-0.196-0.515-0.196-0.711 0s-0.196 0.515 0 0.711l0.537 0.537z"></path>
<path  d="M15.62 24.463c-0.278 0-0.503 0.225-0.503 0.503v0.537c0 0.278 0.225 0.503 0.503 0.503s0.503-0.225 0.503-0.503v-0.537c0-0.278-0.225-0.503-0.503-0.503z"></path>
<path  d="M22.778 21.391l-0.537 0.537c-0.196 0.197-0.196 0.515 0 0.711 0.098 0.098 0.227 0.147 0.356 0.147s0.258-0.049 0.356-0.147l0.537-0.537c0.197-0.196 0.197-0.515 0-0.711s-0.515-0.196-0.711 0z"></path>
<path  d="M8.999 21.391c-0.197-0.196-0.515-0.196-0.711 0s-0.197 0.515 0 0.711l0.537 0.537c0.098 0.098 0.227 0.147 0.356 0.147s0.258-0.049 0.356-0.147c0.196-0.196 0.196-0.515 0-0.711l-0.537-0.537z"></path>
<path  d="M22.241 8.686c0.098 0.098 0.227 0.147 0.356 0.147s0.258-0.049 0.356-0.147c0.196-0.196 0.196-0.515 0-0.711l-0.537-0.537c-0.196-0.197-0.515-0.197-0.711 0s-0.196 0.515 0 0.711l0.537 0.537z"></path>
<path  d="M24.207 10.98c0.132 0 0.262-0.054 0.356-0.148s0.148-0.223 0.148-0.355-0.054-0.262-0.148-0.355c-0.093-0.094-0.223-0.148-0.356-0.148s-0.262 0.054-0.355 0.148c-0.094 0.093-0.148 0.223-0.148 0.355s0.054 0.262 0.148 0.355c0.093 0.094 0.223 0.148 0.355 0.148z"></path>
<path  d="M17.948 13.878c-0.094 0.093-0.148 0.223-0.148 0.356s0.054 0.262 0.148 0.355c0.093 0.094 0.223 0.148 0.355 0.148s0.262-0.054 0.355-0.148c0.094-0.093 0.148-0.223 0.148-0.355s-0.054-0.262-0.148-0.356c-0.093-0.094-0.223-0.148-0.355-0.148s-0.262 0.054-0.355 0.148z"></path>
<path  d="M11.508 14.414c-0.094 0.093-0.148 0.223-0.148 0.355s0.054 0.262 0.148 0.355c0.093 0.094 0.223 0.148 0.355 0.148s0.262-0.054 0.356-0.148c0.094-0.093 0.148-0.223 0.148-0.355s-0.054-0.262-0.148-0.355c-0.093-0.094-0.223-0.148-0.356-0.148s-0.262 0.054-0.355 0.148z"></path>
<path  d="M9.18 9.37c0.132 0 0.262-0.054 0.355-0.148s0.148-0.223 0.148-0.355c0-0.133-0.054-0.262-0.148-0.355s-0.223-0.148-0.355-0.148c-0.133 0-0.262 0.054-0.355 0.148s-0.148 0.223-0.148 0.355c0 0.132 0.054 0.262 0.148 0.355s0.223 0.148 0.355 0.148z"></path>
<path  d="M17.411 19.244c-0.094 0.093-0.148 0.223-0.148 0.355s0.054 0.262 0.148 0.356c0.093 0.094 0.223 0.148 0.356 0.148s0.262-0.054 0.355-0.148c0.094-0.093 0.148-0.223 0.148-0.356s-0.054-0.262-0.148-0.355c-0.093-0.094-0.223-0.148-0.355-0.148s-0.262 0.054-0.356 0.148z"></path>
<path  d="M17.767 25.536c-0.132 0-0.262 0.054-0.356 0.148s-0.148 0.223-0.148 0.356c0 0.133 0.054 0.262 0.148 0.355s0.223 0.148 0.356 0.148c0.133 0 0.262-0.054 0.355-0.148s0.148-0.223 0.148-0.355c0-0.132-0.054-0.262-0.148-0.356s-0.223-0.148-0.355-0.148z"></path>
<path  d="M7.57 18.56c-0.132 0-0.262 0.054-0.356 0.148s-0.148 0.223-0.148 0.356 0.054 0.262 0.148 0.355c0.093 0.094 0.223 0.148 0.356 0.148s0.262-0.054 0.356-0.148c0.094-0.093 0.148-0.223 0.148-0.355s-0.054-0.262-0.148-0.356c-0.093-0.094-0.223-0.148-0.356-0.148z"></path>
</symbol>
<symbol id="icon-playmarket" viewBox="0 0 90 32">
<path fill="#fff" style="fill: var(--color1, #fff)" d="M31.68 8.24c0 0.080 0 0.24 0 0.4 0 0.64-0.24 1.2-0.64 1.6-0.48 0.48-1.040 0.72-1.84 0.72-0.72 0-1.28-0.24-1.84-0.72-0.48-0.48-0.72-1.12-0.72-1.84s0.24-1.36 0.72-1.84 1.12-0.72 1.84-0.72c0.32 0 0.72 0.080 1.040 0.24s0.56 0.32 0.8 0.56v0.080l-0.48 0.48-0.080-0.080c-0.32-0.4-0.72-0.56-1.28-0.56-0.48 0-0.88 0.16-1.28 0.48-0.32 0.32-0.56 0.8-0.56 1.36s0.16 0.96 0.56 1.36c0.4 0.32 0.8 0.48 1.28 0.48s0.96-0.16 1.28-0.48c0.24-0.24 0.32-0.48 0.4-0.88h-1.76v-0.72l2.56 0.080zM32.48 10.88h2.96v-0.72h-2.16v-1.36h1.92v-0.72h-2v-1.36h2.16v-0.72h-2.96v4.88h0.080zM35.92 6.72h1.36v4.16h0.72v-4.16h1.36v-0.72h-3.44v0.72zM41.6 10.88h0.72v-4.88h-0.72v4.88zM43.040 6.72h1.36v4.16h0.72v-4.16h1.28v-0.72h-3.44v0.72h0.080zM52.64 6.64c0.48 0.48 0.72 1.12 0.72 1.84s-0.24 1.36-0.72 1.84-1.12 0.72-1.84 0.72c-0.72 0-1.36-0.24-1.84-0.72s-0.72-1.12-0.72-1.84c0-0.72 0.24-1.36 0.72-1.84s1.12-0.72 1.84-0.72c0.8-0.080 1.36 0.24 1.84 0.72zM52.16 7.12c-0.32-0.32-0.8-0.48-1.28-0.48s-0.88 0.16-1.28 0.48c-0.32 0.32-0.48 0.8-0.48 1.36s0.16 0.96 0.48 1.36c0.32 0.32 0.8 0.48 1.28 0.48s0.88-0.16 1.28-0.48c0.32-0.32 0.48-0.8 0.48-1.36s-0.16-1.040-0.48-1.36zM57.2 6v3.52l-2.24-3.6h-0.88v4.88h0.72v-3.68l2.32 3.76h0.72v-4.88h-0.64zM49.84 20.56c0 1.76-1.44 3.12-3.2 3.12s-3.2-1.36-3.2-3.12c0-1.84 1.44-3.12 3.2-3.12s3.2 1.36 3.2 3.12zM48.48 20.56c0-1.12-0.8-1.92-1.76-1.92s-1.76 0.8-1.76 1.92c0 1.12 0.8 1.92 1.76 1.92 0.88 0 1.76-0.8 1.76-1.92zM42.88 20.56c0 1.76-1.44 3.12-3.2 3.12s-3.2-1.36-3.2-3.12c0-1.84 1.44-3.12 3.2-3.12 1.84 0 3.2 1.36 3.2 3.12zM41.52 20.56c0-1.12-0.8-1.92-1.76-1.92s-1.76 0.8-1.76 1.92c0 1.12 0.8 1.92 1.76 1.92s1.76-0.8 1.76-1.92zM36 18.4c0.080 0.24 0.080 0.56 0.080 0.8 0 0.96-0.24 2.24-1.2 3.12-0.88 0.88-2 1.36-3.44 1.36-2.72 0-4.96-2.16-4.96-4.88s2.24-4.88 4.96-4.88c1.52 0 2.56 0.56 3.36 1.36l-0.96 0.96c-0.56-0.56-1.36-0.96-2.4-0.96-2 0-3.52 1.6-3.52 3.52s1.52 3.52 3.52 3.52c1.28 0 2-0.48 2.48-0.96 0.4-0.4 0.64-0.96 0.72-1.68h-3.2v-1.28c0.080 0 4.56 0 4.56 0zM65.36 19.84l-4.24 1.76c0.32 0.64 0.8 0.96 1.52 0.96s1.2-0.32 1.52-0.88l1.040 0.72c-0.32 0.48-1.2 1.36-2.64 1.36-1.76 0-3.12-1.36-3.12-3.12 0-1.84 1.36-3.12 2.96-3.12 1.68 0 2.48 1.28 2.72 2 0.080-0.080 0.24 0.32 0.24 0.32zM63.68 19.36c-0.16-0.4-0.64-0.64-1.2-0.64-0.72 0-1.68 0.64-1.68 1.84 0.080-0.080 2.88-1.2 2.88-1.2zM57.44 14.32h1.36v9.2h-1.36v-9.2zM55.2 17.68h1.28v5.6c0 2.32-1.36 3.28-3.040 3.28-1.52 0-2.48-1.040-2.8-1.84l1.2-0.48c0.24 0.48 0.72 1.12 1.6 1.12 1.040 0 1.68-0.64 1.68-1.84v-0.48h-0.080c-0.32 0.4-0.88 0.72-1.68 0.72-1.6 0-3.040-1.36-3.040-3.12s1.44-3.12 3.040-3.12c0.72 0 1.36 0.32 1.68 0.72h0.16v-0.56zM55.28 20.64c0-1.12-0.72-1.92-1.68-1.92s-1.76 0.8-1.76 1.92c0 1.12 0.8 1.92 1.76 1.92 0.96-0.080 1.68-0.88 1.68-1.92zM74.8 17.2c0 1.76-1.52 2.88-3.040 2.88h-1.92v3.52h-1.36v-9.28h3.36c1.44 0 2.96 1.12 2.96 2.88zM73.36 17.2c0-0.72-0.56-1.6-1.6-1.6h-2v3.12h2c1.040 0.080 1.6-0.8 1.6-1.52zM83.12 20v3.52h-1.36v-0.72h-0.080c-0.32 0.48-0.8 0.88-1.76 0.88-1.2 0-2.32-0.8-2.32-2 0-1.36 1.36-2.080 2.64-2.080 0.64 0 1.2 0.24 1.44 0.32v-0.080c0-0.72-0.72-1.2-1.44-1.2-0.48 0-1.040 0.16-1.28 0.64l-1.2-0.48c0.4-0.96 1.44-1.44 2.48-1.44 1.68 0.080 2.88 0.96 2.88 2.64zM81.84 21.040c-0.4-0.16-0.64-0.32-1.28-0.32-0.72 0-1.44 0.24-1.44 0.96 0 0.56 0.64 0.8 1.12 0.8 0.72 0 1.44-0.64 1.6-1.44zM89.6 17.68l-3.84 8.64h-1.44l1.44-3.12-2.48-5.6h1.52l1.68 4h0.080l1.6-4c-0.16 0.080 1.44 0.080 1.44 0.080zM75.52 14.32h1.36v9.2h-1.36v-9.2zM1.76 6.72c-0.080 0.24-0.16 0.48-0.16 0.88v17.52c0 0.4 0.080 0.64 0.24 0.88l9.36-9.68-9.44-9.6zM11.76 15.76l2.96-3.040-11.12-6.32c-0.4-0.24-0.8-0.32-1.2-0.16l9.36 9.52zM19.28 15.2l-3.76-2.16-3.12 3.2 3.2 3.28 3.68-2.080c1.12-0.56 1.12-1.6 0-2.24zM11.76 16.88l-9.36 9.6c0.32 0.080 0.72 0 1.2-0.24l11.2-6.32-3.040-3.040z"></path>
</symbol>
<symbol id="icon-pomidoros" viewBox="0 0 32 32">
<path  d="M14.004 5.12l0.376 2.257-0.125 0.125-1.379-0.376 0.502 0.752c-2.082 0.272-4.142 0.644-5.894 1.89-4.314 3.068-3.607 10.422-0.243 13.909 2.625 2.721 6.378 3.597 10.024 3.237 3.708-0.366 7.416-2.684 9.164-5.994 2.232-4.226 1.027-11.037-3.522-13.312-1.855-0.928-3.78-0.711-5.768-0.607l0.125-1.003-1.254 1.129-0.251-1.254h-0.125l-0.627 1.254-1.003-2.006zM11.035 9.148l1.088-0.392c0.411-0.524 1.138-0.491 1.759-0.499 1.666-0.023 4.147 1.34 4.135 3.258 0.951 0.554 0.627 2.052 0.627 3.009 1.695-1.18 3.831-0.633 5.013 1.13 1.156 1.724 1.392 5.514 0.162 7.27-1.334 1.904-4.077 1.42-5.489-0.142-1.252-1.386-1.558-4.031-0.941-5.75l1.003 0.376-1.129-0.752-1.971 2.092-0.035 2.422v0.125c0.7 0.601 0.398 1.815 0.551 2.633 0.057 0.308 0.326 0.742 0.161 1.048-0.206 0.382-1.597 1.162-1.965 0.959h-0.125c-0.225 0.8-0.939 0.119-1.379-0.165-1.191-0.768-1.603-1.096-2.004-2.468-0.34-1.164-0.249-2.447-0.43-3.636-0.485-3.193-1.077-6.554-1.077-9.781l1.998-0.719 0.008-0.033 0.041 0.015-0.049 0.018-0.117 0.468c0.824 0.81 2.519 1.189 1.129-0.125l1.63 0.502 0.125 0.125-1.003 0.502-1.003 0.878 1.096 9.279 0.91 5.016c2.472-1.098 1.213-2.659 1.505-4.765-0.526-0.389-0.718-2.054-0.397-2.633 0.514-0.927 1.672-1.483 2.371-2.265 1.286-1.439 0.991-2.902 0.785-4.632-1.103-0.922-1.73-1.305-3.135-1.63l-1.129 0.251c-0.051-0.516-0.278-0.697-0.752-0.878l0.251-0.251-1.505 0.125 0.251 0.376-0.962-0.361zM18.769 14.525l-0.125 0.627 0.752 0.125c-0.149 0.768-0.612 1.442-0.79 2.215-0.326 1.414 0.080 3.267 0.694 4.556 0.926 1.947 3.403 2.601 4.471 0.376 0.77-1.604 0.64-4.694-0.123-6.27-0.499-1.030-1.835-1.825-2.995-1.468-0.435 0.134-0.77 0.454-1.132 0.716l-0.752-0.878zM21.153 16.472c0.856-0.232 1.42 0.486 1.708 1.187 0.488 1.185 0.845 4.167-0.958 4.543-0.771 0.161-1.357-0.525-1.63-1.157-0.504-1.168-0.775-4.125 0.879-4.573zM21.904 20.544l-0.752 1.254h1.129l-0.251-0.502 0.502 0.125 0.125-0.627-0.752-0.251zM20.524 17.032c-0.122 1.737-0.42 2.773 0.251 4.514 1.594-0.589 0.598-3.423 0.125-4.514h-0.376zM21.904 21.212l0.042 0.042c-0.062 0.021-0.139-0.042-0.042-0.042zM18.017 15.402v0.502l0.376 0.125v0.125l-0.502-0.125 0.251 0.502-0.376-0.125 0.752 0.627-0.251-0.502 0.376 0.125-0.251-0.502 0.627-0.125v-0.502l-1.003-0.125zM13.879 16.531l-0.125-3.135c-0.48-0.277-0.172-1.568 0.125-1.129 1.087-0.842 2.339 0.342 2.36 1.505 0.024 1.286-1.211 2.397-2.36 2.759zM14.38 14.148l0.251 0.752-0.376-0.251c-0.041 0.566 0.073 0.879 0.502 1.254l0.125-0.502v-0.125l-0.251-0.376 0.878 0.376v-0.502l-1.129-0.627zM19.396 14.274l-0.125 0.376 0.752 0.125v-0.376l-0.627-0.125zM19.897 14.148l1.003 0.251c-0.283-0.415-0.544-0.403-1.003-0.251zM14.004 12.393v1.129h0.125l-0.125-1.129zM10.242 9.76c0.205 0.763 0.776 1.591 1.63 1.254v-0.125l-1.254-1.129h-0.376zM13.377 8.38c0.1 0.426 0.289 0.76 0.563 0.993s0.631 0.364 1.068 0.386l-1.63-1.379zM14.505 8.38l0.125 0.627 1.63 0.627-1.756-1.254z"></path>
</symbol>
<symbol id="icon-Pressent" viewBox="0 0 32 32">
<path d="M25.494 15.828h-8v9.6h8v-9.6zM15.361 15.828h-8v9.6h8v-9.6zM15.276 9.428h-9.782v5.486h9.782v-5.486zM27.276 9.428h-9.782v5.486h9.782v-5.486zM15.783 8.704h1.206c0.021 0.006 0.042 0.010 0.064 0.013 0 0 1.495 0.159 2.715-0.172 0.94-0.255 1.701-0.802 1.753-1.787 0.083-1.582-0.614-2.718-1.312-3.222-0.364-0.263-0.739-0.362-1.043-0.318-0.269 0.038-0.702 0.313-1.155 0.747-0.56 0.535-1.183 1.301-1.625 1.964-0.442-0.663-1.065-1.429-1.625-1.964-0.454-0.434-0.886-0.709-1.155-0.747-0.304-0.043-0.679 0.055-1.043 0.318-0.698 0.504-1.395 1.64-1.312 3.222 0.052 0.986 0.813 1.532 1.753 1.787 1.22 0.331 2.715 0.172 2.715 0.172 0.022-0.002 0.043-0.006 0.064-0.013zM15.782 7.202c0.006-0.061 0.017-0.123 0.033-0.187 0.025-0.098 0.072-0.218 0.138-0.354-0.383-0.647-1.109-1.544-1.728-2.137-0.203-0.195-0.395-0.356-0.56-0.458-0.066-0.041-0.122-0.075-0.17-0.082-0.207-0.030-0.456 0.123-0.696 0.365-0.46 0.465-0.833 1.291-0.776 2.367 0.033 0.631 0.581 0.917 1.183 1.081 0.794 0.215 1.717 0.197 2.162 0.17l0.413-0.766zM17.401 7.968c0.444 0.026 1.369 0.046 2.164-0.17 0.602-0.163 1.15-0.45 1.183-1.081 0.057-1.077-0.316-1.903-0.776-2.367-0.24-0.242-0.489-0.395-0.696-0.365-0.048 0.007-0.104 0.041-0.17 0.082-0.165 0.103-0.356 0.264-0.56 0.458-0.619 0.593-1.345 1.489-1.728 2.137 0.066 0.136 0.114 0.256 0.138 0.354 0.016 0.066 0.027 0.129 0.034 0.191l0.411 0.761z"></path>
</symbol>
<symbol id="icon-right-arrow" viewBox="0 0 32 32">
<path fill="#f76141" style="fill: var(--color4, #f76141)" d="M20.8 15.84l-7.32 8.175v-16.351l7.32 8.175z"></path>
</symbol>
<symbol id="icon-salad" viewBox="0 0 32 32">
<path  d="M27.979 14.185c-0.394-0.136-0.806-0.214-1.222-0.23-0.083-0.006-0.184-0.014-0.266-0.024 0.041-0.054 0.089-0.114 0.129-0.165 0.345-0.385 0.594-0.847 0.726-1.347 0.267-1.165 0.326-3.358-1.144-4.186-0.322-0.173-0.677-0.278-1.041-0.309s-0.731 0.013-1.078 0.13c-0.929 0.279-1.715 0.905-2.194 1.748-0.523 1.012-0.243 2.041-0.017 2.867 0.138 0.511 0.271 0.995 0.106 1.15-0.192 0.184-0.764 0.030-1.318-0.121-0.173-0.046-0.351-0.092-0.53-0.138-0.292-0.645-0.763-1.192-1.358-1.576s-1.287-0.588-1.995-0.589c-0.013 0-0.025 0-0.038 0-0.045-0.35-0.132-0.693-0.261-1.021-0.917-2.329-3.493-3.506-5.182-3.005-0.484 0.151-0.916 0.432-1.251 0.812-0.376-0.539-0.864-0.992-1.43-1.327-0.642-0.34-1.348-0.545-2.073-0.6s-1.453 0.039-2.14 0.278c-0.383 0.105-0.739 0.29-1.045 0.544s-0.553 0.57-0.725 0.928c-0.429 1.087 0.368 2.32 1.817 4.558 0.155 0.239 0.316 0.473 0.476 0.709-0.382 0.141-0.753 0.311-1.11 0.506-0.492 0.237-0.889 0.634-1.127 1.127-0.146 0.503-0.204 1.027-0.172 1.55 0.004 3.537 1.411 6.927 3.912 9.428s5.891 3.907 9.428 3.912h0.92c3.537-0.004 6.927-1.411 9.428-3.912s3.907-5.891 3.912-9.428c-0.007-0.071-0.024-0.141-0.050-0.208-0.408-0.929-1.155-1.666-2.089-2.063zM20.422 14.591c0.801 0.217 1.628 0.442 2.194-0.104 0.559-0.535 0.348-1.309 0.144-2.057s-0.412-1.51-0.053-2.203c0.365-0.621 0.951-1.081 1.641-1.288 0.229-0.079 0.471-0.11 0.712-0.093s0.477 0.082 0.692 0.193c0.926 0.522 0.925 2.185 0.697 3.177-0.104 0.363-0.291 0.697-0.547 0.974-0.252 0.315-0.566 0.707-0.336 1.171 0.222 0.443 0.701 0.479 1.123 0.51 0.329 0.011 0.654 0.070 0.966 0.175 0.478 0.195 0.889 0.525 1.182 0.95h-4.607c0.106-0.581 0.222-1.162 0.356-1.735 0.251-1.069 0.556-2.138 0.908-3.178l-0.871-0.294c-0.361 1.068-0.675 2.165-0.932 3.262-0.15 0.642-0.28 1.294-0.395 1.945h-2.958c0.124-0.457 0.153-0.935 0.085-1.404zM17.238 13.236v-0.879c0.513 0.088 0.991 0.318 1.379 0.666s0.67 0.797 0.813 1.298l-0.958 0.319 0.291 0.874 0.765-0.255c-0.015 0.251-0.065 0.499-0.149 0.737h-5.202c-0.106-0.295-0.16-0.606-0.159-0.92 0-0.092 0.005-0.184 0.014-0.276l0.76 0.253 0.291-0.874-0.804-0.268c0.189-0.404 0.473-0.757 0.828-1.027s0.77-0.451 1.21-0.526v0.879h0.92zM11.559 8.254c1.254-0.374 3.347 0.641 4.064 2.46 0.102 0.26 0.172 0.532 0.207 0.81-0.936 0.246-1.737 0.852-2.227 1.687s-0.63 1.829-0.389 2.767l-0.038 0.018h-2.121c0.197-0.205 0.39-0.414 0.565-0.635 1.087-1.398 1.758-3.073 1.937-4.835l-0.914-0.1c-0.162 1.589-0.766 3.101-1.743 4.365-0.026 0.033-0.057 0.061-0.083 0.092 0.675-1.915 0.579-4.018-0.268-5.863 0.245-0.358 0.601-0.627 1.013-0.765zM3.489 8.346c0.128-0.232 0.302-0.435 0.511-0.596s0.45-0.279 0.706-0.344c0.562-0.194 1.158-0.271 1.751-0.229s1.171 0.206 1.699 0.478c2.201 1.271 2.704 4.931 1.668 7.233-0.036 0.081-0.079 0.155-0.12 0.23-0.089-0.375-0.189-0.746-0.31-1.108-0.752-2.203-2.064-4.173-3.807-5.715l-0.617 0.682c1.626 1.437 2.85 3.272 3.552 5.325 0.184 0.553 0.326 1.12 0.426 1.694h-0.795c-1.063-1.243-2.043-2.556-2.931-3.93-1.307-2.021-1.977-3.104-1.733-3.721v0.001zM3.53 15.277c0.152-0.308 0.409-0.553 0.724-0.69 0.388-0.213 0.795-0.391 1.216-0.531 0.477 0.665 0.974 1.312 1.488 1.94h-3.496c-0.048-0.241-0.025-0.491 0.068-0.719zM16.778 28.875h-0.92c-3.213-0.004-6.3-1.251-8.614-3.48s-3.675-5.268-3.797-8.479h25.743c-0.123 3.211-1.484 6.25-3.797 8.479s-5.401 3.477-8.614 3.48z"></path>
<path  d="M17.238 14.156h-0.92v0.92h0.92v-0.92z"></path>
<path  d="M17.238 7.716v0.92c0 0.122 0.048 0.239 0.135 0.325s0.203 0.135 0.325 0.135h1.84c1.098-0.001 2.15-0.438 2.926-1.214s1.213-1.828 1.214-2.926v-0.92c0-0.122-0.048-0.239-0.135-0.325s-0.203-0.135-0.325-0.135h-1.84c-1.098 0.001-2.15 0.438-2.926 1.214s-1.213 1.828-1.214 2.926zM21.378 4.496h1.38v0.46c-0.001 0.854-0.341 1.672-0.944 2.276s-1.422 0.943-2.276 0.944h-0.598l2.276-1.951-0.598-0.698-2.456 2.105c0.022-0.839 0.37-1.636 0.971-2.222s1.406-0.914 2.245-0.915z"></path>
<path  d="M13.099 4.956c0 0.273 0.081 0.54 0.233 0.767s0.367 0.404 0.619 0.508 0.53 0.132 0.797 0.079c0.268-0.053 0.514-0.185 0.707-0.378s0.324-0.439 0.378-0.707c0.053-0.268 0.026-0.545-0.079-0.797s-0.281-0.468-0.508-0.619-0.494-0.233-0.767-0.233c-0.366 0-0.717 0.145-0.976 0.404s-0.404 0.61-0.404 0.976zM14.939 4.956c0 0.091-0.027 0.18-0.078 0.256s-0.122 0.135-0.206 0.169c-0.084 0.035-0.177 0.044-0.266 0.026s-0.171-0.062-0.236-0.126c-0.064-0.064-0.108-0.146-0.126-0.236s-0.009-0.182 0.026-0.266c0.035-0.084 0.094-0.156 0.169-0.206s0.165-0.078 0.256-0.078c0.122 0 0.239 0.048 0.325 0.135s0.135 0.203 0.135 0.325z"></path>
<path  d="M7.118 3.576c0 0.273 0.081 0.54 0.233 0.767s0.367 0.404 0.619 0.508c0.252 0.104 0.53 0.132 0.797 0.079s0.514-0.185 0.707-0.378c0.193-0.193 0.324-0.439 0.378-0.707s0.026-0.545-0.079-0.797c-0.104-0.252-0.281-0.468-0.508-0.619s-0.494-0.233-0.767-0.233c-0.366 0-0.717 0.145-0.976 0.404s-0.404 0.61-0.404 0.976zM8.958 3.576c0 0.091-0.027 0.18-0.078 0.256s-0.122 0.135-0.206 0.169-0.177 0.044-0.266 0.026c-0.089-0.018-0.171-0.062-0.235-0.126s-0.108-0.146-0.126-0.236c-0.018-0.089-0.009-0.182 0.026-0.266s0.094-0.156 0.169-0.206c0.076-0.051 0.165-0.078 0.256-0.078 0.122 0 0.239 0.048 0.325 0.135s0.135 0.203 0.135 0.325z"></path>
<path  d="M6.591 21.277l-0.787 0.477c1.252 2.066 3.077 3.725 5.253 4.775l0.4-0.828c-2.016-0.973-3.706-2.51-4.867-4.425z"></path>
<path  d="M13.099 26.115h-0.92v0.92h0.92v-0.92z"></path>
</symbol>
<symbol id="icon-salateria" viewBox="0 0 32 32">
<path  d="M14.404 12.723c0 0-0.958 2.163-0.883 3.247s1.757 1.28 1.944 1.948c0.187 0.669-0.037 3.136 0.037 4.071s-0.598 2.318-0.71 3.328c-0.112 1.009-0.112 2.019 0.15 2.58s0.561 0.636 1.159 0.748c0.598 0.112 1.084-0.523 1.271-0.86s0.036-2.063 0-2.879c-0.020-0.454-0.681-2.072-0.721-2.796-0.024-0.45-0.196-3.904 0.048-4.191 0.226-0.265 1.854-1.264 1.869-1.909 0.013-0.52-0.498-2.98-0.604-3.417 1.627-0.813 2.868-2.616 2.735-4.287-0.187-2.355-2.542-2.692-3.253-2.692l1.907-0.71-2.617 0.187-1.010-1.57v1.57l-2.654-0.112 1.431 0.447c0 0-3.263 0.301-2.964 3.217 0.237 2.307 1.222 3.538 2.864 4.081zM14.932 12.869c0.033 0.638 0.084 1.664 0.084 1.941 0 0.411 0.785 0.037 0.785 0.037l0.027-1.833c-0.315-0.033-0.614-0.081-0.896-0.146zM17.297 12.861c-0.285 0.088-0.576 0.145-0.87 0.165-0.008 0.664-0.013 1.576 0.010 1.785 0.037 0.337 0.86 0.112 0.86 0.112v-2.062zM13.507 7.742c0.050 0.447 0.748 0.658 1.226 0.688s1.077-0.239 1.137-0.568c0.060-0.329-1.256-0.478-1.615-0.508s-0.778 0.12-0.748 0.389z"></path>
</symbol>
<symbol id="icon-silpo" viewBox="0 0 32 32">
<path  d="M13.553 11.201c-1.258 0.029-2.139 0.886-2.552 1.394 0 0-0.018 0.022-0.033 0.040-0.017-0.005-0.034-0.011-0.051-0.018-0.863-0.31-1.838-0.367-2.821-0.169-0.946 0.194-2.302 0.681-3.289 1.469-1.729 1.386-2.639 3.057-2.563 4.707 0.044 0.955 0.486 1.779 1.276 2.384 1.298 0.998 3.441 0.767 4.304 0.623 0.964-0.162 16.058-2.848 18.042-3.227 1.802-0.342 3.517-0.951 3.861-3.064 0.022-0.125 0.033-0.251 0.033-0.378v-0.015c0-0.518-0.163-1.001-0.446-1.329-0.529-0.609-1.418-0.681-2.038-0.684-0.863-0.004-10.123 0.173-11.174 0.194h-0.069c-0.004-0.032-0.007-0.065-0.007-0.065-0.051-0.409-0.224-0.793-0.497-1.102-0.319-0.36-0.921-0.785-1.976-0.76zM13.542 14.269c-0.366 0.014-0.656-0.087-0.809-0.285-0.112-0.151-0.141-0.345-0.083-0.58 0.045-0.196 0.158-0.369 0.319-0.49 0.241-0.166 0.532-0.242 0.823-0.216 0.576 0.032 0.859 0.407 0.83 0.771-0.040 0.544-0.555 0.778-1.080 0.799zM28.234 15.515c0.138-0.022 0.294-0.194 0.37-0.36 0.020 0.025 0.031 0.051 0.040 0.072s0.017 0.039 0.030 0.047c-0.073 0.277-0.355 0.515-0.562 0.537l-0.033 0.004-0.014 0.032c-0.2 0.468-0.558 0.753-1.084 0.832-0.209 0.033-0.423-0.017-0.597-0.139s-0.292-0.307-0.331-0.516l-0.018-0.086c-0.373 0.814-0.812 0.987-1.142 1.033-0.138 0.022-0.605 0.025-0.555-0.526 0.034-0.313 0.096-0.623 0.185-0.925 0.065-0.191 0.107-0.389 0.123-0.591 0.006-0.075-0.017-0.15-0.065-0.209-0.014-0.014-0.031-0.026-0.050-0.033s-0.039-0.011-0.059-0.010c-0.203 0.014-0.381 0.537-0.446 0.81 0 0-0.373 1.585-0.392 1.664-0.036 0.004-0.284 0.045-0.532 0.085-0.229 0.038-0.457 0.075-0.52 0.084l0.323-1.307-0.069 0.047c-0.078 0.053-0.162 0.096-0.25 0.13l-0.033 0.011-0.007 0.036c-0.167 0.814-0.714 1.282-1.624 1.415-0.703 0.104-1.171-0.133-1.276-0.72l-0.025-0.148-0.044 0.079-0.033 0.058c-0.225 0.393-0.704 1.069-1.375 1.167-0.243 0.036-0.45-0.018-0.595-0.151-0.156-0.144-0.232-0.378-0.225-0.673 0.011-0.396 0.14-0.771 0.255-1.101l0.006-0.019 0.036-0.108c0-0.001 0.026-0.093 0.062-0.216 0.062-0.215 0.151-0.525 0.174-0.612 0.036-0.14-0.062-0.324-0.254-0.245-0.074 0.039-0.131 0.105-0.16 0.184-0.037 0.064-0.065 0.213-0.107 0.439-0.003 0.015-0.006 0.031-0.009 0.047-0.002 0.013-0.005 0.026-0.008 0.040-0.103 0.548-0.284 1.514-0.634 2.013-0.457 0.652-0.975 0.789-1.178 0.817-0.493 0.072-0.928-0.058-1.178-0.274-0.548 0.425-1.331 0.677-1.777 0.735-1.070 0.137-1.305-0.54-1.131-1.174 0.003-0.013 0.004-0.026 0.004-0.040-0.736 0.864-1.733 1.689-2.951 1.916-1.367 0.256-2.146 0.047-2.774-0.526-0.453-0.41-0.725-1.318-0.518-2.067 0.616-2.222 2.763-3.227 4.181-3.266 0.914-0.025 1.324 0.155 1.675 0.518 0.218 0.227 0.323 0.533 0.312 0.907-0.022 0.692-0.529 1.156-1.153 1.214-0.279 0.025-0.526-0.050-0.692-0.212-0.17-0.166-0.257-0.418-0.247-0.731 0.014-0.486 0.42-0.879 0.674-1.012 0.096-0.055 0.197-0.1 0.301-0.137 0.098-0.158-1.483-0.627-2.465 1.448-0.187 0.374-0.315 0.775-0.38 1.189-0.163 0.864 0.080 1.48 0.5 1.739 0.308 0.191 0.798 0.22 1.421 0.058 1.175-0.302 2.313-1.786 2.705-2.87 0.189-0.525 0.374-1.092 0.437-1.282 0.004-0.011 0.007-0.020 0.009-0.028 0.032-0.002 0.315-0.011 0.646-0.022 0.465-0.016 1.024-0.035 1.109-0.039-0.047 0.151-0.881 2.611-0.881 2.611-0.025 0.076-0.207 0.655-0.073 0.835 0.039 0.041 0.088 0.072 0.141 0.091s0.111 0.025 0.167 0.017c0.186-0.024 0.307-0.097 0.435-0.174 0.027-0.016 0.055-0.033 0.083-0.049-0.131-0.201-0.181-0.444-0.138-0.681 0.091-0.476 0.605-0.85 1.077-0.544 0.236 0.155 0.337 0.479 0.112 0.85-0.115 0.179-0.264 0.333-0.439 0.454 0.109 0.053 0.233 0.068 0.352 0.043 0.606-0.076 0.809-0.67 0.925-1.538l0.007-0.029c0.083-0.72 0.232-1.451 0.776-1.937 0.515-0.461 1.2-0.029 1.229 0.295l0.112-0.396c0 0 1.149-0.022 1.284-0.025-0.044 0.144-0.642 2.315-0.642 2.315l-0.022 0.198v0.004c-0.001 0.025 0.003 0.050 0.012 0.074s0.022 0.045 0.039 0.063c0.015 0.016 0.034 0.028 0.055 0.035s0.043 0.009 0.065 0.005c0.239-0.025 0.547-0.522 0.725-0.979 0.002-0.002 0.003-0.005 0.004-0.009s0.002-0.006 0.003-0.009l0.004-0.004v-0.008c0.025-0.13 0.056-0.259 0.094-0.385l0.036-0.126c0 0 0.232-0.965 0.286-1.188 0.076-0.004 1.128-0.043 1.128-0.043s-0.584 2.427-0.591 2.719c-0.005 0.052-0 0.105 0.015 0.155s0.041 0.097 0.075 0.137c0.018 0.018 0.041 0.032 0.065 0.040s0.050 0.011 0.076 0.007c0.352-0.047 0.606-0.36 0.703-0.954l0.015-0.090-0.083 0.025c-0.725 0.212-0.761-1.282 0.453-1.383 0.471-0.040 0.595 0.439 0.613 0.58 0.015 0.063 0.025 0.127 0.029 0.191l0.007 0.065 0.061-0.014c0.127-0.032 0.275-0.151 0.384-0.295l0.312-1.25c0.054 0 0.457-0.014 0.705-0.023 0.084-0.003 0.151-0.005 0.179-0.006-0.018 0.083-0.083 0.385-0.083 0.385l0.142-0.159c0.177-0.157 0.399-0.254 0.635-0.277 0.395-0.029 0.776 0.093 0.718 0.709-0.028 0.256-0.077 0.508-0.145 0.756-0.044 0.142-0.074 0.288-0.091 0.436-0.002 0.023 0.002 0.046 0.009 0.067s0.019 0.042 0.035 0.059c0.012 0.011 0.025 0.019 0.040 0.024s0.031 0.007 0.047 0.005c0.16-0.018 0.381-0.461 0.5-0.774 0.003-0.006 0.004-0.012 0.004-0.018l0.004-0.004v-0.004c0.109-0.904 0.816-1.321 1.302-1.35 0.79-0.043 0.91 0.483 0.899 0.987-0.004 0.108-0.058 0.475-0.058 0.475l0.061-0.014zM14.837 17.247c0.105-0.23 0.029-0.346-0.16-0.353-0.236-0.011-0.468 0.407-0.232 0.778 0.192-0.144 0.341-0.313 0.392-0.425zM21.432 16.009c0.119-0.022 0.192-0.054 0.228-0.104 0 0 0.040-0.198-0.044-0.295-0.022-0.014-0.047-0.023-0.073-0.024s-0.052 0.004-0.075 0.017c-0.102 0.047-0.221 0.223-0.196 0.331 0.004 0.029 0.036 0.097 0.16 0.076zM27.066 16.347c0.203-0.025 0.305-0.27 0.381-0.497l0.018-0.068c-0.080-0.049-0.145-0.119-0.188-0.202s-0.064-0.176-0.058-0.27c0.040-0.533 0.399-0.547 0.399-0.547l0.004-0.022c0.018-0.18-0.011-0.331-0.083-0.411-0.016-0.018-0.036-0.032-0.057-0.041s-0.046-0.014-0.069-0.013c-0.344 0.014-0.598 1.221-0.609 1.703-0.004 0.205 0.025 0.263 0.094 0.324 0.024 0.019 0.051 0.033 0.080 0.040s0.060 0.008 0.090 0.003zM27.498 15.137c-0.065 0.076-0.069 0.288 0.047 0.36h0c0.035-0.128 0.056-0.26 0.062-0.392-0.019-0.007-0.040-0.008-0.060-0.002s-0.037 0.018-0.049 0.035z"></path>
</symbol>
<symbol id="icon-smartphone" viewBox="0 0 32 32">
<path  d="M23 0h-14c-1.654 0-3 1.346-3 3v26c0 1.654 1.346 3 3 3h14c1.654 0 3-1.346 3-3v-26c0-1.654-1.346-3-3-3zM9 2h14c0.552 0 1 0.448 1 1v21h-16v-21c0-0.552 0.448-1 1-1zM23 30h-14c-0.552 0-1-0.448-1-1v-3h16v3c0 0.552-0.448 1-1 1z"></path>
<path  d="M10.707 27.478c0.391 0.365 0.391 0.956 0 1.321s-1.024 0.365-1.414 0c-0.391-0.365-0.391-0.956 0-1.321s1.024-0.365 1.414 0z"></path>
</symbol>
<symbol id="icon-twitter" viewBox="0 0 32 32">
<path fill="#fff" style="fill: var(--color2, #fff)" d="M32 6.078c-1.19 0.522-2.458 0.868-3.78 1.036 1.36-0.812 2.398-2.088 2.886-3.626-1.268 0.756-2.668 1.29-4.16 1.588-1.204-1.282-2.92-2.076-4.792-2.076-3.632 0-6.556 2.948-6.556 6.562 0 0.52 0.044 1.020 0.152 1.496-5.454-0.266-10.28-2.88-13.522-6.862-0.566 0.982-0.898 2.106-0.898 3.316 0 2.272 1.17 4.286 2.914 5.452-1.054-0.020-2.088-0.326-2.964-0.808 0 0.020 0 0.046 0 0.072 0 3.188 2.274 5.836 5.256 6.446-0.534 0.146-1.116 0.216-1.72 0.216-0.42 0-0.844-0.024-1.242-0.112 0.85 2.598 3.262 4.508 6.13 4.57-2.232 1.746-5.066 2.798-8.134 2.798-0.538 0-1.054-0.024-1.57-0.090 2.906 1.874 6.35 2.944 10.064 2.944 12.072 0 18.672-10 18.672-18.668 0-0.29-0.010-0.57-0.024-0.848 1.302-0.924 2.396-2.078 3.288-3.406z"></path>
</symbol>
<symbol id="icon-user" viewBox="0 0 32 32">
<path fill="#4b4a4a" style="fill: var(--color5, #4b4a4a)" d="M29.333 16c0 7.364-5.97 13.333-13.333 13.333s-13.333-5.97-13.333-13.333c0-7.364 5.97-13.333 13.333-13.333s13.333 5.97 13.333 13.333z"></path>
<path fill="#fff" style="fill: var(--color2, #fff)" d="M20 10.667c0 2.209-1.791 4-4 4s-4-1.791-4-4c0-2.209 1.791-4 4-4s4 1.791 4 4z"></path>
<path fill="#fff" style="fill: var(--color2, #fff)" d="M16 17.333c-2 0-7 1-8 4 1 3 5 4 8 4s7-1 8-4c-1-3-6-4-8-4z"></path>
</symbol>
</defs>
</svg>
