<svg width="112" height="40" viewBox="0 0 112 40" fill="none" xmlns="http://www.w3.org/2000/svg">
<path d="M18.1281 19.7841C18.0991 16.5611 20.7671 14.9931 20.8891 14.9201C19.3781 12.7171 17.0361 12.4161 16.2131 12.3921C14.2461 12.1851 12.3381 13.5691 11.3361 13.5691C10.3141 13.5691 8.77109 12.4121 7.10809 12.4461C4.96809 12.4791 2.96609 13.7181 1.86809 15.6421C-0.397912 19.5651 1.29209 25.3301 3.46309 28.5011C4.54909 30.0541 5.81809 31.7881 7.47909 31.7271C9.10409 31.6601 9.71109 30.6911 11.6721 30.6911C13.6151 30.6911 14.1851 31.7271 15.8791 31.6881C17.6231 31.6601 18.7211 30.1281 19.7691 28.5611C21.0241 26.7811 21.5281 25.0281 21.5481 24.9381C21.5071 24.9241 18.1611 23.6471 18.1281 19.7841Z" fill="white"/>
<path d="M14.928 10.306C15.802 9.21304 16.4 7.72604 16.234 6.21704C14.969 6.27304 13.387 7.09204 12.476 8.16104C11.67 9.10304 10.95 10.647 11.136 12.099C12.557 12.205 14.016 11.382 14.928 10.306Z" fill="white"/>
<path d="M41.6452 31.504H39.3742L38.1302 27.595H33.8062L32.6212 31.504H30.4102L34.6942 18.196H37.3402L41.6452 31.504ZM37.7552 25.955L36.6302 22.48C36.5112 22.125 36.2882 21.289 35.9592 19.973H35.9192C35.7882 20.539 35.5772 21.375 35.2872 22.48L34.1822 25.955H37.7552Z" fill="white"/>
<path d="M52.6619 26.5881C52.6619 28.2201 52.2209 29.5101 51.3389 30.4571C50.5489 31.3001 49.5679 31.7211 48.3969 31.7211C47.1329 31.7211 46.2249 31.2671 45.6719 30.3591H45.6319V35.4141H43.4999V25.0671C43.4999 24.0411 43.4729 22.9881 43.4209 21.9081H45.2959L45.4149 23.4291H45.4549C46.1659 22.2831 47.2449 21.7111 48.6929 21.7111C49.8249 21.7111 50.7699 22.1581 51.5259 23.0531C52.2839 23.9491 52.6619 25.1271 52.6619 26.5881ZM50.4899 26.6661C50.4899 25.7321 50.2799 24.9621 49.8579 24.3561C49.3969 23.7241 48.7779 23.4081 48.0019 23.4081C47.4759 23.4081 46.9979 23.5841 46.5709 23.9311C46.1429 24.2811 45.8629 24.7381 45.7319 25.3041C45.6659 25.5681 45.6329 25.7841 45.6329 25.9541V27.5541C45.6329 28.2521 45.8469 28.8411 46.2749 29.3221C46.7029 29.8031 47.2589 30.0431 47.9429 30.0431C48.7459 30.0431 49.3709 29.7331 49.8179 29.1151C50.2659 28.4961 50.4899 27.6801 50.4899 26.6661Z" fill="white"/>
<path d="M63.699 26.5881C63.699 28.2201 63.258 29.5101 62.375 30.4571C61.586 31.3001 60.605 31.7211 59.434 31.7211C58.17 31.7211 57.262 31.2671 56.71 30.3591H56.67V35.4141H54.538V25.0671C54.538 24.0411 54.511 22.9881 54.459 21.9081H56.334L56.453 23.4291H56.493C57.203 22.2831 58.282 21.7111 59.731 21.7111C60.862 21.7111 61.807 22.1581 62.565 23.0531C63.32 23.9491 63.699 25.1271 63.699 26.5881ZM61.527 26.6661C61.527 25.7321 61.316 24.9621 60.894 24.3561C60.433 23.7241 59.816 23.4081 59.039 23.4081C58.512 23.4081 58.035 23.5841 57.607 23.9311C57.179 24.2811 56.9 24.7381 56.769 25.3041C56.704 25.5681 56.67 25.7841 56.67 25.9541V27.5541C56.67 28.2521 56.884 28.8411 57.31 29.3221C57.738 29.8021 58.294 30.0431 58.98 30.0431C59.783 30.0431 60.408 29.7331 60.855 29.1151C61.303 28.4961 61.527 27.6801 61.527 26.6661Z" fill="white"/>
<path d="M76.0392 27.7721C76.0392 28.9041 75.6462 29.8251 74.8572 30.5361C73.9902 31.3131 72.7832 31.7011 71.2322 31.7011C69.8002 31.7011 68.6522 31.4251 67.7832 30.8721L68.2772 29.0951C69.2132 29.6611 70.2402 29.9451 71.3592 29.9451C72.1622 29.9451 72.7872 29.7631 73.2362 29.4011C73.6832 29.0391 73.9062 28.5531 73.9062 27.9471C73.9062 27.4071 73.7222 26.9521 73.3532 26.5831C72.9862 26.2141 72.3732 25.8711 71.5172 25.5541C69.1872 24.6851 68.0232 23.4121 68.0232 21.7381C68.0232 20.6441 68.4312 19.7471 69.2482 19.0491C70.0622 18.3501 71.1482 18.0011 72.5062 18.0011C73.7172 18.0011 74.7232 18.2121 75.5262 18.6331L74.9932 20.3711C74.2432 19.9631 73.3952 19.7591 72.4462 19.7591C71.6962 19.7591 71.1102 19.9441 70.6902 20.3121C70.3352 20.6411 70.1572 21.0421 70.1572 21.5171C70.1572 22.0431 70.3602 22.4781 70.7682 22.8201C71.1232 23.1361 71.7682 23.4781 72.7042 23.8471C73.8492 24.3081 74.6902 24.8471 75.2312 25.4651C75.7702 26.0811 76.0392 26.8521 76.0392 27.7721Z" fill="white"/>
<path d="M83.0881 23.5081H80.7381V28.1671C80.7381 29.3521 81.1521 29.9441 81.9821 29.9441C82.3631 29.9441 82.6791 29.9111 82.9291 29.8451L82.9881 31.4641C82.5681 31.6211 82.0151 31.7001 81.3301 31.7001C80.4881 31.7001 79.8301 31.4431 79.3551 30.9301C78.8821 30.4161 78.6441 29.5541 78.6441 28.3431V23.5061H77.2441V21.9061H78.6441V20.1491L80.7381 19.5171V21.9061H83.0881V23.5081Z" fill="white"/>
<path d="M93.691 26.6272C93.691 28.1022 93.269 29.3132 92.427 30.2602C91.544 31.2352 90.372 31.7212 88.911 31.7212C87.503 31.7212 86.382 31.2542 85.546 30.3202C84.71 29.3862 84.292 28.2072 84.292 26.7862C84.292 25.2992 84.722 24.0812 85.585 23.1342C86.446 22.1862 87.608 21.7122 89.069 21.7122C90.477 21.7122 91.61 22.1792 92.465 23.1142C93.283 24.0212 93.691 25.1922 93.691 26.6272ZM91.479 26.6962C91.479 25.8112 91.29 25.0522 90.907 24.4192C90.46 23.6532 89.821 23.2712 88.993 23.2712C88.136 23.2712 87.485 23.6542 87.038 24.4192C86.655 25.0532 86.466 25.8242 86.466 26.7362C86.466 27.6212 86.655 28.3802 87.038 29.0122C87.499 29.7782 88.143 30.1602 88.974 30.1602C89.788 30.1602 90.427 29.7702 90.888 28.9922C91.281 28.3472 91.479 27.5802 91.479 26.6962Z" fill="white"/>
<path d="M100.621 23.7831C100.41 23.7441 100.185 23.7241 99.9493 23.7241C99.1993 23.7241 98.6193 24.0071 98.2113 24.5741C97.8563 25.0741 97.6783 25.7061 97.6783 26.4691V31.5041H95.5473L95.5673 24.9301C95.5673 23.8241 95.5403 22.8171 95.4873 21.9091H97.3443L97.4223 23.7451H97.4813C97.7063 23.1141 98.0613 22.6061 98.5473 22.2251C99.0223 21.8821 99.5353 21.7111 100.088 21.7111C100.285 21.7111 100.463 21.7251 100.621 21.7501V23.7831Z" fill="white"/>
<path d="M110.156 26.2521C110.156 26.6341 110.131 26.9561 110.078 27.2191H103.682C103.707 28.1671 104.016 28.8921 104.61 29.3921C105.149 29.8391 105.846 30.0631 106.702 30.0631C107.649 30.0631 108.513 29.9121 109.29 29.6091L109.624 31.0891C108.716 31.4851 107.644 31.6821 106.407 31.6821C104.919 31.6821 103.751 31.2441 102.901 30.3691C102.053 29.4941 101.628 28.3191 101.628 26.8451C101.628 25.3981 102.023 24.1931 102.814 23.2321C103.642 22.2061 104.761 21.6931 106.169 21.6931C107.552 21.6931 108.599 22.2061 109.31 23.2321C109.873 24.0471 110.156 25.0551 110.156 26.2521ZM108.123 25.6991C108.137 25.0671 107.998 24.5211 107.709 24.0601C107.34 23.4671 106.773 23.1711 106.01 23.1711C105.313 23.1711 104.746 23.4601 104.313 24.0401C103.958 24.5011 103.747 25.0541 103.682 25.6981H108.123V25.6991Z" fill="white"/>
<path d="M37.0498 10.0091C37.0498 11.1861 36.6968 12.0721 35.9918 12.6671C35.3388 13.2161 34.4108 13.4911 33.2088 13.4911C32.6128 13.4911 32.1028 13.4651 31.6758 13.4131V6.98207C32.2328 6.89207 32.8328 6.84607 33.4808 6.84607C34.6258 6.84607 35.4888 7.09507 36.0708 7.59307C36.7228 8.15607 37.0498 8.96107 37.0498 10.0091ZM35.9448 10.0381C35.9448 9.27507 35.7428 8.69007 35.3388 8.28207C34.9348 7.87507 34.3448 7.67107 33.5678 7.67107C33.2378 7.67107 32.9568 7.69307 32.7238 7.73907V12.6281C32.8528 12.6481 33.0888 12.6571 33.4318 12.6571C34.2338 12.6571 34.8528 12.4341 35.2888 11.9881C35.7248 11.5421 35.9448 10.8921 35.9448 10.0381Z" fill="white"/>
<path d="M42.909 11.037C42.909 11.762 42.702 12.356 42.288 12.822C41.854 13.301 41.279 13.54 40.561 13.54C39.869 13.54 39.318 13.311 38.907 12.851C38.497 12.392 38.292 11.813 38.292 11.115C38.292 10.385 38.503 9.78605 38.927 9.32105C39.351 8.85605 39.921 8.62305 40.639 8.62305C41.331 8.62305 41.887 8.85205 42.308 9.31105C42.708 9.75705 42.909 10.333 42.909 11.037ZM41.822 11.071C41.822 10.636 41.728 10.263 41.541 9.95205C41.321 9.57605 41.008 9.38805 40.601 9.38805C40.18 9.38805 39.86 9.57605 39.64 9.95205C39.452 10.263 39.359 10.642 39.359 11.09C39.359 11.525 39.453 11.898 39.64 12.209C39.867 12.585 40.183 12.773 40.591 12.773C40.991 12.773 41.305 12.582 41.531 12.199C41.725 11.882 41.822 11.506 41.822 11.071Z" fill="white"/>
<path d="M50.7646 8.71899L49.2896 13.433H48.3296L47.7186 11.386C47.5636 10.875 47.4376 10.367 47.3396 9.86299H47.3206C47.2296 10.381 47.1036 10.888 46.9416 11.386L46.2926 13.433H45.3216L43.9346 8.71899H45.0116L45.5446 10.96C45.6736 11.49 45.7796 11.995 45.8646 12.473H45.8836C45.9616 12.079 46.0906 11.577 46.2726 10.97L46.9416 8.71999H47.7956L48.4366 10.922C48.5916 11.459 48.7176 11.976 48.8146 12.474H48.8436C48.9146 11.989 49.0216 11.472 49.1636 10.922L49.7356 8.71999H50.7646V8.71899Z" fill="white"/>
<path d="M56.1974 13.433H55.1494V10.733C55.1494 9.901 54.8334 9.48499 54.1994 9.48499C53.8884 9.48499 53.6374 9.599 53.4424 9.828C53.2494 10.057 53.1514 10.327 53.1514 10.636V13.432H52.1034V10.066C52.1034 9.652 52.0904 9.203 52.0654 8.717H52.9864L53.0354 9.454H53.0644C53.1864 9.225 53.3684 9.036 53.6074 8.885C53.8914 8.709 54.2094 8.62 54.5574 8.62C54.9974 8.62 55.3634 8.762 55.6544 9.047C56.0164 9.396 56.1974 9.917 56.1974 10.609V13.433Z" fill="white"/>
<path d="M59.088 13.433H58.041V6.55603H59.088V13.433Z" fill="white"/>
<path d="M65.2576 11.037C65.2576 11.762 65.0506 12.356 64.6366 12.822C64.2026 13.301 63.6266 13.54 62.9096 13.54C62.2166 13.54 61.6656 13.311 61.2556 12.851C60.8456 12.392 60.6406 11.813 60.6406 11.115C60.6406 10.385 60.8516 9.78605 61.2756 9.32105C61.6996 8.85605 62.2696 8.62305 62.9866 8.62305C63.6796 8.62305 64.2346 8.85205 64.6566 9.31105C65.0566 9.75705 65.2576 10.333 65.2576 11.037ZM64.1696 11.071C64.1696 10.636 64.0756 10.263 63.8886 9.95205C63.6696 9.57605 63.3556 9.38805 62.9496 9.38805C62.5276 9.38805 62.2076 9.57605 61.9886 9.95205C61.8006 10.263 61.7076 10.642 61.7076 11.09C61.7076 11.525 61.8016 11.898 61.9886 12.209C62.2156 12.585 62.5316 12.773 62.9396 12.773C63.3396 12.773 63.6526 12.582 63.8786 12.199C64.0736 11.882 64.1696 11.506 64.1696 11.071Z" fill="white"/>
<path d="M70.33 13.433H69.389L69.311 12.89H69.282C68.96 13.323 68.501 13.54 67.905 13.54C67.46 13.54 67.1 13.397 66.829 13.113C66.583 12.855 66.46 12.534 66.46 12.153C66.46 11.577 66.7 11.138 67.183 10.834C67.665 10.53 68.343 10.381 69.216 10.388V10.3C69.216 9.67905 68.89 9.36905 68.237 9.36905C67.772 9.36905 67.362 9.48605 67.008 9.71805L66.795 9.03005C67.233 8.75905 67.774 8.62305 68.412 8.62305C69.644 8.62305 70.262 9.27305 70.262 10.573V12.309C70.262 12.78 70.285 13.155 70.33 13.433ZM69.242 11.813V11.086C68.086 11.066 67.508 11.383 67.508 12.036C67.508 12.282 67.574 12.466 67.709 12.589C67.844 12.712 68.016 12.773 68.221 12.773C68.451 12.773 68.666 12.7 68.862 12.555C69.059 12.409 69.18 12.224 69.225 11.997C69.236 11.946 69.242 11.884 69.242 11.813Z" fill="white"/>
<path d="M76.2852 13.433H75.3552L75.3062 12.676H75.2772C74.9802 13.252 74.4742 13.54 73.7632 13.54C73.1952 13.54 72.7222 13.317 72.3472 12.871C71.9722 12.425 71.7852 11.846 71.7852 11.135C71.7852 10.372 71.9882 9.75403 72.3962 9.28203C72.7912 8.84203 73.2752 8.62203 73.8512 8.62203C74.4842 8.62203 74.9272 8.83503 75.1792 9.26203H75.1992V6.55603H76.2482V12.163C76.2482 12.622 76.2602 13.045 76.2852 13.433ZM75.1992 11.445V10.659C75.1992 10.523 75.1892 10.413 75.1702 10.329C75.1112 10.077 74.9842 9.86503 74.7912 9.69403C74.5962 9.52303 74.3611 9.43703 74.0901 9.43703C73.6991 9.43703 73.3932 9.59203 73.1682 9.90303C72.9452 10.214 72.8322 10.611 72.8322 11.096C72.8322 11.562 72.9392 11.94 73.1542 12.231C73.3812 12.541 73.6872 12.696 74.0702 12.696C74.4142 12.696 74.6892 12.567 74.8982 12.308C75.1002 12.069 75.1992 11.781 75.1992 11.445Z" fill="white"/>
<path d="M85.2479 11.037C85.2479 11.762 85.0409 12.356 84.6269 12.822C84.1929 13.301 83.6189 13.54 82.8999 13.54C82.2089 13.54 81.6579 13.311 81.2459 12.851C80.8359 12.392 80.6309 11.813 80.6309 11.115C80.6309 10.385 80.8419 9.78605 81.2659 9.32105C81.6899 8.85605 82.2599 8.62305 82.9789 8.62305C83.6699 8.62305 84.2269 8.85205 84.6469 9.31105C85.0469 9.75705 85.2479 10.333 85.2479 11.037ZM84.1619 11.071C84.1619 10.636 84.0679 10.263 83.8809 9.95205C83.6599 9.57605 83.3479 9.38805 82.9399 9.38805C82.5199 9.38805 82.1999 9.57605 81.9789 9.95205C81.7909 10.263 81.6979 10.642 81.6979 11.09C81.6979 11.525 81.7919 11.898 81.9789 12.209C82.2059 12.585 82.5219 12.773 82.9299 12.773C83.3299 12.773 83.6449 12.582 83.8709 12.199C84.0639 11.882 84.1619 11.506 84.1619 11.071Z" fill="white"/>
<path d="M90.883 13.433H89.836V10.733C89.836 9.901 89.52 9.48499 88.885 9.48499C88.574 9.48499 88.323 9.599 88.129 9.828C87.935 10.057 87.838 10.327 87.838 10.636V13.432H86.789V10.066C86.789 9.652 86.777 9.203 86.752 8.717H87.672L87.721 9.454H87.75C87.873 9.225 88.055 9.036 88.293 8.885C88.578 8.709 88.895 8.62 89.244 8.62C89.683 8.62 90.049 8.762 90.34 9.047C90.703 9.396 90.883 9.917 90.883 10.609V13.433Z" fill="white"/>
<path d="M97.9354 9.50404H96.7814V11.794C96.7814 12.376 96.9864 12.667 97.3924 12.667C97.5804 12.667 97.7365 12.651 97.8595 12.618L97.8865 13.413C97.6795 13.491 97.4074 13.53 97.0724 13.53C96.6584 13.53 96.3364 13.404 96.1034 13.152C95.8694 12.9 95.7534 12.476 95.7534 11.881V9.50404H95.0645V8.71904H95.7534V7.85504L96.7804 7.54504V8.71804H97.9344V9.50404H97.9354Z" fill="white"/>
<path d="M103.484 13.433H102.435V10.753C102.435 9.90803 102.119 9.48503 101.486 9.48503C101 9.48503 100.668 9.73003 100.486 10.22C100.455 10.323 100.437 10.449 100.437 10.597V13.432H99.3896V6.55603H100.437V9.39703H100.457C100.787 8.88003 101.26 8.62203 101.873 8.62203C102.307 8.62203 102.666 8.76403 102.951 9.04903C103.306 9.40403 103.484 9.93203 103.484 10.63V13.433Z" fill="white"/>
<path d="M109.207 10.853C109.207 11.041 109.193 11.199 109.168 11.328H106.025C106.039 11.794 106.189 12.149 106.48 12.395C106.746 12.615 107.089 12.725 107.509 12.725C107.974 12.725 108.398 12.651 108.78 12.502L108.944 13.23C108.497 13.424 107.971 13.521 107.362 13.521C106.632 13.521 106.057 13.306 105.641 12.876C105.223 12.446 105.016 11.869 105.016 11.145C105.016 10.434 105.209 9.84201 105.598 9.37001C106.004 8.86601 106.553 8.61401 107.246 8.61401C107.924 8.61401 108.439 8.86601 108.787 9.37001C109.068 9.77001 109.207 10.265 109.207 10.853ZM108.207 10.582C108.215 10.271 108.146 10.003 108.004 9.77701C107.822 9.48601 107.545 9.34001 107.17 9.34001C106.828 9.34001 106.549 9.48201 106.336 9.76701C106.162 9.99401 106.059 10.265 106.025 10.582H108.207Z" fill="white"/>
</svg>
