<svg width="50" height="30" viewBox="0 0 50 30" fill="none" xmlns="http://www.w3.org/2000/svg">
<path d="M10.4546 13.1998H36.0344L28.3355 5.50081C28.1965 5.36663 28.0857 5.20613 28.0095 5.02866C27.9333 4.8512 27.8931 4.66033 27.8915 4.4672C27.8898 4.27406 27.9266 4.08253 27.9997 3.90377C28.0729 3.72501 28.1809 3.5626 28.3174 3.42603C28.454 3.28946 28.6164 3.18145 28.7952 3.10832C28.9739 3.03518 29.1655 2.99838 29.3586 3.00005C29.5517 3.00173 29.7426 3.04186 29.9201 3.11809C30.0975 3.19432 30.258 3.30513 30.3922 3.44406L40.5741 13.626C40.8468 13.8987 41 14.2687 41 14.6544C41 15.04 40.8468 15.41 40.5741 15.6827L30.3922 25.8646C30.1179 26.1296 29.7505 26.2762 29.3691 26.2729C28.9877 26.2696 28.6229 26.1166 28.3532 25.8469C28.0835 25.5772 27.9305 25.2124 27.9272 24.831C27.9239 24.4497 28.0705 24.0822 28.3355 23.8079L36.0344 16.1089H10.4546C10.0688 16.1089 9.69881 15.9557 9.42603 15.6829C9.15325 15.4101 9 15.0401 9 14.6544C9 14.2686 9.15325 13.8986 9.42603 13.6258C9.69881 13.353 10.0688 13.1998 10.4546 13.1998Z" fill="black"/>
</svg>
