<svg width="50" height="50" viewBox="0 0 50 50" fill="none" xmlns="http://www.w3.org/2000/svg">
<path fill-rule="evenodd" clip-rule="evenodd" d="M22.5567 43.7402C22.5567 45.6776 21.0836 47.2754 19.239 47.2754C17.3944 47.2754 15.9214 45.6776 15.9214 43.7402C15.9214 41.802 17.3944 40.205 19.239 40.205C21.0836 40.205 22.5567 41.802 22.5567 43.7402ZM38.1488 43.7402C38.1488 45.6776 36.6758 47.2754 34.8312 47.2754C32.9866 47.2754 31.5135 45.6776 31.5135 43.7402C31.5135 41.802 32.9866 40.205 34.8312 40.205C36.6758 40.205 38.1488 41.802 38.1488 43.7402ZM21.0182 43.7402C21.0182 42.7205 20.2098 41.9203 19.239 41.9203C18.2683 41.9203 17.4598 42.7205 17.4598 43.7402C17.4598 44.76 18.2683 45.5601 19.239 45.5601C20.2098 45.5601 21.0182 44.76 21.0182 43.7402ZM36.6104 43.7402C36.6104 42.7205 35.8019 41.9203 34.8312 41.9203C33.8604 41.9203 33.052 42.7205 33.052 43.7402C33.052 44.76 33.8604 45.5601 34.8312 45.5601C35.8019 45.5601 36.6104 44.76 36.6104 43.7402ZM12.2976 14.3069H47.6165C48.5088 14.3069 49.1457 15.1946 48.9711 16.114L45.8427 32.5481C45.7119 33.2324 45.1534 33.7462 44.4881 33.7462H16.0906L16.9137 38.0035L37.5396 37.9537C37.9642 37.952 38.3096 38.3354 38.3103 38.8088C38.3111 39.2822 37.9673 39.6673 37.5434 39.6682L16.4206 39.7196C15.9814 39.7291 15.6068 39.3834 15.5183 38.9255L13.7014 29.53C13.6122 29.0678 13.876 28.6106 14.2914 28.5111C14.706 28.4117 15.116 28.7058 15.2052 29.169L15.7591 32.0309H44.3681L47.4157 16.0222H12.6237L13.1491 18.7821C13.2376 19.2452 12.9722 19.7006 12.5568 19.7993C12.1414 19.8979 11.733 19.6011 11.6445 19.138L8.83684 4.3935H2.1423C1.71769 4.3935 1.37307 4.00928 1.37307 3.53586C1.37307 3.06244 1.71769 2.67822 2.1423 2.67822H10.083L12.2976 14.3069ZM4.91534 26.1415H6.61456C7.03917 26.1415 7.38378 26.5257 7.38378 26.9991C7.38378 27.4726 7.03917 27.8568 6.61456 27.8568H4.91534C4.49073 27.8568 4.14612 27.4726 4.14612 26.9991C4.14612 26.5257 4.49073 26.1415 4.91534 26.1415ZM18.7598 27.8568H9.90452C9.47991 27.8568 9.1353 27.4726 9.1353 26.9991C9.1353 26.5257 9.47991 26.1415 9.90452 26.1415H18.7598C19.1844 26.1415 19.529 26.5257 19.529 26.9991C19.529 27.4726 19.1844 27.8568 18.7598 27.8568ZM17.3314 22.5017H1.76922C1.34461 22.5017 1 22.1175 1 21.644C1 21.1706 1.34461 20.7864 1.76922 20.7864H17.3314C17.756 20.7864 18.1006 21.1706 18.1006 21.644C18.1006 22.1175 17.756 22.5017 17.3314 22.5017Z" fill="#96A638"/>
</svg>
