<svg width="51" height="50" viewBox="0 0 51 50" fill="none" xmlns="http://www.w3.org/2000/svg">
<path d="M38.3088 18.1963H37.4404L36.2022 14.6023C36.1084 14.33 35.8521 14.1472 35.5641 14.1472H27.6912V8.66866L35.8292 5.86508C36.1816 5.74369 36.3688 5.35957 36.2474 5.00721L35.3682 2.45503C35.31 2.28578 35.1867 2.14667 35.0259 2.06821C34.8649 1.98984 34.6796 1.9785 34.5103 2.0368L25.9174 4.99713C24.5564 5.46593 23.6421 6.74796 23.6421 8.18736V14.1472H15.7692C15.4813 14.1472 15.2249 14.33 15.1311 14.6023L13.8929 18.1963H13.0245C11.9083 18.1963 11 19.1046 11 20.2209C11 21.3372 11.9083 22.2454 13.0245 22.2454H13.7673L16.4478 47.466C16.4843 47.8091 16.7738 48.0695 17.1189 48.0695H34.2145C34.5595 48.0695 34.8491 47.8091 34.8855 47.466L37.566 22.2454H38.3088C39.4251 22.2454 40.3333 21.3372 40.3333 20.2209C40.3333 19.1045 39.4251 18.1963 38.3088 18.1963ZM24.9918 8.18736C24.9918 7.32373 25.5404 6.55459 26.357 6.27322L34.3119 3.53263L34.7515 4.80872L26.7965 7.54931C26.5244 7.64307 26.3415 7.89933 26.3415 8.18736V14.1472H24.9918V8.18736ZM33.6075 46.7198H17.7258L15.1246 22.2454H36.2087L33.6075 46.7198ZM38.3088 20.8957H13.0245C12.6524 20.8957 12.3497 20.593 12.3497 20.2209C12.3497 19.8487 12.6524 19.546 13.0245 19.546H14.3742C14.6622 19.546 14.9185 19.3633 15.0123 19.091L16.2504 15.4969H35.0828L36.0128 18.1963H17.2293C16.8565 18.1963 16.5544 18.4985 16.5544 18.8712C16.5544 19.2439 16.8565 19.546 17.2293 19.546H36.9434C36.9537 19.5463 36.9643 19.5463 36.9748 19.546H38.3088C38.681 19.546 38.9836 19.8487 38.9836 20.2209C38.9836 20.593 38.681 20.8957 38.3088 20.8957Z" fill="#F66141"/>
</svg>
