<svg width="100" height="100" viewBox="0 0 100 100" fill="none" xmlns="http://www.w3.org/2000/svg">
<path fill-rule="evenodd" clip-rule="evenodd" d="M52.7188 67.019C53.8268 67.019 54.7158 67.908 54.7158 69.016C54.7158 70.124 53.8268 71.0129 52.7188 71.0129C51.6108 71.0129 50.709 70.124 50.709 69.016C50.709 67.908 51.6108 67.019 52.7188 67.019ZM79.7096 74.3755C79.8127 71.0129 85.2108 70.7037 88.3415 72.5976L87.182 74.8779C86.0998 74.1307 85.1722 73.7828 83.9869 73.873C82.8532 73.9632 82.7372 75.1871 84.5667 75.1485C87.4139 75.0712 88.9599 76.5786 88.8053 78.4982C88.5605 81.6031 83.6648 82.8785 79.3746 80.1601L80.9593 77.8411C82.1575 78.5368 83.3427 79.1424 84.5409 79.0006C85.7906 78.8589 86.409 77.854 84.1931 77.6221C81.1654 77.3 79.6581 76.3338 79.7096 74.3755ZM56.1716 81.6417V72.0693H59.663V73.4092C61.0158 71.1675 66.2722 71.1289 66.2722 74.6332L66.2851 81.6289H62.8066L62.7679 76.8233C62.755 74.8908 62.0464 74.7105 61.1059 74.8264C60.3201 74.9166 59.6243 75.2 59.6243 76.8233V81.6289H56.1716V81.6417ZM54.5225 71.9019V81.6417H50.9023V71.9019H54.5225ZM33.252 81.6417V72.0693H36.7434V73.4092C37.7869 71.67 41.8066 70.8197 42.9661 73.5123C44.6151 71.0644 49.4078 71.1675 49.4078 74.5043V81.6289H45.7102V76.4111C45.7102 75.0068 45.4655 74.8779 44.2802 74.9295C43.3139 74.9681 43.0949 75.7798 43.0949 76.6816L43.0691 81.6546H39.6035L39.5648 76.8491C39.5391 74.9166 39.1268 74.762 38.1734 74.8522C37.2458 74.9424 36.8335 75.0712 36.8335 76.8491V81.6546H33.252V81.6417ZM26.9648 71.3608C29.8121 71.3608 32.1053 73.654 32.1053 76.5013C32.1053 79.3485 29.8121 81.6417 26.9648 81.6417C24.1305 81.6417 21.8243 79.3485 21.8243 76.5013C21.8372 73.6669 24.1305 71.3608 26.9648 71.3608ZM26.9648 74.6718C27.9826 74.6718 28.7943 75.4963 28.7943 76.5013C28.7943 77.519 27.9697 78.3307 26.9648 78.3307C25.947 78.3307 25.1354 77.5062 25.1354 76.5013C25.1483 75.4963 25.9599 74.6718 26.9648 74.6718ZM7.7041 81.6417V68.0884H11.7366C13.0121 68.0884 14.1072 68.1657 15.009 68.2945C15.9108 68.4362 16.6581 68.6552 17.225 68.9387C18.4231 69.5442 19.3378 70.3687 19.982 71.3865C20.6262 72.4043 20.9483 73.5638 20.9483 74.8651C20.9483 76.1663 20.6262 77.3129 19.9949 78.3307C19.3507 79.3485 18.436 80.1601 17.225 80.7786C16.6323 81.0749 15.898 81.2939 14.9961 81.4227C14.0943 81.5644 12.8832 81.6289 11.3759 81.6289H7.7041V81.6417ZM11.7237 78.073V71.6828H13.3728C13.901 71.6828 14.3391 71.7215 14.7127 71.7859C15.0863 71.8503 15.3826 71.9534 15.6145 72.0951C16.1041 72.3914 16.4777 72.7779 16.7483 73.2546C17.0059 73.7313 17.1348 74.2853 17.1348 74.8908C17.1348 75.4963 17.0059 76.0503 16.7483 76.527C16.4906 77.0037 16.117 77.3902 15.6145 77.6865C15.3697 77.8282 15.0734 77.9313 14.6998 77.9957C14.3262 78.0601 13.8366 78.0859 13.2182 78.0859H11.7237V78.073ZM72.3661 71.3608C75.2004 71.3608 77.5066 73.654 77.5066 76.5013C77.5066 79.3485 75.2004 81.6417 72.3661 81.6417C69.5317 81.6417 67.2256 79.3485 67.2256 76.5013C67.2256 73.6669 69.5317 71.3608 72.3661 71.3608ZM72.3661 74.6718C73.3839 74.6718 74.1955 75.4963 74.1955 76.5013C74.1955 77.519 73.3839 78.3307 72.3661 78.3307C71.3483 78.3307 70.5366 77.5062 70.5366 76.5013C70.5366 75.4963 71.3483 74.6718 72.3661 74.6718ZM78.5759 67.0448C79.3746 67.0448 80.0575 67.5215 80.3538 68.2043C80.5857 68.7325 80.6115 69.3896 80.4569 69.9565C80.2507 70.8197 79.5164 71.6571 77.9961 72.443L77.571 71.8761C77.8673 71.6313 78.1765 71.3608 78.2924 71.1804C78.5243 70.8454 78.228 70.9227 77.9832 70.8454C77.1973 70.6006 76.6176 69.8663 76.6176 68.9902C76.6305 67.9209 77.5065 67.0448 78.5759 67.0448Z" fill="#F66141"/>
<path d="M90.0288 71.8118C90.1705 71.8118 90.2994 71.8504 90.4411 71.9148C90.5699 71.9921 90.6859 72.0952 90.7503 72.224C90.8276 72.3529 90.8663 72.4946 90.8663 72.6492C90.8663 72.7909 90.8276 72.9326 90.7632 73.0743C90.6859 73.2032 90.5828 73.3191 90.454 73.3835C90.3123 73.4608 90.1834 73.4866 90.0288 73.4866C89.8871 73.4866 89.7325 73.448 89.6037 73.3835C89.4748 73.3062 89.3589 73.2032 89.2945 73.0743C89.2172 72.9326 89.1914 72.8038 89.1914 72.6492C89.1914 72.5075 89.2301 72.3529 89.2945 72.224C89.3718 72.0823 89.4748 71.9793 89.6166 71.9148C89.7454 71.8504 89.8871 71.8118 90.0288 71.8118ZM90.0288 71.9535C89.9 71.9535 89.7969 71.9793 89.681 72.0437C89.5779 72.1081 89.4877 72.1854 89.4233 72.3013C89.3589 72.4044 89.3331 72.5332 89.3331 72.6492C89.3331 72.778 89.3589 72.894 89.4233 72.997C89.4877 73.113 89.565 73.2032 89.681 73.2547C89.784 73.3191 89.9129 73.3449 90.0288 73.3449C90.1577 73.3449 90.2736 73.3191 90.3767 73.2547C90.4798 73.1903 90.5699 73.113 90.6344 72.997C90.6988 72.894 90.7245 72.7651 90.7245 72.6492C90.7245 72.5204 90.6859 72.4044 90.6344 72.3013C90.5699 72.1854 90.4797 72.0952 90.3638 72.0437C90.2607 71.9793 90.1448 71.9535 90.0288 71.9535ZM89.6552 73.1259V72.2112H89.9644C90.0675 72.2112 90.1448 72.224 90.1963 72.2369C90.235 72.2498 90.2736 72.2756 90.2994 72.3271C90.3251 72.3658 90.338 72.4173 90.338 72.4559C90.338 72.5204 90.3123 72.5848 90.2607 72.6363C90.2221 72.6878 90.1577 72.7136 90.0675 72.7136C90.1061 72.7265 90.1319 72.7394 90.1448 72.7651C90.1834 72.8038 90.2221 72.8553 90.2865 72.9455L90.3896 73.1259H90.2092L90.1319 72.9842C90.0675 72.8682 90.0159 72.7909 89.9773 72.778C89.9515 72.7523 89.9129 72.7394 89.8613 72.7394H89.7712V73.1259H89.6552ZM89.7969 72.6105H89.9773C90.0546 72.6105 90.119 72.5977 90.1448 72.5719C90.1834 72.5461 90.1963 72.5075 90.1963 72.4688C90.1963 72.4431 90.1834 72.4173 90.1705 72.3915C90.1577 72.3658 90.1319 72.3529 90.1061 72.34C90.0804 72.3271 90.0288 72.3271 89.9644 72.3271H89.7969V72.6105Z" fill="#F66141"/>
<path fill-rule="evenodd" clip-rule="evenodd" d="M42.2441 30.2111L54.8699 17.6239C55.3981 17.0957 56.2613 17.0957 56.7895 17.6239L68.7067 29.5798C69.2349 30.108 69.2349 30.9712 68.7067 31.4994L56.0681 44.0865L42.2441 30.2111ZM53.5687 27.9822C54.8957 26.6552 57.0343 26.6681 58.3613 27.9951C59.6883 29.3221 59.6754 31.4736 58.3484 32.7878C57.0214 34.1147 54.8699 34.1019 53.5558 32.7749C52.2288 31.4479 52.2417 29.3092 53.5687 27.9822Z" fill="#F66141"/>
<path fill-rule="evenodd" clip-rule="evenodd" d="M44.0222 42.4116C45.3492 41.0975 47.4878 41.0975 48.8148 42.4245C50.1418 43.7515 50.1289 45.8901 48.8019 47.2171C47.4749 48.5313 45.3234 48.5313 44.0093 47.2043C42.6952 45.8901 42.6952 43.7386 44.0222 42.4116ZM34.1019 42.4503C35.4289 41.1233 37.5676 41.1362 38.8946 42.4632C40.2087 43.7901 40.2087 45.9288 38.8817 47.2558C37.5547 48.5699 35.4032 48.5699 34.0891 47.2429C32.7749 45.9159 32.7749 43.7644 34.1019 42.4503ZM28.7038 43.7129L41.3296 31.1257L55.1664 45.0141L42.5406 57.6012C42.0124 58.1294 41.1492 58.1294 40.621 57.5883L28.7038 45.6325C28.1756 45.1043 28.1756 44.2411 28.7038 43.7129Z" fill="#F66141"/>
<path d="M46.9342 58.0521V56.3515H46.29V56.0552H47.9133V56.3515H47.2692V58.0521H46.9342ZM48.1324 58.0521V56.0552H48.6219L49.1244 57.6527L49.614 56.0552H50.0907V58.0521H49.7814V56.3773L49.2661 58.0521H48.9698L48.4416 56.3515V58.0521H48.1324Z" fill="#F66141"/>
</svg>
