<svg width="100" height="100" viewBox="0 0 100 100" fill="none" xmlns="http://www.w3.org/2000/svg">
<path d="M62.3088 43.1963H61.4404L60.2022 39.6023C60.1084 39.33 59.8521 39.1472 59.5641 39.1472H51.6912V33.6687L59.8292 30.8651C60.1816 30.7437 60.3688 30.3596 60.2474 30.0072L59.3682 27.455C59.31 27.2858 59.1867 27.1467 59.0259 27.0682C58.8649 26.9898 58.6796 26.9785 58.5103 27.0368L49.9174 29.9971C48.5564 30.4659 47.6421 31.748 47.6421 33.1874V39.1472H39.7692C39.4813 39.1472 39.2249 39.33 39.1311 39.6023L37.8929 43.1963H37.0245C35.9083 43.1963 35 44.1046 35 45.2209C35 46.3372 35.9083 47.2454 37.0245 47.2454H37.7673L40.4478 72.466C40.4843 72.8091 40.7738 73.0695 41.1189 73.0695H58.2145C58.5595 73.0695 58.8491 72.8091 58.8855 72.466L61.566 47.2454H62.3088C63.4251 47.2454 64.3333 46.3372 64.3333 45.2209C64.3333 44.1045 63.4251 43.1963 62.3088 43.1963ZM48.9918 33.1874C48.9918 32.3237 49.5404 31.5546 50.357 31.2732L58.3119 28.5326L58.7515 29.8087L50.7965 32.5493C50.5244 32.6431 50.3415 32.8993 50.3415 33.1874V39.1472H48.9918V33.1874ZM57.6075 71.7198H41.7258L39.1246 47.2454H60.2087L57.6075 71.7198ZM62.3088 45.8957H37.0245C36.6524 45.8957 36.3497 45.593 36.3497 45.2209C36.3497 44.8487 36.6524 44.546 37.0245 44.546H38.3742C38.6622 44.546 38.9185 44.3633 39.0123 44.091L40.2504 40.4969H59.0828L60.0128 43.1963H41.2293C40.8565 43.1963 40.5544 43.4985 40.5544 43.8712C40.5544 44.2439 40.8565 44.546 41.2293 44.546H60.9434C60.9537 44.5463 60.9643 44.5463 60.9748 44.546H62.3088C62.681 44.546 62.9836 44.8487 62.9836 45.2209C62.9836 45.593 62.681 45.8957 62.3088 45.8957Z" fill="#F66141"/>
</svg>
