<svg width="50" height="50" viewBox="0 0 50 50" fill="none" xmlns="http://www.w3.org/2000/svg">
<path d="M46.0261 28.1612C45.8934 27.9843 45.6854 27.8802 45.4643 27.8802H43.7835L46.1104 17.4385C46.1955 17.0547 46.1207 16.6529 45.9032 16.3255C45.6978 16.0128 45.3724 15.7989 45.0039 15.7342L42.293 15.2568C42.1729 15.2378 42.0507 15.2356 41.93 15.2501L41.9295 9.03501C41.9446 8.62409 41.7932 8.22436 41.5097 7.92646C41.2566 7.66083 40.9059 7.51027 40.5391 7.50978H37.7932C37.0201 7.53036 36.4036 8.16221 36.402 8.93557L36.3503 10.6562L35.0788 10.3586C34.7043 10.2709 34.3101 10.3409 33.9888 10.5523C33.6674 10.7636 33.4469 11.0977 33.379 11.4763L33.208 12.3951C33.1225 12.3632 33.0341 12.3394 32.9441 12.3242L29.9328 11.8224L29.9615 11.0764C29.9766 10.6947 29.8355 10.3231 29.5706 10.0477C29.3058 9.77223 28.9401 9.61657 28.558 9.61673H27.876L28.7556 6.69518C28.871 6.33143 28.8349 5.93648 28.6554 5.59973C28.4843 5.27063 28.1882 5.02409 27.8336 4.91552L25.1528 4.06627C24.7944 3.95176 24.4049 3.98667 24.0726 4.16307C23.7402 4.33947 23.4931 4.64256 23.3872 5.0036L21.6459 10.7968L21.5789 8.86593C21.5548 8.10739 20.931 7.50608 20.172 7.50978H17.3486C16.9671 7.5092 16.6017 7.66371 16.3364 7.93782C16.0711 8.21193 15.9286 8.58211 15.9416 8.96339L16.0887 13.2108L12.9096 13.7329C12.1856 13.8512 11.6735 14.5053 11.7324 15.2366H9.61846C8.84297 15.2375 8.21449 15.866 8.21358 16.6415V20.9685L7.4734 20.4259C7.182 20.2068 6.8143 20.1149 6.45408 20.1711C6.08358 20.2276 5.75168 20.4318 5.5342 20.737L4.27551 22.5056C3.82302 23.1323 3.93934 24.0034 4.54032 24.4895L8.21366 27.3105V27.8802H4.72348C4.50246 27.8802 4.29428 27.9843 4.16159 28.1612C4.02898 28.338 3.98724 28.567 4.04915 28.7792L7.71154 41.3347C8.55239 44.1773 11.1583 46.1317 14.1225 46.1434H36.0659C39.0302 46.1318 41.636 44.1773 42.4769 41.3347L46.1386 28.7792C46.2005 28.567 46.1588 28.338 46.0261 28.1612ZM41.9125 17.2032H41.9302V17.1304L42.0495 16.6404L44.7392 17.1336L42.3449 27.8803H39.3121L41.9125 17.2032ZM37.8062 8.98117C37.8076 8.94314 37.8199 8.91911 37.8068 8.91466L40.5 8.90339C40.5061 8.90849 40.5274 8.93804 40.5253 9.01311V17.1318L38.8336 23.9747L37.3945 22.2261L38.9984 12.6426C39.1252 11.9073 38.6588 11.2 37.933 11.0268L37.7464 10.9831L37.8062 8.98117ZM34.7597 11.7268L36.8656 12.2182L37.6126 12.4093L36.2107 20.7877L34.6782 18.9256C34.4213 18.6158 34.0475 18.4266 33.6458 18.4029C33.6029 18.4002 33.5609 18.4071 33.5183 18.4081L34.7597 11.7268ZM33.5216 19.8167L33.593 19.8177L38.4133 25.6749L37.8682 27.8802H36.8953L32.704 22.8768L31.6312 21.6215L33.5216 19.8167ZM35.0208 27.8307L35.0126 27.8802H32.1987L32.5994 24.941L35.0208 27.8307ZM29.8783 13.2375L32.7129 13.7099L32.0321 18.7149L32.0235 18.7607L32.0257 18.7611L32.0168 18.8267L32.0119 18.8467H32.0111L32.0091 18.8563L32.0029 18.8838L31.9 19.4228L30.6612 20.6052C30.1236 21.1067 30.0767 21.9428 30.5548 22.5012L31.1913 23.2608L30.3198 27.8802H29.3152L29.8783 13.2375ZM28.558 11.0216L27.9098 27.8799H25.0993L25.7476 11.0216H28.558ZM24.7262 5.40456L27.4124 6.28155L26.408 9.61673H25.7482C24.9927 9.61484 24.3715 10.2123 24.3441 10.9674L24.315 11.7243H22.8336L24.7262 5.40456ZM24.261 13.1292L23.6936 27.8802H22.238L21.7267 13.1292H24.261ZM20.1721 8.91466L20.8327 27.8802H18.0024L17.3487 8.91466H20.1721ZM16.138 14.6264L16.5971 27.8801H14.4265L13.1375 15.1191L16.138 14.6264ZM9.61846 16.6414H11.8728L12.6416 24.2144L9.61846 21.9983V16.6414ZM5.41427 23.3281L6.63937 21.556L12.8326 26.096L13.0137 27.8803H11.2645L5.41427 23.3281ZM41.1283 40.9417C40.4644 43.1863 38.4066 44.7297 36.0659 44.7385H14.1225C11.7818 44.7296 9.72407 43.1863 9.06012 40.9417L5.65982 29.2851H44.5279L41.1283 40.9417Z" fill="#F66141"/>
<path d="M11.7858 39.65C12.1849 40.9972 13.4202 41.9234 14.8254 41.9287H18.7504C19.1384 41.9287 19.4528 41.6142 19.4528 41.2263C19.4528 40.8384 19.1384 40.5239 18.7504 40.5239H14.8254C14.0485 40.5225 13.3639 40.0137 13.1385 39.2703L11.724 34.0192C11.623 33.6445 11.2375 33.4227 10.8628 33.5236C10.4881 33.6246 10.2662 34.0102 10.3671 34.3849L11.7858 39.65Z" fill="#F66141"/>
<path d="M21.5608 41.9287H22.2632C22.6512 41.9287 22.9656 41.6142 22.9656 41.2263C22.9656 40.8384 22.6512 40.5239 22.2632 40.5239H21.5608C21.1728 40.5239 20.8584 40.8385 20.8584 41.2263C20.8584 41.6142 21.1728 41.9287 21.5608 41.9287Z" fill="#F66141"/>
</svg>
