<svg width="51" height="50" viewBox="0 0 51 50" fill="none" xmlns="http://www.w3.org/2000/svg">
<path d="M36.5764 15.2138C36.2268 14.8643 35.66 14.8643 35.3104 15.2138L33.52 17.0041C33.1704 17.3537 33.1704 17.9205 33.52 18.2702C33.8697 18.6198 34.4365 18.6198 34.786 18.2702L36.5764 16.4798C36.926 16.1303 36.926 15.5634 36.5764 15.2138Z" fill="#F66141"/>
<path d="M15.092 15.2138C14.7425 14.8643 14.1756 14.8643 13.826 15.2138L12.0356 17.0041C11.686 17.3537 11.686 17.9205 12.0356 18.2702C12.3854 18.6198 12.9521 18.6198 13.3017 18.2702L15.092 16.4798C15.4416 16.1303 15.4416 15.5634 15.092 15.2138Z" fill="#F66141"/>
<path d="M32.1018 11.6332C31.7522 11.2837 31.1854 11.2837 30.8357 11.6332L29.0454 13.4236C28.6958 13.7731 28.6958 14.34 29.0454 14.6896C29.3951 15.0393 29.9619 15.0392 30.3114 14.6896L32.1018 12.8993C32.4514 12.5497 32.4514 11.9829 32.1018 11.6332Z" fill="#F66141"/>
<path d="M21.3596 11.6332C21.01 11.2837 20.4432 11.2837 20.0936 11.6332L18.3032 13.4236C17.9536 13.7731 17.9536 14.34 18.3032 14.6896C18.6529 15.0393 19.2197 15.0392 19.5692 14.6896L21.3596 12.8993C21.7092 12.5497 21.7092 11.9829 21.3596 11.6332Z" fill="#F66141"/>
<path d="M25.8342 15.2138C25.4847 14.8643 24.9178 14.8643 24.5682 15.2138L22.7778 17.0041C22.4282 17.3537 22.4282 17.9205 22.7778 18.2702C23.1275 18.6198 23.6943 18.6198 24.0439 18.2702L25.8342 16.4798C26.1838 16.1303 26.1838 15.5634 25.8342 15.2138Z" fill="#F66141"/>
<path d="M48.1175 33.7506C48.1175 32.2698 46.9128 31.0651 45.432 31.0651H44.5368V28.1799C44.5737 28.1479 44.6113 28.1172 44.6475 28.0841C45.2286 27.5545 46.4423 27.2158 47.2336 27.2058C47.7279 27.1996 48.1237 26.7937 48.1174 26.2994C48.1112 25.809 47.7117 25.4155 47.2225 25.4155C47.2188 25.4155 47.2148 25.4155 47.2111 25.4156C46.4429 25.4253 45.4223 25.6292 44.5368 26.0479V23.7013C45.6268 23.2553 46.3514 22.1331 46.1958 20.8873C45.1399 12.4002 37.8843 6 29.3187 6H21.083C12.5174 6 5.26182 12.4002 4.20587 20.887C4.05073 22.129 4.77046 23.2536 5.86491 23.7014V26.0084C4.97608 25.6057 3.95307 25.4043 3.16764 25.4156C2.67332 25.4221 2.27782 25.8281 2.28427 26.3225C2.29071 26.8129 2.69023 27.2059 3.17918 27.2059C3.18312 27.2059 3.18715 27.2059 3.19118 27.2058C3.99165 27.1935 5.23416 27.528 5.8402 28.0807C5.84826 28.0882 5.85685 28.0952 5.865 28.1025V31.0651H4.96973C3.48605 31.0651 2.28418 32.2668 2.28418 33.7506C2.28418 35.0813 3.25724 36.1885 4.52912 36.3994C4.31991 36.9516 4.30487 37.555 4.49886 38.1283C5.60835 41.3996 8.67551 43.5977 12.1312 43.5977H38.2705C41.7262 43.5977 44.7933 41.3996 45.9031 38.1277C46.0969 37.555 46.0819 36.9519 45.8728 36.3998C47.1206 36.1946 48.1175 35.1086 48.1175 33.7506ZM5.98245 21.1083C6.92722 13.5159 13.419 7.79036 21.083 7.79036H29.3187C36.9827 7.79036 43.4745 13.5159 44.4193 21.1088C44.4839 21.6261 44.0802 22.0766 43.5817 22.11C43.5758 22.1103 43.5699 22.1109 43.564 22.1114C43.5487 22.1127 43.5334 22.1133 43.5181 22.1133H6.88363C6.35636 22.1133 5.91504 21.649 5.98245 21.1083ZM39.2765 26.7611C37.3094 24.9672 34.6661 24.9672 32.699 26.7611C31.4145 27.9323 29.8187 27.9323 28.5343 26.7611C26.5672 24.9672 23.924 24.9672 21.9568 26.7611C20.6723 27.9323 19.0765 27.9323 17.7921 26.7611C15.825 24.9673 13.1818 24.9671 11.2144 26.7612C10.1258 27.7547 8.82161 27.9124 7.65527 27.2136V23.9036H42.7464V27.2655C41.6043 27.901 40.3336 27.7251 39.2765 26.7611ZM42.7464 29.207V31.0651H7.65527V29.1801C8.1393 29.3476 8.63604 29.4314 9.13232 29.4313C10.2876 29.4313 11.4397 28.9794 12.4211 28.084C13.7055 26.9127 15.3014 26.9127 16.5858 28.084C18.553 29.878 21.1962 29.8779 23.1633 28.084C24.4478 26.9127 26.0437 26.9127 27.328 28.084C29.2951 29.878 31.9384 29.8779 33.9055 28.084C35.1899 26.9126 36.7858 26.9128 38.0702 28.084C39.4395 29.3329 41.1588 29.7168 42.7464 29.207ZM44.2074 37.5533C43.3444 40.0977 40.9586 41.8073 38.2705 41.8073H12.1312C9.44313 41.8073 7.05729 40.0977 6.1946 37.5538C6.00885 37.0051 6.48267 36.4362 7.06982 36.4362H43.3319C43.9212 36.4362 44.3919 37.0078 44.2074 37.5533ZM45.432 34.6458H4.96973C4.47612 34.6458 4.07454 34.2443 4.07454 33.7506C4.07454 33.2564 4.4755 32.8555 4.96973 32.8555H45.432C45.9256 32.8555 46.3272 33.257 46.3272 33.7506C46.3272 34.2449 45.9262 34.6458 45.432 34.6458Z" fill="#F66141"/>
</svg>
