<svg width="100" height="100" viewBox="0 0 100 100" fill="none" xmlns="http://www.w3.org/2000/svg">
<path fill-rule="evenodd" clip-rule="evenodd" d="M17.7873 15.047C16.2272 15.2713 15 16.6817 15 18.2503C15 18.8935 20.0512 82.2929 20.1259 82.5876C20.4535 83.8795 21.6169 84.8744 22.9824 85.03C23.2711 85.0629 31.7597 85.0736 50.3127 85.0643L77.2241 85.0509L77.5642 84.9455C78.7287 84.5846 79.6045 83.7013 79.8843 82.6049C79.9415 82.3807 80.7056 73.0218 81.6264 61.4866C81.6537 61.146 81.681 60.8036 81.7083 60.4595C83.1946 41.8228 85.0403 18.1489 84.9993 17.8674C84.8029 16.5201 83.8926 15.4899 82.5517 15.0976C82.2442 15.0076 18.408 14.9577 17.7873 15.047ZM82.3922 15.9667C83.3812 16.2986 84.0558 17.1103 84.1493 18.0808C84.1861 18.463 79.1391 82.0081 79.0437 82.3642C78.8215 83.1927 78.1811 83.8367 77.3151 84.1019C76.9494 84.2141 23.2371 84.2353 22.7865 84.1236C21.9575 83.9179 21.2503 83.2657 21.0089 82.4841C20.9213 82.2007 15.8656 19.0706 15.8653 18.2571C15.8649 17.1676 16.702 16.1729 17.8232 15.931C18.3492 15.8173 82.0523 15.8527 82.3922 15.9667ZM48.7645 18.2578C47.2969 18.4128 45.2957 18.9613 43.7354 19.6361C42.8596 20.0148 42.6856 20.1491 42.6854 20.4453C42.6852 20.8293 41.9653 21.6772 41.4104 21.9468C40.8619 22.2133 40.5643 22.2861 39.5523 22.4012C39.4442 22.4134 39.3452 22.4519 39.3318 22.4866C39.2527 22.693 40.0775 23.6632 40.4884 23.847C40.8761 24.0203 40.624 24.1061 39.6118 24.145C38.5923 24.184 38.2961 24.3255 38.0348 24.8987C37.9095 25.1738 37.9268 25.2484 38.2222 25.6982C38.8934 26.7203 38.8761 27.3073 38.1574 27.8792C37.2543 28.5979 37.2463 28.7206 37.924 31.4798C38.1854 32.5434 38.4295 33.4985 38.4666 33.6021C38.537 33.7984 38.5051 33.8919 38.368 33.8919C38.2348 33.8919 37.9571 34.0909 37.8683 34.2503C37.4917 34.9257 37.6004 35.9663 38.2857 38.2406C38.7705 39.8501 38.829 40.066 38.9766 40.7905C39.346 42.6061 39.7895 43.2473 40.6663 43.2343C41.0177 43.2291 41.03 43.2448 41.0673 43.7503C41.135 44.6641 41.3605 45.5515 41.7266 46.3459C41.8452 46.6026 41.9113 46.8311 41.9513 47.1199C42.1286 48.4058 42.9253 49.839 44.1274 51.0353C44.6383 51.5438 45.0438 51.8731 46.3397 52.8322C46.8594 53.2167 47.2845 53.5458 47.2845 53.5635C47.2845 53.5812 46.8184 53.6073 46.2487 53.6215C45.2392 53.6467 44.803 53.7041 44.6789 53.8284C44.5399 53.9674 44.491 56.2265 44.6215 56.479C44.7755 56.7768 45.2626 56.8027 48.3432 56.6767C49.1355 56.6443 49.0922 56.582 48.7884 57.3177C48.6638 57.6195 48.3488 58.4093 48.0885 59.0731C47.4974 60.5795 46.9399 61.8436 46.3642 62.983C45.8033 64.0927 45.7868 63.9724 46.5206 64.1247C46.664 64.1545 46.9879 64.28 47.2407 64.4036C47.8948 64.7235 47.8724 64.7303 48.1686 64.116C48.6935 63.0277 49.6378 60.6406 49.8708 59.813C49.9359 59.5813 50.0058 59.3917 50.0258 59.3917C50.0734 59.3917 50.0678 63.586 50.0189 64.4689C49.9671 65.4076 49.9913 65.4354 50.7088 65.2647C50.9714 65.2024 51.2963 65.1618 51.5642 65.1579C52.0776 65.1507 52.0772 65.1512 52.1541 64.5381C52.3635 62.8676 51.9867 58.9083 51.4494 57.1312C51.3023 56.6446 51.3037 56.6315 51.508 56.5977C51.8391 56.5431 53.2371 56.5676 54.0942 56.6431C55.0526 56.7276 55.1769 56.7161 55.2688 56.5336C55.3759 56.3214 55.4089 54.1255 55.308 53.9233C55.1557 53.6182 54.4774 53.4798 53.3977 53.5336C52.7465 53.566 52.7399 53.5588 53.1718 53.2929C54.5974 52.4152 56.7651 50.4817 57.3638 49.5536C58.282 48.1305 59.077 45.5332 59.0779 43.9539C59.0783 43.2681 59.0931 43.2457 59.566 43.2173C60.4773 43.1631 60.7585 42.6952 61.513 39.9779C62.3045 37.1272 62.5069 36.1897 62.5122 35.3491C62.5174 34.5136 62.4365 34.3569 61.7984 33.9661C61.6467 33.8733 61.6329 33.9504 62.0223 32.7174C62.4336 31.4144 62.5377 31.0081 62.5696 30.5816L62.5976 30.2081L62.3712 29.9896C61.9703 29.6025 61.915 29.4815 61.8335 28.8148C61.1595 23.2885 57.3849 19.2476 52.0658 18.3571C51.5145 18.265 49.3219 18.199 48.7645 18.2578ZM50.7973 19.3225C52.9584 19.5401 55.006 20.3727 56.9792 21.8365C58.9331 23.2859 60.0011 25.2183 60.4078 28.0406C60.574 29.1925 60.4635 31.8021 60.2377 32.0619C60.0787 32.2449 60.0311 32.1626 59.7669 31.2486C59.2651 29.5125 58.8661 28.5056 58.3214 27.6013C57.9833 27.0398 57.9315 27.152 57.9243 28.4624L57.9183 29.5531L58.0544 29.7421C58.6379 30.5539 58.7815 30.8598 59.0172 31.7944C59.2129 32.5705 59.2675 33.1915 59.1446 33.2388C59.0986 33.2563 58.7727 33.2262 58.4206 33.1716C57.6464 33.0517 56.601 33.0264 54.5019 33.0772C52.5422 33.1247 52.1859 33.2162 51.2461 33.9148C50.7247 34.3025 50.673 34.3231 50.384 34.2611C50.0581 34.1913 49.6913 34.1981 49.3753 34.28C49.0425 34.3662 48.9441 34.331 48.4911 33.9644C47.4923 33.1553 47.1948 33.0974 44.0344 33.0961L41.4446 33.0951L41.4675 32.7307C41.5074 32.0954 41.7046 31.8005 42.2613 31.5435C42.6698 31.3549 42.6372 31.4255 42.8859 30.1906C43.377 27.7529 44.1093 26.4218 45.4482 25.5331C46.4378 24.8761 48.2854 24.9339 49.7321 25.6672C50.0618 25.8342 50.0837 25.8281 50.5295 25.4429C51.0615 24.9833 51.0615 24.9842 50.4607 24.3969C48.3691 22.353 45.9756 21.906 43.1112 23.0246C42.7644 23.16 42.4742 23.2543 42.4664 23.234C42.3354 22.8938 44.1561 21.6294 45.3839 21.2078C46.2079 20.9249 46.1389 20.6432 45.2455 20.6418C44.9004 20.6411 44.8403 20.5665 45.0273 20.3713C45.6361 19.7359 48.9388 19.1355 50.7973 19.3225ZM45.4557 24.1282C45.6658 24.2159 45.6301 24.2634 45.2208 24.4412C43.9582 24.9901 43.2192 25.6943 42.4928 27.0412C42.2976 27.4029 42.1936 27.5378 41.9353 27.7633C41.2873 28.3293 41.211 28.4424 40.9634 29.2017C40.6219 30.25 40.4464 31.222 40.3683 32.4979C40.3235 33.2313 40.2834 33.3279 39.956 33.4937C39.6414 33.6531 39.6769 33.7094 39.3879 32.5919C38.579 29.4649 38.5788 29.4684 39.723 27.8198C40.0052 27.4129 39.9558 26.8721 39.5584 26.0233C39.3213 25.5168 39.2938 25.5415 40.2265 25.4229C41.0939 25.3128 42.2041 24.9786 43.0349 24.5773C44.0113 24.1058 44.9743 23.927 45.4557 24.1282ZM41.7825 33.694C42.0325 33.9204 41.7555 34.2186 41.4089 34.0962C41.3033 34.0591 41.1587 34.0286 41.0876 34.0286C40.9023 34.0286 40.8276 33.8772 40.965 33.7809C41.0209 33.7418 41.1285 33.7094 41.2044 33.7091C41.2802 33.7087 41.373 33.6886 41.4104 33.6643C41.5153 33.5965 41.6902 33.6105 41.7825 33.694ZM58.7456 33.7061C59.0742 33.7646 59.1823 34.0286 58.8774 34.0286C58.8188 34.0286 58.6838 34.0593 58.5773 34.0969C58.3251 34.1858 58.2766 34.1832 58.1675 34.0741C57.9679 33.8745 58.1185 33.5878 58.3946 33.6413C58.4826 33.6583 58.6406 33.6876 58.7456 33.7061ZM43.8156 34.2902C43.8269 34.37 43.7844 34.4199 43.6207 34.5178C43.5055 34.5868 43.184 34.7918 42.9063 34.9734C42.3702 35.3241 42.2419 35.3608 42.0887 35.2078C41.9255 35.0445 42.0959 34.6199 42.4217 34.3783C42.7124 34.1629 43.7879 34.0948 43.8156 34.2902ZM56.8223 34.2149C57.368 34.3523 57.4757 35.2125 56.9473 35.2125C56.6148 35.2125 55.5573 34.4331 55.6307 34.242C55.6662 34.1493 56.4874 34.1307 56.8223 34.2149ZM46.2541 34.39C46.487 34.5027 46.7226 34.7955 46.6766 34.9151C46.6544 34.973 46.5749 34.9798 46.1818 34.958C45.6184 34.9264 45.2696 35.0042 44.574 35.3162C44.0286 35.5608 43.7364 35.6324 43.5876 35.5581C43.3442 35.4368 43.4468 35.3092 44.0743 34.9525C44.2746 34.8386 44.5285 34.6936 44.6384 34.63C45.2584 34.272 45.8337 34.1864 46.2541 34.39ZM54.9705 34.5246C55.0745 34.5775 55.3187 34.7654 55.5136 34.9419C55.7084 35.1183 56.0059 35.355 56.1743 35.4682C56.5306 35.707 56.5499 35.7297 56.4599 35.8045C56.2953 35.9411 55.7813 35.7486 55.2807 35.3635C54.8087 35 54.4853 34.9317 53.7972 35.0504C53.1237 35.1667 53.0638 34.9485 53.6822 34.6314C54.1903 34.3709 54.6023 34.3368 54.9705 34.5246ZM59.4489 34.632C59.5561 34.8314 59.5715 35.1096 59.528 36.0741C59.4718 37.3235 59.5321 37.4019 60.106 36.828C60.3483 36.5859 60.3807 36.4702 60.3215 36.0573C60.2261 35.3906 60.5309 34.8254 60.9292 34.9308C61.5858 35.1043 61.5912 35.6347 60.9594 37.899C60.8231 38.3875 60.6421 39.0763 60.557 39.4298C60.0673 41.4644 59.7268 42.0052 59.1 41.7435C58.8249 41.6285 58.7519 41.6763 58.4515 42.1677C58.1118 42.7233 58.0904 42.797 58.0588 43.5227C57.9056 47.0336 56.185 49.9416 53.6818 50.9201C53.0319 51.1743 52.8619 51.1712 52.5713 50.8995C52.3726 50.7135 52.2111 50.6398 52.1968 50.7286C52.1938 50.7475 52.1877 50.9893 52.1833 51.2661C52.1739 51.8617 52.1329 51.9624 51.6567 52.5614C51.217 53.1143 51.1034 53.3673 50.9964 54.0294C50.8641 54.85 48.9168 52.9152 48.3733 51.423C48.2168 50.9933 48.2268 50.3704 48.3992 49.8066C48.7209 48.7554 48.7855 48.2475 48.6837 47.5682C48.6554 47.3785 48.6629 47.319 48.7231 47.2588C48.8509 47.131 48.9595 47.2339 49.3021 47.8078C49.5229 48.1778 49.6623 47.8348 49.5849 47.1119C49.5444 46.7346 49.3818 46.5483 48.995 46.4357C48.1891 46.2015 48.7485 45.7361 49.789 45.7753C51.5257 45.8406 51.9012 45.807 52.8761 45.4985C53.5691 45.2793 53.6258 45.2791 53.963 45.4973C54.3051 45.7184 54.3297 45.7832 54.3587 46.5507C54.4086 47.8696 54.8831 47.7984 55.1629 46.4301C55.2991 45.7641 55.3809 45.5549 55.5952 45.3236C56.1292 44.747 56.3608 43.908 56.2808 42.8407C56.2321 42.1907 56.1225 42.0182 55.6006 41.7703C55.2707 41.6137 54.8563 41.1985 54.4541 40.6212C53.8191 39.7099 53.5251 39.4326 52.9388 39.1913C52.4009 38.9702 52.2404 39.07 52.3642 39.5479C52.5361 40.2112 52.4603 40.3591 51.7782 40.6918C50.7487 41.1939 49.8852 41.162 49.0603 40.5916C48.2452 40.0277 48.1389 39.32 48.6935 38.1496C48.9437 37.6213 48.9835 37.4772 49.0831 36.7379C49.2633 35.4 49.3965 35.1213 49.8564 35.1213C50.2476 35.1213 50.419 35.2812 50.5407 35.759C50.776 36.6834 51.1531 37.0537 51.5597 36.7592C51.8403 36.5559 51.8664 36.4665 51.7305 36.1732C51.5455 35.774 51.6437 35.7113 52.0935 35.9418C52.6825 36.2434 53.733 36.3644 54.4744 36.2158C55.2816 36.0542 55.6123 36.1202 55.7958 36.4798C55.9185 36.7205 55.9651 36.7491 56.3251 36.8054C56.8948 36.8946 56.9442 36.9457 56.8209 37.3167C56.6696 37.7722 56.1985 38.099 55.4602 38.2604C54.9871 38.3637 54.9801 38.3684 54.9801 38.5747C54.9801 38.9651 55.3269 39.0519 56.0989 38.8544C57.1574 38.5838 57.6111 37.9043 57.9829 36.0321C58.2189 34.8438 58.2288 34.8263 58.7598 34.6491C59.202 34.5013 59.3763 34.497 59.4489 34.632ZM39.7573 35.0739C40.0485 35.2514 40.1631 35.6385 40.0313 35.998C39.8783 36.4148 39.8877 36.5307 40.2256 38.3772C40.4986 39.8687 40.4342 40.253 39.9783 39.8529C39.7774 39.6766 39.7004 39.5352 39.6158 39.1876C39.5805 39.0425 39.3949 38.3602 39.2032 37.6714C38.8115 36.2636 38.7563 35.8926 38.8775 35.476C39.009 35.024 39.39 34.8498 39.7573 35.0739ZM45.7877 36.1228C46.3903 36.2282 46.6171 36.2343 47.1341 36.1596C47.6259 36.0885 47.6866 36.1336 47.451 36.3945C47.2524 36.6142 47.2528 36.6106 47.4034 36.8986C47.7469 37.5555 46.9676 38.1735 45.6511 38.2884C45.2427 38.3239 45.19 38.3625 45.19 38.6246C45.19 38.8907 45.3143 38.9521 45.8413 38.9462C46.4395 38.9394 46.4194 38.9376 46.4194 38.9992C46.4194 39.0285 46.359 39.1465 46.2851 39.2615C46.2112 39.3767 46.1189 39.5929 46.0801 39.7421C45.9901 40.0874 45.9684 40.107 45.4473 40.312C45.2085 40.4058 44.8839 40.5748 44.7258 40.6872C43.3975 41.6328 42.757 41.349 42.1617 39.5511C41.7476 38.301 41.8403 38.1042 42.6581 38.4966C43.2063 38.7595 43.4241 38.7792 43.5477 38.5762C43.7411 38.2592 43.6914 38.1496 43.2623 37.9456C42.51 37.5882 42.0143 36.7974 42.3886 36.5521C42.5126 36.471 42.6061 36.5011 42.8382 36.6974C43.2686 37.0614 43.4424 37.0681 43.7492 36.7324C44.3452 36.0809 44.7894 35.9481 45.7877 36.1228ZM47.608 39.0321C47.7019 39.1081 47.7077 39.1314 47.6588 39.2387C47.5601 39.4555 47.5429 39.817 47.621 40.0392C47.8104 40.5783 47.5629 40.8098 47.1763 40.4552C46.5834 39.9114 46.9994 38.5395 47.608 39.0321ZM52.7957 41.3256C52.8791 41.3819 53.114 41.633 53.3177 41.8834C53.7048 42.3591 54.2006 42.7795 54.4792 42.8675C55.7582 43.2728 53.4439 43.8587 51.7186 43.5665C51.4712 43.5246 51.0127 43.4087 50.6996 43.3089C50.0356 43.0971 49.8076 43.0946 49.3097 43.2938C48.1898 43.7417 46.2133 43.7895 45.4209 43.3877C44.9405 43.144 44.9504 43.0125 45.4657 42.7952C45.6522 42.7166 46.0764 42.4729 46.4084 42.2537C47.4137 41.5901 47.8745 41.4809 48.3318 41.7976C49.3669 42.5146 50.5652 42.5807 51.1766 41.9548C51.3299 41.7979 51.4844 41.6927 51.6547 41.6293C51.7932 41.5779 51.9986 41.4809 52.1113 41.4136C52.4738 41.1974 52.5851 41.1832 52.7957 41.3256ZM43.7753 42.8364C43.8653 42.9321 43.8845 43.0191 43.919 43.4852C44.0621 45.4099 44.6971 47.4843 45.1432 47.4843C45.2346 47.4843 45.2768 47.4262 45.4204 47.1028C45.7436 46.3743 45.8826 46.3209 46.0269 46.8696C46.1851 47.4712 46.5166 48.5495 46.648 48.8911C46.8546 49.4277 46.7774 49.5569 46.2506 49.555C44.3529 49.5483 41.6184 45.1753 42.4525 43.4808C42.7577 42.8609 43.4715 42.5132 43.7753 42.8364ZM51.6962 44.3179C52.367 44.3827 52.3381 44.5014 51.6085 44.6777C50.911 44.8465 49.2887 44.9648 48.9458 44.872C48.5888 44.7756 48.1856 44.4328 48.3432 44.3598C48.5846 44.2479 50.6989 44.2214 51.6962 44.3179ZM65.954 67.7286C60.8725 68.0834 57.7812 70.8991 57.7851 75.1697C57.7888 79.4475 62.1051 81.6381 68.1465 80.4281C69.4064 80.1758 69.3278 80.2513 69.5493 79.0826C69.7799 77.8658 69.7688 77.8521 68.7689 78.1048C64.3125 79.2314 61.4244 77.0636 62.3772 73.3073C62.8795 71.3275 64.2513 70.0116 66.0634 69.7715C67.5113 69.5798 68.4662 70.1903 68.5389 71.3544C68.5706 71.8648 68.5763 71.8683 69.3495 71.8683C70.1239 71.8683 70.0283 72.0175 70.4398 70.169C70.8999 68.1021 70.9232 68.2261 70.0383 68.0237C68.7015 67.7178 67.4285 67.6259 65.954 67.7286ZM31.9677 68.0093C31.8943 68.1259 31.7115 68.8959 31.7115 69.0885C31.7115 69.2365 31.7726 69.2956 32.0911 69.4546C32.4215 69.6197 32.5899 69.8738 32.613 70.2414C32.6304 70.5163 31.3365 76.661 31.0702 77.5681C30.8309 78.3842 30.4334 78.9037 29.9411 79.0438C29.4706 79.1779 29.4687 79.1796 29.3546 79.6333C29.0954 80.6629 28.7615 80.5656 32.5523 80.5656C36.2077 80.5656 35.8223 80.6326 35.9729 79.9708C36.1446 79.2153 36.1245 79.1119 35.7778 78.9748C35.5754 78.8949 35.3272 78.6421 35.2647 78.4525C35.2191 78.3149 35.7309 75.6885 35.9295 75.0399C35.9657 74.9218 35.9648 74.9205 36.5858 76.0349C38.3521 79.2045 39.1885 80.0965 40.7301 80.4549C41.1951 80.563 44.7064 80.6092 44.8414 80.509C44.9254 80.4465 45.1404 79.673 45.143 79.423C45.1451 79.2344 44.9972 79.1404 44.6381 79.1021C43.8961 79.0227 43.794 78.9166 41.6006 75.9478C39.9245 73.6794 39.8585 73.5824 39.9385 73.5067C40.4093 73.0613 44.4327 69.789 44.6349 69.6871C44.9609 69.5227 45.412 69.3827 45.7511 69.3403C46.12 69.2941 46.1765 69.2312 46.2821 68.7492C46.4857 67.8197 46.7776 67.9069 43.4596 67.9069C40.4541 67.9069 40.5819 67.8962 40.5219 68.149C40.2959 69.0987 40.3039 69.2053 40.6129 69.3783C41.0937 69.6476 41.0953 69.6456 38.85 71.5129C36.3446 73.5964 36.2658 73.6606 36.2481 73.6396C36.2192 73.6055 36.9924 70.1613 37.0663 69.9946C37.1701 69.7603 37.4287 69.5241 37.7239 69.3939C38.0504 69.2498 38.0578 69.2386 38.1717 68.7138C38.3668 67.8169 38.7126 67.9069 35.0672 67.9069H32.0323L31.9677 68.0093ZM47.3587 68.0093C47.2852 68.1259 47.1024 68.8959 47.1024 69.0885C47.1024 69.2373 47.1362 69.2701 47.468 69.4434C47.6219 69.5239 47.7665 69.6451 47.85 69.7642C48.1093 70.1331 48.1366 69.9646 46.9476 75.3526C45.77 80.6906 45.836 80.3465 45.964 80.4745C46.0971 80.6076 51.0379 80.6185 51.1925 80.4859C51.2997 80.394 51.5453 79.3531 51.4961 79.1983C51.4802 79.1481 51.3895 79.0674 51.2944 79.0189C50.5302 78.629 50.5188 78.4007 51.1326 75.7958L51.1568 75.6934H53.2646C54.8796 75.6934 55.3903 75.6801 55.4491 75.6365C55.5241 75.5808 55.9362 73.8833 55.9362 73.6302C55.9362 73.3688 55.9553 73.3711 53.7356 73.3711C51.8284 73.3711 51.7015 73.3661 51.7024 73.2914C51.7029 73.2476 51.8631 72.4843 52.0585 71.5952L52.4135 69.9786L53.8676 69.9666C56.0582 69.9482 56.2995 70.063 56.3002 71.1251C56.3006 71.6158 56.3611 71.6519 57.1518 71.6327C57.6417 71.6207 57.769 71.6036 57.8308 71.5416C57.9033 71.4691 58.6229 68.3922 58.6229 68.1551C58.6229 67.8916 58.9683 67.9069 52.9398 67.9069H47.4233L47.3587 68.0093ZM81.3905 80.5201C81.3905 80.6554 81.393 80.6568 81.6409 80.6568H81.8914V82.3414H82.2101V80.6568H82.4606C82.7085 80.6568 82.711 80.6554 82.711 80.5201V80.3835H81.3905V80.5201ZM83.1664 80.3835V82.3414H83.4395L83.4427 80.9527L83.63 81.3512C83.8679 81.8572 83.9105 81.8591 84.1553 81.3739L84.3449 80.9982L84.3475 81.6698L84.3503 82.3414H84.6234V80.3835H84.4839C84.3513 80.3835 84.3331 80.4073 84.1258 80.8503L83.9073 81.317L83.6731 80.8503C83.4544 80.4145 83.4297 80.3835 83.3026 80.3835H83.1664Z" fill="#F66141"/>
</svg>
