<svg width="20" height="20" viewBox="0 0 20 20" fill="none" xmlns="http://www.w3.org/2000/svg">
<path fill-rule="evenodd" clip-rule="evenodd" d="M8.86205 18.7562C9.29085 19.1899 9.70135 19.6051 10.0794 20C10.5601 19.5091 11.0639 19.0148 11.5751 18.5132C14.7987 15.3506 18.3143 11.9015 18.1482 7.20306C17.6916 3.15003 14.2533 0 10.0794 0C5.90557 0 2.46721 3.15003 2.01068 7.20306C1.76576 11.5786 5.78534 15.6442 8.86205 18.7562ZM10.003 10.8813C11.8222 10.8813 13.297 9.40607 13.297 7.58628C13.297 5.76649 11.8222 4.29126 10.003 4.29126C8.18371 4.29126 6.70891 5.76649 6.70891 7.58628C6.70891 9.40607 8.18371 10.8813 10.003 10.8813Z" fill="#F66141"/>
</svg>
