<svg width="32" height="38" viewBox="0 0 32 38" fill="none" xmlns="http://www.w3.org/2000/svg">
<mask id="path-1-inside-1_77400_5864" fill="white">
<path fill-rule="evenodd" clip-rule="evenodd" d="M31.7696 5.29729L18.5752 18.4917L31.9998 31.9163C28.6088 35.3286 23.9114 37.4412 18.7206 37.4412C8.3815 37.4412 0 29.0597 0 18.7206C0 8.3815 8.3815 0 18.7206 0C23.795 0 28.3978 2.01891 31.7696 5.29729Z"/>
</mask>
<path fill-rule="evenodd" clip-rule="evenodd" d="M31.7696 5.29729L18.5752 18.4917L31.9998 31.9163C28.6088 35.3286 23.9114 37.4412 18.7206 37.4412C8.3815 37.4412 0 29.0597 0 18.7206C0 8.3815 8.3815 0 18.7206 0C23.795 0 28.3978 2.01891 31.7696 5.29729Z" fill="#F66141"/>
<path d="M18.5752 18.4917L16.4539 16.3704L14.3326 18.4917L16.4539 20.613L18.5752 18.4917ZM31.7696 5.29729L33.8909 7.41861L36.0423 5.26727L33.8609 3.14638L31.7696 5.29729ZM31.9998 31.9163L34.1277 34.0309L36.2358 31.9096L34.1211 29.7949L31.9998 31.9163ZM20.6965 20.613L33.8909 7.41861L29.6483 3.17597L16.4539 16.3704L20.6965 20.613ZM34.1211 29.7949L20.6965 16.3704L16.4539 20.613L29.8784 34.0376L34.1211 29.7949ZM29.8718 29.8016C27.0209 32.6705 23.0803 34.4412 18.7206 34.4412V40.4412C24.7425 40.4412 30.1967 37.9867 34.1277 34.0309L29.8718 29.8016ZM18.7206 34.4412C10.0384 34.4412 3 27.4029 3 18.7206H-3C-3 30.7166 6.72465 40.4412 18.7206 40.4412V34.4412ZM3 18.7206C3 10.0384 10.0384 3 18.7206 3V-3C6.72465 -3 -3 6.72465 -3 18.7206H3ZM18.7206 3C22.9829 3 26.8438 4.69229 29.6783 7.44821L33.8609 3.14638C29.9517 -0.654476 24.607 -3 18.7206 -3V3Z" fill="#F66141" mask="url(#path-1-inside-1_77400_5864)"/>
</svg>
