<svg width="100" height="100" viewBox="0 0 100 100" fill="none" xmlns="http://www.w3.org/2000/svg">
<path d="M35.3991 41.2737C24.9437 42.6209 26.793 59.2834 37.5728 58.0569C48.1539 56.853 46.2889 39.8705 35.3991 41.2737ZM77.2107 52.8536C74.9852 59.0478 86.1009 59.706 88.2152 55.1551C89.6864 51.9885 88.024 49.1168 84.8825 48.0925C83.9091 47.7751 80.4977 47.2533 81.2353 45.5668C82.2905 43.1543 86.0213 44.9346 87.4398 45.8211C89.7351 40.2002 79.5 39.6914 77.666 43.2715C74.5 50.1913 84 49.6913 84.0788 52.7262C84.1575 55.761 78.1102 53.5451 77.2107 52.8536ZM12 41.4737V57.8403H15.9638L15.8359 46.7161H15.9638C17.6715 52.1702 20.6848 57.8403 26.8322 57.8403V41.4737H22.9963V52.47C19.9706 47.2144 19.1179 41.4737 12 41.4737ZM44.0939 41.4737C45.8685 46.8995 47.6576 52.3149 49.5642 57.6932C51 57.6932 52.5 57.6913 54.5 57.6913C56.3023 52.3114 58.2779 46.8559 60.0769 41.4737C59.089 41.4737 57.5 41.4737 56 41.4737C54.6861 46.4052 53.5296 50.093 52.2772 54.2601H52.1493L48.697 41.4737H44.0939ZM61.0998 41.4737C61.0998 45.3593 60.7361 52.8536 61.777 54.8994C63.9761 59.2219 72.0363 59.2675 74.4599 55.1551C75.8164 52.8536 75.2927 45.3482 75.2927 41.4737H70.9453C70.9453 51.1913 72 55.1551 68.1323 54.8763C64 54.8994 66 51.1913 65.4472 41.4737H61.0998ZM36.0384 44.4572C41.2726 43.706 41.7591 54.1606 37.0614 54.8565C31.778 55.6391 31.2438 45.1453 36.0384 44.4572Z" fill="#F66141"/>
</svg>
