<svg width="90" height="106" viewBox="0 0 90 106" fill="none" xmlns="http://www.w3.org/2000/svg">
<mask id="path-1-inside-1_77393_3103" fill="white">
<path fill-rule="evenodd" clip-rule="evenodd" d="M89.3522 14.8988L52.2436 52.0074L90 89.7638C80.4627 99.3614 67.2512 105.303 52.6517 105.303C23.573 105.303 0 81.7305 0 52.6517C0 23.573 23.573 0 52.6517 0C66.9234 0 79.8689 5.67825 89.3522 14.8988Z"/>
</mask>
<path d="M52.2436 52.0074L50.1222 49.8861L48.0009 52.0074L50.1222 54.1287L52.2436 52.0074ZM89.3522 14.8988L91.4735 17.0201L93.6248 14.8688L91.4435 12.7479L89.3522 14.8988ZM90 89.7638L92.128 91.8785L94.236 89.7572L92.1213 87.6425L90 89.7638ZM54.3649 54.1287L91.4735 17.0201L87.2309 12.7775L50.1222 49.8861L54.3649 54.1287ZM92.1213 87.6425L54.3649 49.8861L50.1222 54.1287L87.8787 91.8852L92.1213 87.6425ZM87.872 87.6492C78.8748 96.7033 66.4201 102.303 52.6517 102.303V108.303C68.0822 108.303 82.0507 102.02 92.128 91.8785L87.872 87.6492ZM52.6517 102.303C25.2298 102.303 3 80.0736 3 52.6517H-3C-3 83.3873 21.9161 108.303 52.6517 108.303V102.303ZM3 52.6517C3 25.2298 25.2298 3 52.6517 3V-3C21.9161 -3 -3 21.9161 -3 52.6517H3ZM52.6517 3C66.1114 3 78.3149 8.35163 87.2609 17.0497L91.4435 12.7479C81.4228 3.00487 67.7355 -3 52.6517 -3V3Z" fill="#F66141" mask="url(#path-1-inside-1_77393_3103)"/>
</svg>
