<svg width="120" height="120" viewBox="0 0 120 120" fill="none" xmlns="http://www.w3.org/2000/svg">
<path d="M28.758 7.46558L29.1564 12.5914L25.2424 15.9312L30.258 17.1429L32.2268 21.889L34.9221 17.5109L40.0314 17.1007L36.7033 13.1843L37.8986 8.18745L33.1408 10.1445L28.758 7.46558ZM108.75 9.49995C107.756 9.49995 106.802 9.89504 106.099 10.5983C105.395 11.3016 105 12.2554 105 13.25C105 14.2445 105.395 15.1983 106.099 15.9016C106.802 16.6049 107.756 17 108.75 17C109.745 17 110.699 16.6049 111.402 15.9016C112.105 15.1983 112.5 14.2445 112.5 13.25C112.5 12.2554 112.105 11.3016 111.402 10.5983C110.699 9.89504 109.745 9.49995 108.75 9.49995ZM56.2033 11.9609C55.2088 11.9609 54.2549 12.356 53.5517 13.0592C52.8484 13.7625 52.4533 14.7163 52.4533 15.7109C52.4533 16.7055 52.8484 17.6593 53.5517 18.3625C54.2549 19.0658 55.2088 19.4609 56.2033 19.4609C57.1979 19.4609 58.1517 19.0658 58.855 18.3625C59.5582 17.6593 59.9533 16.7055 59.9533 15.7109C59.9533 14.7163 59.5582 13.7625 58.855 13.0592C58.1517 12.356 57.1979 11.9609 56.2033 11.9609ZM99.3049 13.564C97.1486 13.9718 95.1564 15.2468 93.2346 16.9109C91.4533 18.4414 89.7893 20.3468 88.383 22.407C83.9768 23.1125 79.5705 24.9078 76.6174 27.3593C72.8439 30.4531 69.4924 35.75 67.6643 41.2109C65.9299 41.9375 64.2893 42.8046 62.9533 43.7421C59.3205 46.2968 57.4455 51.1953 56.0627 55.4609C54.6799 59.75 54.0002 63.4999 54.0002 63.4999L58.1721 64.25C58.1721 64.25 58.8049 60.7343 60.0705 56.7734C61.3596 52.8125 63.5393 48.4999 65.3908 47.2109C65.6955 46.9999 66.0939 46.7656 66.4455 46.5546C66.3049 47.8906 66.3049 49.2265 66.5158 50.4921C66.9377 53.164 68.3908 55.7187 70.9689 57.1015C72.7971 58.0859 74.8596 57.8515 76.5939 57.1484C78.3283 56.4218 79.8752 55.2265 81.2111 53.8203C82.5471 52.414 83.6486 50.75 84.3049 48.9921C84.9611 47.2343 85.1955 45.2421 84.3518 43.3906H84.3283C83.4143 41.4218 81.6564 40.1562 79.7814 39.6171C77.9064 39.0781 75.8908 39.1015 73.8752 39.4062C73.5236 39.4531 73.1955 39.5703 72.8439 39.6406C74.5783 35.9375 77.0627 32.4453 79.2893 30.5937C80.7424 29.3984 83.1799 28.25 85.7814 27.4062C85.4533 28.2968 85.1955 29.1875 85.0783 30.1015C84.7033 32.5625 85.2424 35.2343 87.2111 37.0625C88.6408 38.375 90.5627 38.5859 92.2502 38.3046C93.9143 38.0234 95.5314 37.2734 96.9846 36.3125C98.4377 35.3281 99.7268 34.1093 100.641 32.6796C101.555 31.25 102.164 29.4218 101.578 27.5937V27.5703C100.805 25.2101 98.883 23.5882 96.7502 22.8195C95.8361 22.4914 94.8752 22.3062 93.8908 22.196C94.5705 21.432 95.2736 20.7171 95.9768 20.1054C97.5705 18.7367 99.1877 17.8789 100.102 17.7078L99.3049 13.564ZM40.9689 21.7789L37.4064 24.0195L45.4924 36.9687L32.2736 37.6484L38.4846 51.1953L42.3283 49.414L38.6955 41.539L52.8986 40.8125L40.9689 21.7789ZM91.6877 26.3046C93.1174 26.2812 94.383 26.4453 95.3205 26.7968C96.5861 27.2421 97.2189 27.8046 97.5471 28.8593C97.6408 29.1171 97.5939 29.6328 97.1018 30.4062C96.5861 31.2031 95.6721 32.0937 94.6408 32.7968C93.5861 33.5 92.4143 33.9921 91.5471 34.1328C90.6564 34.2968 90.258 34.1328 90.0705 33.9687C89.2502 33.2187 89.0158 32.2812 89.2502 30.7109C89.4377 29.4453 90.0236 27.9218 90.8908 26.3515C91.1721 26.3515 91.4299 26.3046 91.6877 26.3046ZM22.2635 30.8281C21.2689 30.8281 20.3151 31.2232 19.6118 31.9264C18.9086 32.6297 18.5135 33.5835 18.5135 34.5781C18.5135 35.5726 18.9086 36.5265 19.6118 37.2297C20.3151 37.933 21.2689 38.3281 22.2635 38.3281C22.7561 38.3284 23.244 38.2316 23.6993 38.0433C24.1545 37.855 24.5682 37.5788 24.9166 37.2306C25.2651 36.8823 25.5415 36.4688 25.7301 36.0137C25.9187 35.5586 26.0158 35.0707 26.0158 34.5781C26.0158 34.0854 25.9187 33.5976 25.7301 33.1425C25.5415 32.6873 25.2651 32.2738 24.9166 31.9256C24.5682 31.5773 24.1545 31.3012 23.6993 31.1129C23.244 30.9245 22.7561 30.8278 22.2635 30.8281ZM105.727 39.5468L102.352 43.4375L97.2424 43.0156L99.9143 47.4218L97.9221 52.1562L102.938 50.9843L106.828 54.3359L107.274 49.2031L111.656 46.5312L106.922 44.539L105.727 39.5468ZM76.7814 43.414C77.4611 43.4375 78.0939 43.5312 78.5861 43.6718C79.5939 43.9531 80.133 44.375 80.508 45.1718C80.7189 45.6171 80.7424 46.4375 80.3439 47.5156C79.9455 48.6171 79.1252 49.8828 78.1408 50.9375C77.1564 51.9921 75.9611 52.8359 74.9768 53.2343C73.9924 53.6328 73.383 53.6093 72.9846 53.3984H72.9611C71.6018 52.6484 70.9455 51.5703 70.6877 49.8359C70.4533 48.3593 70.6174 46.4843 71.1096 44.4687C72.258 44.0703 73.4064 43.7421 74.508 43.5781C75.3283 43.4609 76.0783 43.414 76.7814 43.414ZM29.3439 55.5781C27.6564 55.5312 26.6018 55.9296 25.9455 56.5859C25.2893 57.2421 24.8908 58.2968 24.9377 59.9843C24.9846 61.6953 25.5471 63.9453 26.6252 66.4531C28.7814 71.4921 33.0236 77.5624 38.7189 83.2812C44.4143 88.9765 50.508 93.1953 55.5471 95.3515C58.0314 96.4296 60.2814 96.9921 61.9924 97.039C63.7033 97.1093 64.7346 96.6875 65.3908 96.0312C66.0471 95.375 66.4689 94.3437 66.3986 92.6328C66.3518 90.9218 65.7893 88.6718 64.7111 86.164C62.5549 81.1484 58.3361 75.0546 52.6408 69.3593C46.9455 63.6406 40.8518 59.4218 35.8127 57.2656C33.3049 56.1875 31.0549 55.625 29.3439 55.5781ZM83.7189 62.914L75.9846 75.5703L69.1643 69.0312L66.258 72.0781L76.8283 82.2265L84.7502 69.289L93.8205 76.8593L114.75 67.9062L113.11 64.0156L94.5236 71.9843L83.7189 62.914ZM21.8979 65.8906L17.7635 79.4609C27.4689 90.9687 38.7893 97.4375 51.0705 101.656L56.133 100.109C55.4064 99.8515 54.633 99.5468 53.8596 99.2187C48.1408 96.7812 41.7424 92.2812 35.7424 86.2578C29.7189 80.2343 25.2189 73.8359 22.7721 68.1171C22.4416 67.3671 22.151 66.6171 21.8979 65.8906ZM16.315 84.2187L13.0314 94.9999C19.8025 101.328 26.8596 104.187 34.2658 106.766L44.4377 103.672C34.3127 99.5468 24.7502 93.5234 16.315 84.2187ZM86.2502 84.4999C85.2556 84.4999 84.3018 84.895 83.5985 85.5983C82.8953 86.3016 82.5002 87.2554 82.5002 88.2499C82.5002 89.2445 82.8953 90.1983 83.5985 90.9016C84.3018 91.6049 85.2556 91.9999 86.2502 91.9999C87.2448 91.9999 88.1986 91.6049 88.9018 90.9016C89.6051 90.1983 90.0002 89.2445 90.0002 88.2499C90.0002 87.2554 89.6051 86.3016 88.9018 85.5983C88.1986 84.895 87.2448 84.4999 86.2502 84.4999ZM11.6744 99.4765L6.91895 115.086L27.6096 108.781C22.2729 106.648 16.8799 103.93 11.6744 99.4765Z" fill="black"/>
</svg>
