<svg width="51" height="50" viewBox="0 0 51 50" fill="none" xmlns="http://www.w3.org/2000/svg">
<g clip-path="url(#clip0_77405_122)">
<path d="M43.251 7.24913C38.5763 2.57443 32.361 0 25.75 0C19.139 0 12.9238 2.57443 8.24913 7.24913C3.57443 11.9237 1 18.139 1 24.75C1 31.361 3.57443 37.5763 8.24913 42.2509C12.9238 46.9256 19.1391 49.5 25.75 49.5C32.3609 49.5 38.5763 46.9256 43.2509 42.2509C47.9256 37.5763 50.5 31.361 50.5 24.75C50.5 18.139 47.9256 11.9237 43.251 7.24913ZM42.117 41.117C37.7453 45.4887 31.9327 47.8963 25.75 47.8963C19.5673 47.8963 13.7549 45.4887 9.38303 41.1169C5.01121 36.745 2.60367 30.9326 2.60367 24.75C2.60367 18.5674 5.01132 12.7549 9.38314 8.38303C13.7549 4.01132 19.5674 1.60367 25.75 1.60367C31.9326 1.60367 37.7451 4.01132 42.117 8.38303C46.4887 12.7549 48.8963 18.5674 48.8963 24.75C48.8963 30.9326 46.4887 36.7451 42.117 41.117Z" fill="#F66141"/>
<path d="M46.3446 22.1774C46.118 21.6762 45.904 21.2027 45.8161 20.7585C45.7233 20.2893 45.7397 19.7555 45.7572 19.1904C45.7839 18.3264 45.8115 17.4331 45.4601 16.5857C45.1017 15.7215 44.4437 15.1052 43.8073 14.5092C43.4012 14.1289 43.0175 13.7695 42.76 13.385C42.4985 12.9943 42.3107 12.4985 42.1119 11.9736C41.8046 11.1624 41.4869 10.3236 40.8322 9.66873C40.1775 9.014 39.3387 8.69626 38.5275 8.38889C38.0026 8.19003 37.5068 8.00219 37.1162 7.74069C36.7315 7.48314 36.3722 7.09943 35.9917 6.69317C35.3956 6.05672 34.7794 5.39868 33.9151 5.04032C33.0675 4.68879 32.1741 4.71637 31.31 4.743C30.7449 4.76053 30.211 4.77699 29.7416 4.68409C29.2975 4.59621 28.824 4.38217 28.3228 4.15552C27.5616 3.81126 26.6988 3.42114 25.75 3.42114C24.8011 3.42114 23.9385 3.81116 23.1773 4.15541C22.6761 4.38206 22.2025 4.5961 21.7584 4.68398C21.2892 4.77678 20.7554 4.76032 20.1903 4.74289C19.3262 4.71616 18.433 4.68868 17.5855 5.04C16.7213 5.39836 16.105 6.0564 15.509 6.69274C15.1286 7.0989 14.7693 7.4826 14.3848 7.74004C13.9941 8.00155 13.4982 8.18939 12.9734 8.38814C12.1622 8.69541 11.3232 9.01315 10.6685 9.66787C10.0138 10.3226 9.69605 11.1613 9.38868 11.9726C9.18982 12.4975 9.00198 12.9932 8.74047 13.3839C8.48292 13.7686 8.09922 14.1279 7.69295 14.5084C7.05651 15.1044 6.39847 15.7207 6.0401 16.5849C5.68858 17.4325 5.71605 18.326 5.74278 19.19C5.76021 19.7553 5.77667 20.2891 5.68377 20.7584C5.59589 21.2025 5.38185 21.6761 5.1552 22.1773C4.81126 22.9384 4.42114 23.8011 4.42114 24.75C4.42114 25.6988 4.81116 26.5615 5.15541 27.3227C5.38206 27.8239 5.5961 28.2974 5.68398 28.7415C5.77678 29.2107 5.76032 29.7447 5.74289 30.3098C5.71616 31.1737 5.68868 32.0671 6.04 32.9145C6.39836 33.7786 7.0564 34.395 7.69263 34.9909C8.0989 35.3713 8.48249 35.7306 8.73994 36.1152C9.00144 36.5059 9.18929 37.0017 9.38814 37.5266C9.6954 38.3379 10.0131 39.1767 10.6678 39.8314C11.3224 40.4862 12.1613 40.8039 12.9725 41.1113C13.4974 41.3101 13.9931 41.498 14.3838 41.7595C14.7685 42.017 15.1277 42.4007 15.5082 42.8069C16.1042 43.4433 16.7204 44.1014 17.5847 44.4597C18.4322 44.8113 19.3257 44.7838 20.1898 44.7571C20.7551 44.7396 21.2889 44.7232 21.7583 44.8161C22.2024 44.904 22.6758 45.118 23.1772 45.3446C23.9385 45.6888 24.8012 46.0789 25.7501 46.0789C26.6988 46.0789 27.5615 45.6889 28.3227 45.3446C28.8239 45.118 29.2974 44.904 29.7415 44.8161C30.2109 44.7233 30.7447 44.7397 31.3097 44.7572C32.1739 44.7839 33.067 44.8115 33.9144 44.4601C34.7785 44.1017 35.3949 43.4437 35.9908 42.8074C36.3712 42.4012 36.7305 42.0176 37.1151 41.7601C37.5057 41.4986 38.0016 41.3108 38.5265 41.1119C39.3378 40.8047 40.1766 40.4869 40.8313 39.8323C41.4861 39.1776 41.8038 38.3387 42.1112 37.5276C42.31 37.0027 42.4979 36.5069 42.7594 36.1163C43.0169 35.7316 43.4006 35.3724 43.8068 34.9919C44.4432 34.396 45.1013 33.7796 45.4597 32.9153C45.8113 32.0677 45.7837 31.1743 45.7571 30.3102C45.7396 29.745 45.7232 29.2111 45.816 28.7418C45.9038 28.2977 46.1179 27.8243 46.3445 27.323C46.6887 26.5617 47.0788 25.6989 47.0788 24.7501C47.0788 23.8012 46.6888 22.9386 46.3446 22.1774ZM44.8833 26.6622C44.6292 27.2241 44.3666 27.8051 44.2428 28.4305C44.1146 29.0785 44.1347 29.7297 44.154 30.3595C44.1764 31.0859 44.1975 31.772 43.9783 32.3009C43.7524 32.8455 43.2462 33.3195 42.7105 33.8213C42.2561 34.2467 41.7864 34.6866 41.4267 35.224C41.063 35.7671 40.8335 36.3733 40.6114 36.9594C40.3528 37.6422 40.1084 38.2872 39.6973 38.6982C39.2862 39.1093 38.6414 39.3535 37.9584 39.6122C37.3722 39.8342 36.7661 40.0638 36.2229 40.4274C35.6856 40.7871 35.2456 41.2568 34.8202 41.7112C34.3185 42.2469 33.8447 42.7529 33.3002 42.9786C32.7715 43.1979 32.0855 43.1768 31.3592 43.1542C30.7295 43.1348 30.0782 43.1147 29.4302 43.2429C28.8049 43.3666 28.2238 43.6293 27.6619 43.8834C26.9889 44.1878 26.3531 44.4751 25.75 44.4751C25.1468 44.4751 24.511 44.1877 23.8378 43.8833C23.2758 43.6293 22.6949 43.3666 22.0695 43.2428C21.6584 43.1614 21.246 43.1398 20.8385 43.1398C20.6038 43.1398 20.3706 43.147 20.1404 43.1541C19.4138 43.1765 18.7278 43.1977 18.199 42.9784C17.6544 42.7525 17.1805 42.2464 16.6786 41.7106C16.2532 41.2564 15.8133 40.7866 15.276 40.4268C14.7329 40.0632 14.1267 39.8336 13.5406 39.6115C12.8577 39.3529 12.2127 39.1085 11.8018 38.6974C11.3907 38.2864 11.1464 37.6415 10.8878 36.9585C10.6657 36.3723 10.4362 35.7662 10.0726 35.223C9.71283 34.6857 9.24317 34.2457 8.78879 33.8203C8.25306 33.3186 7.74705 32.8448 7.52136 32.3002C7.30209 31.7715 7.32325 31.0855 7.3457 30.3593C7.36516 29.7295 7.38526 29.0782 7.25708 28.4303C7.13338 27.805 6.8707 27.224 6.61657 26.662C6.3123 25.9889 6.02481 25.3531 6.02481 24.75C6.02481 24.1469 6.3123 23.511 6.61668 22.8379C6.8707 22.2759 7.13349 21.6949 7.25718 21.0695C7.38537 20.4216 7.36527 19.7704 7.34592 19.1405C7.32357 18.4141 7.30241 17.728 7.52168 17.1991C7.74758 16.6545 8.2536 16.1806 8.78944 15.6788C9.24381 15.2534 9.71358 14.8134 10.0732 14.2761C10.4369 13.7329 10.6665 13.1268 10.8885 12.5406C11.1472 11.8577 11.3916 11.2128 11.8026 10.8018C12.2137 10.3907 12.8587 10.1465 13.5415 9.88779C14.1276 9.66584 14.7338 9.43619 15.2769 9.07259C15.8143 8.71283 16.2542 8.24317 16.6796 7.7889C17.1813 7.25317 17.6552 6.74716 18.1998 6.52136C18.7286 6.30219 19.4145 6.32347 20.1408 6.34571C20.7705 6.36527 21.4218 6.38526 22.0698 6.25708C22.6951 6.13338 23.276 5.8707 23.8381 5.61657C24.5112 5.3123 25.1469 5.02481 25.75 5.02481C26.3531 5.02481 26.989 5.3123 27.6621 5.61668C28.224 5.8707 28.8051 6.13349 29.4304 6.25718C30.0783 6.38537 30.7294 6.36527 31.3594 6.34592C32.0859 6.32347 32.7719 6.3023 33.3008 6.52168C33.8454 6.74759 34.3194 7.2537 34.8211 7.78944C35.2465 8.24381 35.6865 8.71358 36.2239 9.07334C36.7671 9.43705 37.3732 9.66659 37.9594 9.88864C38.6422 10.1473 39.2871 10.3917 39.6982 10.8027C40.1092 11.2138 40.3534 11.8588 40.6122 12.5417C40.8341 13.1277 41.0638 13.7339 41.4274 14.277C41.7871 14.8144 42.2568 15.2543 42.711 15.6797C43.2468 16.1815 43.7528 16.6553 43.9786 17.1999C44.1978 17.7286 44.1766 18.4145 44.1542 19.1409C44.1348 19.7707 44.1147 20.4219 44.2429 21.0698C44.3666 21.6951 44.6292 22.2762 44.8834 22.8381C45.1876 23.5112 45.4751 24.147 45.4751 24.75C45.4751 25.3532 45.1878 25.989 44.8833 26.6622Z" fill="#F66141"/>
<path d="M20.6182 17.8543C22.4751 17.8543 23.9859 16.3436 23.9859 14.4866C23.9859 12.6297 22.4753 11.1189 20.6182 11.1189C18.7611 11.1189 17.2505 12.6297 17.2505 14.4866C17.2505 16.3436 18.7613 17.8543 20.6182 17.8543ZM20.6182 12.7226C21.5909 12.7226 22.3822 13.5139 22.3822 14.4866C22.3822 15.4593 21.5909 16.2506 20.6182 16.2506C19.6455 16.2506 18.8542 15.4593 18.8542 14.4866C18.8542 13.5139 19.6455 12.7226 20.6182 12.7226Z" fill="#F66141"/>
<path d="M38.5259 20.4734C38.5259 18.6165 37.0152 17.1057 35.1582 17.1057C33.3013 17.1057 31.7905 18.6165 31.7905 20.4734C31.7905 22.3304 33.3013 23.8411 35.1582 23.8411C37.0152 23.8411 38.5259 22.3304 38.5259 20.4734ZM35.1582 22.2375C34.1856 22.2375 33.3942 21.4461 33.3942 20.4734C33.3942 19.5007 34.1856 18.7094 35.1582 18.7094C36.1309 18.7094 36.9223 19.5007 36.9223 20.4734C36.9223 21.4461 36.131 22.2375 35.1582 22.2375Z" fill="#F66141"/>
<path d="M30.0264 32.501C28.1695 32.501 26.6587 34.0117 26.6587 35.8687C26.6587 37.7256 28.1695 39.2364 30.0264 39.2364C31.8833 39.2364 33.3941 37.7257 33.3941 35.8687C33.3941 34.0117 31.8835 32.501 30.0264 32.501ZM30.0264 37.6327C29.0537 37.6327 28.2624 36.8414 28.2624 35.8687C28.2624 34.896 29.0537 34.1046 30.0264 34.1046C30.9991 34.1046 31.7904 34.896 31.7904 35.8687C31.7904 36.8414 30.9992 37.6327 30.0264 37.6327Z" fill="#F66141"/>
<path d="M20.5648 28.1712C20.5648 26.3142 19.054 24.8035 17.1971 24.8035C15.34 24.8035 13.8293 26.3142 13.8293 28.1712C13.8293 30.0281 15.3401 31.5389 17.1971 31.5389C19.0541 31.5389 20.5648 30.0281 20.5648 28.1712ZM17.1971 29.9352C16.2243 29.9352 15.433 29.1439 15.433 28.1712C15.433 27.1985 16.2244 26.4071 17.1971 26.4071C18.1697 26.4071 18.9611 27.1985 18.9611 28.1712C18.9611 29.1439 18.1698 29.9352 17.1971 29.9352Z" fill="#F66141"/>
<path d="M29.1176 26.4607C29.1176 25.0753 27.9906 23.9482 26.6052 23.9482C25.2198 23.9482 24.0928 25.0753 24.0928 26.4607C24.0928 27.846 25.2198 28.9731 26.6052 28.9731C27.9906 28.9731 29.1176 27.846 29.1176 26.4607ZM26.6052 27.3694C26.1041 27.3694 25.6964 26.9618 25.6964 26.4607C25.6964 25.9596 26.1041 25.5519 26.6052 25.5519C27.1063 25.5519 27.5139 25.9596 27.5139 26.4607C27.5139 26.9618 27.1064 27.3694 26.6052 27.3694Z" fill="#F66141"/>
<path d="M30.0263 15.2883C31.4117 15.2883 32.5388 14.1612 32.5388 12.7758C32.5388 11.3905 31.4117 10.2634 30.0263 10.2634C28.641 10.2634 27.5139 11.3905 27.5139 12.7758C27.5139 14.1612 28.641 15.2883 30.0263 15.2883ZM30.0263 11.8671C30.5274 11.8671 30.9351 12.2748 30.9351 12.7758C30.9351 13.2769 30.5274 13.6846 30.0263 13.6846C29.5252 13.6846 29.1176 13.2769 29.1176 12.7758C29.1176 12.2748 29.5252 11.8671 30.0263 11.8671Z" fill="#F66141"/>
<path d="M37.7241 26.5139C36.3387 26.5139 35.2117 27.641 35.2117 29.0263C35.2117 30.4117 36.3387 31.5388 37.7241 31.5388C39.1094 31.5388 40.2365 30.4117 40.2365 29.0263C40.2365 27.641 39.1094 26.5139 37.7241 26.5139ZM37.7241 29.9351C37.223 29.9351 36.8153 29.5274 36.8153 29.0263C36.8153 28.5252 37.223 28.1176 37.7241 28.1176C38.2252 28.1176 38.6328 28.5252 38.6328 29.0263C38.6328 29.5274 38.2253 29.9351 37.7241 29.9351Z" fill="#F66141"/>
<path d="M20.6181 34.2117C19.2328 34.2117 18.1057 35.3387 18.1057 36.7241C18.1057 38.1094 19.2328 39.2365 20.6181 39.2365C22.0035 39.2365 23.1306 38.1094 23.1306 36.7241C23.1306 35.3387 22.0035 34.2117 20.6181 34.2117ZM20.6181 37.6328C20.117 37.6328 19.7094 37.2252 19.7094 36.7241C19.7094 36.223 20.117 35.8153 20.6181 35.8153C21.1192 35.8153 21.5269 36.223 21.5269 36.7241C21.5269 37.2252 21.1193 37.6328 20.6181 37.6328Z" fill="#F66141"/>
<path d="M13.7758 22.1306C15.1612 22.1306 16.2883 21.0035 16.2883 19.6181C16.2883 18.2328 15.1612 17.1057 13.7758 17.1057C12.3905 17.1057 11.2634 18.2328 11.2634 19.6181C11.2634 21.0035 12.3905 22.1306 13.7758 22.1306ZM13.7758 18.7094C14.2769 18.7094 14.6846 19.117 14.6846 19.6181C14.6846 20.1192 14.2769 20.5269 13.7758 20.5269C13.2748 20.5269 12.8671 20.1192 12.8671 19.6181C12.8671 19.117 13.2748 18.7094 13.7758 18.7094Z" fill="#F66141"/>
<path d="M22.6875 19.7564C22.2916 19.5584 21.8098 19.7189 21.6117 20.115C21.4136 20.5111 21.5742 20.9928 21.9703 21.1908L23.6809 22.0461C23.796 22.1037 23.9183 22.1308 24.0388 22.1308C24.3329 22.1308 24.6161 21.9683 24.7566 21.6875C24.9547 21.2914 24.7941 20.8097 24.398 20.6117L22.6875 19.7564Z" fill="#F66141"/>
<path d="M27.4605 19.5649C27.6657 19.5649 27.8709 19.4866 28.0275 19.33L28.8827 18.4747C29.1959 18.1616 29.1959 17.6539 28.8827 17.3408C28.5696 17.0277 28.0619 17.0277 27.7488 17.3408L26.8935 18.1961C26.5804 18.5092 26.5804 19.017 26.8935 19.33C27.0502 19.4866 27.2553 19.5649 27.4605 19.5649Z" fill="#F66141"/>
<path d="M24.6064 31.0255L23.7511 30.1702C23.4379 29.857 22.9302 29.857 22.6172 30.1702C22.304 30.4833 22.304 30.991 22.6172 31.3041L23.4725 32.1594C23.629 32.3159 23.8343 32.3942 24.0394 32.3942C24.2446 32.3942 24.4499 32.316 24.6064 32.1594C24.9195 31.8463 24.9195 31.3385 24.6064 31.0255Z" fill="#F66141"/>
<path d="M32.3041 26.749C31.9909 26.4359 31.4832 26.4359 31.1702 26.749C30.857 27.0622 30.857 27.5699 31.1702 27.8829L32.0255 28.7382C32.182 28.8947 32.3872 28.9731 32.5924 28.9731C32.7976 28.9731 33.0028 28.8948 33.1594 28.7382C33.4725 28.4251 33.4725 27.9173 33.1594 27.6043L32.3041 26.749Z" fill="#F66141"/>
<path d="M41.6421 22.3222L39.9315 23.1775C39.5354 23.3755 39.3748 23.8571 39.5729 24.2532C39.7134 24.5342 39.9965 24.6966 40.2907 24.6966C40.4112 24.6966 40.5335 24.6693 40.6486 24.6118L42.3592 23.7565C42.7553 23.5585 42.9159 23.0769 42.7178 22.6808C42.5198 22.2847 42.0383 22.124 41.6421 22.3222Z" fill="#F66141"/>
<path d="M11.777 25.0383C11.4639 24.7252 10.9562 24.7252 10.6431 25.0383L9.78784 25.8936C9.47469 26.2068 9.47469 26.7145 9.78784 27.0275C9.94435 27.1841 10.1496 27.2624 10.3548 27.2624C10.56 27.2624 10.7652 27.1841 10.9217 27.0275L11.777 26.1722C12.0902 25.8592 12.0902 25.3514 11.777 25.0383Z" fill="#F66141"/>
<path d="M24.3277 9.92181C24.4843 10.0784 24.6895 10.1567 24.8946 10.1567C25.0998 10.1567 25.3051 10.0784 25.4616 9.92181C25.7747 9.60866 25.7747 9.10094 25.4616 8.7879L24.6063 7.93261C24.2932 7.61947 23.7854 7.61947 23.4724 7.93261C23.1593 8.24576 23.1593 8.75348 23.4724 9.06651L24.3277 9.92181Z" fill="#F66141"/>
<path d="M24.8946 38.488C24.4518 38.488 24.0928 38.847 24.0928 39.2899V40.1452C24.0928 40.588 24.4518 40.947 24.8946 40.947C25.3374 40.947 25.6964 40.588 25.6964 40.1452V39.2899C25.6964 38.847 25.3375 38.488 24.8946 38.488Z" fill="#F66141"/>
<path d="M36.3018 33.5912L35.4465 34.4465C35.1334 34.7597 35.1334 35.2674 35.4465 35.5804C35.603 35.7369 35.8083 35.8153 36.0135 35.8153C36.2186 35.8153 36.4239 35.737 36.5804 35.5804L37.4357 34.7251C37.7489 34.412 37.7489 33.9043 37.4357 33.5912C37.1227 33.2782 36.615 33.2782 36.3018 33.5912Z" fill="#F66141"/>
<path d="M14.3429 33.5913C14.0297 33.2782 13.522 33.2782 13.209 33.5913C12.8958 33.9044 12.8958 34.4122 13.209 34.7252L14.0643 35.5805C14.2208 35.737 14.4261 35.8154 14.6312 35.8154C14.8364 35.8154 15.0417 35.7371 15.1982 35.5805C15.5113 35.2674 15.5113 34.7596 15.1982 34.4466L14.3429 33.5913Z" fill="#F66141"/>
<path d="M35.4466 13.3429C35.6031 13.4995 35.8084 13.5778 36.0135 13.5778C36.2187 13.5778 36.424 13.4996 36.5805 13.3429C36.8936 13.0298 36.8936 12.5221 36.5805 12.209L35.7252 11.3538C35.4121 11.0406 34.9043 11.0406 34.5913 11.3538C34.2782 11.6669 34.2782 12.1746 34.5913 12.4877L35.4466 13.3429Z" fill="#F66141"/>
<path d="M38.5794 16.9989C38.79 16.9989 38.9974 16.9134 39.1461 16.7637C39.2957 16.6151 39.3813 16.4077 39.3813 16.1971C39.3813 15.9865 39.2957 15.7791 39.1461 15.6305C38.9974 15.4808 38.79 15.3953 38.5794 15.3953C38.3688 15.3953 38.1614 15.4808 38.0128 15.6305C37.8631 15.7791 37.7776 15.9865 37.7776 16.1971C37.7776 16.4077 37.8631 16.6151 38.0128 16.7637C38.1614 16.9134 38.3688 16.9989 38.5794 16.9989Z" fill="#F66141"/>
<path d="M28.6046 21.6175C28.4549 21.7661 28.3694 21.9735 28.3694 22.1842C28.3694 22.3948 28.4549 22.6022 28.6046 22.7508C28.7532 22.9005 28.9606 22.986 29.1712 22.986C29.3818 22.986 29.5892 22.9005 29.7378 22.7508C29.8875 22.6022 29.9731 22.3948 29.9731 22.1842C29.9731 21.9735 29.8875 21.7661 29.7378 21.6175C29.5892 21.4679 29.3818 21.3823 29.1712 21.3823C28.9606 21.3823 28.7532 21.4679 28.6046 21.6175Z" fill="#F66141"/>
<path d="M18.3409 22.4728C18.1912 22.6214 18.1057 22.8277 18.1057 23.0394C18.1057 23.2511 18.1912 23.4574 18.3409 23.606C18.4895 23.7557 18.6969 23.8412 18.9075 23.8412C19.1182 23.8412 19.3256 23.7557 19.4742 23.606C19.6239 23.4574 19.7094 23.25 19.7094 23.0394C19.7094 22.8288 19.6239 22.6214 19.4742 22.4728C19.3256 22.3231 19.1192 22.2375 18.9075 22.2375C18.6959 22.2375 18.4895 22.3231 18.3409 22.4728Z" fill="#F66141"/>
<path d="M14.6312 14.433C14.8418 14.433 15.0492 14.3475 15.1978 14.1978C15.3475 14.0492 15.433 13.8418 15.433 13.6312C15.433 13.4195 15.3475 13.2132 15.1978 13.0646C15.0492 12.9149 14.8418 12.8293 14.6312 12.8293C14.4195 12.8293 14.2132 12.9149 14.0646 13.0646C13.9149 13.2132 13.8293 13.4195 13.8293 13.6312C13.8293 13.8418 13.9149 14.0492 14.0646 14.1978C14.2132 14.3475 14.4206 14.433 14.6312 14.433Z" fill="#F66141"/>
<path d="M27.7491 30.1705C27.5994 30.3191 27.5139 30.5265 27.5139 30.7371C27.5139 30.9478 27.5994 31.1552 27.7491 31.3038C27.8977 31.4534 28.1051 31.539 28.3158 31.539C28.5274 31.539 28.7338 31.4534 28.8824 31.3038C29.0321 31.1552 29.1176 30.9478 29.1176 30.7371C29.1176 30.5265 29.0321 30.3191 28.8824 30.1705C28.7338 30.0208 28.5274 29.9353 28.3158 29.9353C28.1051 29.9353 27.8977 30.0208 27.7491 30.1705Z" fill="#F66141"/>
<path d="M28.3158 40.1987C28.1051 40.1987 27.8977 40.2843 27.7491 40.4339C27.5994 40.5825 27.5139 40.79 27.5139 41.0006C27.5139 41.2123 27.5994 41.4186 27.7491 41.5672C27.8977 41.7169 28.1041 41.8024 28.3158 41.8024C28.5274 41.8024 28.7338 41.7169 28.8824 41.5672C29.0321 41.4186 29.1176 41.2123 29.1176 41.0006C29.1176 40.79 29.0321 40.5825 28.8824 40.4339C28.7338 40.2843 28.5274 40.1987 28.3158 40.1987Z" fill="#F66141"/>
<path d="M12.0653 29.0798C11.8546 29.0798 11.6472 29.1654 11.4986 29.315C11.349 29.4636 11.2634 29.6711 11.2634 29.8817C11.2634 30.0923 11.349 30.2997 11.4986 30.4483C11.6472 30.598 11.8546 30.6835 12.0653 30.6835C12.2759 30.6835 12.4833 30.598 12.6319 30.4483C12.7816 30.2997 12.8671 30.0923 12.8671 29.8817C12.8671 29.6711 12.7816 29.4636 12.6319 29.315C12.4833 29.1654 12.2759 29.0798 12.0653 29.0798Z" fill="#F66141"/>
</g>
<defs>
<clipPath id="clip0_77405_122">
<rect width="50" height="50" fill="white" transform="translate(0.421387)"/>
</clipPath>
</defs>
</svg>
