<svg width="112" height="40" viewBox="0 0 112 40" fill="none" xmlns="http://www.w3.org/2000/svg">
<path d="M39.6 10.3C39.6 10.4 39.6 10.6 39.6 10.8C39.6 11.6 39.3 12.3 38.8 12.8C38.2 13.4 37.5 13.7 36.5 13.7C35.6 13.7 34.9 13.4 34.2 12.8C33.6 12.2 33.3 11.4 33.3 10.5C33.3 9.60005 33.6 8.80005 34.2 8.20005C34.8 7.60005 35.6 7.30005 36.5 7.30005C36.9 7.30005 37.4 7.40005 37.8 7.60005C38.2 7.80005 38.5 8.00005 38.8 8.30005V8.40005L38.2 9.00005L38.1 8.90005C37.7 8.40005 37.2 8.20005 36.5 8.20005C35.9 8.20005 35.4 8.40005 34.9 8.80005C34.5 9.20005 34.2 9.80005 34.2 10.5C34.2 11.2 34.4 11.7 34.9 12.2C35.4 12.6 35.9 12.8 36.5 12.8C37.1 12.8 37.7 12.6 38.1 12.2C38.4 11.9 38.5 11.6 38.6 11.1H36.4V10.2L39.6 10.3ZM40.6 13.6H44.3V12.7H41.6V11H44V10.1H41.5V8.40005H44.2V7.50005H40.5V13.6H40.6ZM44.9 8.40005H46.6V13.6H47.5V8.40005H49.2V7.50005H44.9V8.40005ZM52 13.6H52.9V7.50005H52V13.6ZM53.8 8.40005H55.5V13.6H56.4V8.40005H58V7.50005H53.7V8.40005H53.8ZM65.8 8.30005C66.4 8.90005 66.7 9.70005 66.7 10.6C66.7 11.5 66.4 12.3 65.8 12.9C65.2 13.5 64.4 13.8 63.5 13.8C62.6 13.8 61.8 13.5 61.2 12.9C60.6 12.3 60.3 11.5 60.3 10.6C60.3 9.70005 60.6 8.90005 61.2 8.30005C61.8 7.70005 62.6 7.40005 63.5 7.40005C64.5 7.30005 65.2 7.70005 65.8 8.30005ZM65.2 8.90005C64.8 8.50005 64.2 8.30005 63.6 8.30005C63 8.30005 62.5 8.50005 62 8.90005C61.6 9.30005 61.4 9.90005 61.4 10.6C61.4 11.3 61.6 11.8 62 12.3C62.4 12.7 63 12.9 63.6 12.9C64.2 12.9 64.7 12.7 65.2 12.3C65.6 11.9 65.8 11.3 65.8 10.6C65.8 9.90005 65.6 9.30005 65.2 8.90005ZM71.5 7.50005V11V11.9L68.7 7.40005H67.6V13.5H68.5V9.80005V8.90005L71.4 13.6H72.3V7.50005H71.5ZM62.3 25.7001C62.3 27.9001 60.5 29.6 58.3 29.6C56.1 29.6 54.3 27.9001 54.3 25.7001C54.3 23.4001 56.1 21.8 58.3 21.8C60.5 21.8 62.3 23.5 62.3 25.7001ZM60.6 25.7001C60.6 24.3001 59.6 23.3 58.4 23.3C57.2 23.3 56.2 24.3001 56.2 25.7001C56.2 27.1 57.2 28.1 58.4 28.1C59.5 28.1 60.6 27.1 60.6 25.7001ZM53.6 25.7001C53.6 27.9001 51.8 29.6 49.6 29.6C47.4 29.6 45.6 27.9001 45.6 25.7001C45.6 23.4001 47.4 21.8 49.6 21.8C51.9 21.8 53.6 23.5 53.6 25.7001ZM51.9 25.7001C51.9 24.3001 50.9 23.3 49.7 23.3C48.5 23.3 47.5 24.3001 47.5 25.7001C47.5 27.1 48.5 28.1 49.7 28.1C50.9 28.1 51.9 27.1 51.9 25.7001ZM45 23C45.1 23.3 45.1 23.7001 45.1 24C45.1 25.2001 44.8 26.8 43.6 27.9C42.5 29 41.1 29.6 39.3 29.6C35.9 29.6 33.1 26.9 33.1 23.5C33.1 20.1 35.9 17.4 39.3 17.4C41.2 17.4 42.5 18.1 43.5 19.1L42.3 20.3C41.6 19.6 40.6 19.1 39.3 19.1C36.8 19.1 34.9 21.1 34.9 23.5C34.9 25.9 36.8 27.9 39.3 27.9C40.9 27.9 41.8 27.3001 42.4 26.7001C42.9 26.2001 43.2 25.5 43.3 24.6H39.3V23C39.4 23 45 23 45 23ZM81.7 24.8L76.4 27C76.8 27.8 77.4 28.2001 78.3 28.2001C79.2 28.2001 79.8 27.8001 80.2 27.1L81.5 28C81.1 28.6 80 29.7001 78.2 29.7001C76 29.7001 74.3 28 74.3 25.8C74.3 23.5 76 21.9 78 21.9C80.1 21.9 81.1 23.5 81.4 24.4C81.5 24.3 81.7 24.8 81.7 24.8ZM79.6 24.2001C79.4 23.7001 78.8 23.4 78.1 23.4C77.2 23.4 76 24.2001 76 25.7001C76.1 25.6 79.6 24.2001 79.6 24.2001ZM71.8 17.9H73.5V29.4H71.8V17.9ZM69 22.1H70.6V29.1C70.6 32 68.9 33.2001 66.8 33.2001C64.9 33.2001 63.7 31.9 63.3 30.9L64.8 30.3C65.1 30.9 65.7 31.7001 66.8 31.7001C68.1 31.7001 68.9 30.9 68.9 29.4V28.8H68.8C68.4 29.3 67.7 29.7001 66.7 29.7001C64.7 29.7001 62.9 28 62.9 25.8C62.9 23.6 64.7 21.9 66.7 21.9C67.6 21.9 68.4 22.3 68.8 22.8H69V22.1ZM69.1 25.8C69.1 24.4 68.2 23.4 67 23.4C65.8 23.4 64.8 24.4 64.8 25.8C64.8 27.2 65.8 28.2001 67 28.2001C68.2 28.1 69.1 27.1 69.1 25.8ZM93.5 21.5C93.5 23.7 91.6 25.1 89.7 25.1H87.3V29.5H85.6V17.9H89.8C91.6 17.9 93.5 19.3 93.5 21.5ZM91.7 21.5C91.7 20.6 91 19.5 89.7 19.5H87.2V23.4H89.7C91 23.5 91.7 22.4 91.7 21.5ZM103.9 25V29.4H102.2V28.5H102.1C101.7 29.1 101.1 29.6 99.9 29.6C98.4 29.6 97 28.6 97 27.1C97 25.4 98.7 24.5 100.3 24.5C101.1 24.5 101.8 24.8 102.1 24.9V24.8C102.1 23.9 101.2 23.3 100.3 23.3C99.7 23.3 99 23.5 98.7 24.1L97.2 23.5C97.7 22.3 99 21.7 100.3 21.7C102.4 21.8 103.9 22.9 103.9 25ZM102.3 26.3C101.8 26.1 101.5 25.9 100.7 25.9C99.8 25.9 98.9 26.2001 98.9 27.1C98.9 27.8001 99.7 28.1 100.3 28.1C101.2 28.1 102.1 27.3 102.3 26.3ZM112 22.1L107.2 32.9H105.4L107.2 29L104.1 22H106L108.1 27H108.2L110.2 22C110 22.1 112 22.1 112 22.1ZM94.4 17.9H96.1V29.4H94.4V17.9ZM2.2 8.40005C2.1 8.70005 2 9.00005 2 9.50005V31.4C2 31.9 2.1 32.2001 2.3 32.5L14 20.4L2.2 8.40005ZM14.7 19.7L18.4 15.9L4.5 8.00005C4 7.70005 3.5 7.60005 3 7.80005L14.7 19.7ZM24.1 19L19.4 16.3L15.5 20.3L19.5 24.4L24.1 21.8C25.5 21.1 25.5 19.8 24.1 19ZM14.7 21.1L3 33.1C3.4 33.2001 3.9 33.1 4.5 32.8L18.5 24.9L14.7 21.1Z" fill="white"/>
</svg>
