<svg width="100" height="100" viewBox="0 0 100 100" fill="none" xmlns="http://www.w3.org/2000/svg">
<path fill-rule="evenodd" clip-rule="evenodd" d="M43.7622 16L44.9378 23.0535L44.546 23.4453L40.2355 22.2697L41.803 24.6209C35.2969 25.4712 28.8602 26.6331 23.3856 30.5266C9.90329 40.1146 12.1149 63.094 22.6254 73.9912C30.8278 82.4953 42.5557 85.2321 53.9506 84.1067C65.5386 82.9617 77.1259 75.7205 82.5896 65.3742C89.5639 52.1666 85.8005 30.8824 71.5842 23.7733C65.7875 20.8743 59.7705 21.5526 53.5587 21.8779L53.9506 18.743L50.032 22.2697L49.2483 18.3512H48.8564L46.8971 22.2697L43.7622 16ZM34.4858 28.5877L37.8844 27.3639C39.1677 25.7252 41.4397 25.8298 43.381 25.8031C48.586 25.7322 56.339 29.9905 56.3017 35.9848C59.2748 37.7172 58.261 42.396 58.261 45.3894C63.5586 41.7005 70.2323 43.4121 73.928 48.9205C77.5417 54.3066 78.2788 66.1525 74.4342 71.6397C70.2668 77.5889 61.6925 76.0782 57.2826 71.1961C53.3706 66.8656 52.4125 58.5978 54.3424 53.2266L57.4773 54.4022L53.9506 52.051L47.7906 58.588L47.6808 66.1579V66.5498C49.8694 68.428 48.925 72.2224 49.4015 74.7788C49.5806 75.7397 50.4188 77.0971 49.9039 78.0532C49.2604 79.2472 44.9127 81.6858 43.7622 81.0486H43.3704C42.6666 83.5502 40.4369 81.4197 39.0599 80.5317C35.3381 78.1308 34.0496 77.1073 32.7973 72.8195C31.7353 69.1827 32.0182 65.1724 31.4532 61.4556C29.9363 51.4762 28.0879 40.9743 28.0879 30.8906L34.3318 28.6429L34.3576 28.5395L34.4858 28.5877L34.3318 28.6429L33.9658 30.1069C36.5399 32.6387 41.8367 33.8217 37.4925 29.7151L42.5867 31.2825L42.9785 31.6744L39.8437 33.2418L36.7088 35.9848L40.1352 64.9824L42.9785 80.6567C50.7032 77.2256 46.7706 72.3481 47.6808 65.7661C46.0366 64.5502 45.4359 59.3459 46.4394 57.5382C48.0472 54.6424 51.6653 52.9041 53.8491 50.4605C57.8684 45.9627 56.9463 41.3932 56.3017 35.9848C52.8561 33.1023 50.8949 31.9067 46.5053 30.8906L42.9785 31.6744C42.8206 30.0623 42.1106 29.4976 40.6274 28.9313L41.4111 28.1476L36.7088 28.5395L37.4925 29.7151L34.4858 28.5877ZM58.6529 45.3894L58.261 47.3487L60.6122 47.7406C60.147 50.1415 58.7011 52.2454 58.1443 54.662C57.1254 59.0822 58.3954 64.8727 60.3124 68.901C63.2075 74.9854 70.9479 77.0285 74.2838 70.0762C76.6886 65.0647 76.285 55.4073 73.8997 50.4836C72.3401 47.2637 68.1668 44.7793 64.5414 45.8961C63.1812 46.315 62.1346 47.3158 61.004 48.1324L58.6529 45.3894ZM66.1025 51.4758C68.7785 50.7516 70.5392 52.995 71.4412 55.1859C72.9671 58.8905 74.0816 68.2066 68.4482 69.3814C66.0375 69.8837 64.2075 67.7407 63.3556 65.7657C61.7819 62.1167 60.9347 52.8743 66.1025 51.4758ZM68.4494 64.1987L66.0982 68.1172H69.6249L68.8412 66.5498L70.4087 66.9417L70.8005 64.9824L68.4494 64.1987ZM64.1389 53.2266C63.7576 58.6562 62.827 61.8937 64.9226 67.3335C69.9047 65.493 66.791 56.6354 65.3145 53.2266H64.1389ZM68.4494 66.2884L68.5799 66.4193C68.3867 66.4836 68.1465 66.2884 68.4494 66.2884ZM56.3017 48.1324V49.6999L57.4773 50.0917V50.4836L55.9099 50.0917L56.6936 51.6592L55.518 51.2673L57.8692 53.2266L57.0855 51.6592L58.261 52.051L57.4773 50.4836L59.4366 50.0917V48.5243L56.3017 48.1324ZM43.3704 51.6592L42.9785 41.8627C41.4785 40.9986 42.4401 36.9633 43.3704 38.336C46.7682 35.7054 50.679 39.4034 50.746 43.0383C50.8196 47.0568 46.961 50.5298 43.3704 51.6592ZM44.9378 44.2138L45.7215 46.565L44.546 45.7813C44.4182 47.549 44.7736 48.5286 46.1134 49.6999L46.5053 48.1324V47.7406L45.7215 46.565L48.4646 47.7406V46.1731L44.9378 44.2138ZM60.6122 44.6057L60.2203 45.7813L62.5715 46.1731V44.9976L60.6122 44.6057ZM62.1796 44.2138L65.3145 44.9976C64.4309 43.7001 63.6158 43.7373 62.1796 44.2138ZM43.7622 38.7278V42.2546H44.1541L43.7622 38.7278ZM32.0065 30.4988C32.6464 32.8829 34.4309 35.4711 37.1006 34.4174V34.0255L33.1821 30.4988H32.0065ZM41.803 26.1883C42.1153 27.5207 42.7062 28.5638 43.5608 29.2911C44.4151 30.0184 45.5323 30.4298 46.8971 30.4988L41.803 26.1883ZM45.3297 26.1883L45.7215 28.1476L50.8157 30.1069L45.3297 26.1883Z" fill="#F66141"/>
</svg>
