<svg width="120" height="120" viewBox="0 0 120 120" fill="none" xmlns="http://www.w3.org/2000/svg">
<g clip-path="url(#clip0_77393_5161)">
<path fill-rule="evenodd" clip-rule="evenodd" d="M95.6034 59.3547H65.6033V95.3546H95.6034V59.3547ZM57.6033 59.3547H27.6033V95.3546H57.6033V59.3547ZM57.2843 35.3548H20.6033V55.9277H57.2843V35.3548ZM102.284 35.3548H65.6033V55.9277H102.284V35.3548ZM59.1863 32.6418H63.7084C63.7874 32.6648 63.8674 32.6798 63.9494 32.6888C63.9494 32.6888 69.5554 33.2868 74.1314 32.0438C77.6564 31.0868 80.5114 29.0378 80.7064 25.3408C81.0184 19.4078 78.4024 15.1478 75.7854 13.2588C74.4214 12.2738 73.0133 11.9028 71.8733 12.0658C70.8643 12.2098 69.2424 13.2408 67.5404 14.8688C65.4414 16.8768 63.1053 19.7488 61.4473 22.2348C59.7893 19.7488 57.4523 16.8768 55.3533 14.8688C53.6523 13.2408 52.0303 12.2098 51.0203 12.0658C49.8813 11.9028 48.4733 12.2738 47.1093 13.2588C44.4923 15.1478 41.8763 19.4078 42.1883 25.3408C42.3833 29.0378 45.2383 31.0868 48.7633 32.0438C53.3393 33.2868 58.9453 32.6888 58.9453 32.6888C59.0273 32.6798 59.1073 32.6648 59.1863 32.6418ZM59.1823 27.0088C59.2063 26.7818 59.2473 26.5488 59.3073 26.3078C59.3993 25.9398 59.5783 25.4898 59.8263 24.9798C58.3913 22.5528 55.6683 19.1898 53.3463 16.9678C52.5833 16.2378 51.8653 15.6338 51.2473 15.2488C50.9983 15.0938 50.7913 14.9668 50.6103 14.9408C49.8343 14.8298 48.9003 15.4028 48.0003 16.3108C46.2753 18.0538 44.8763 21.1508 45.0893 25.1888C45.2133 27.5538 47.2683 28.6288 49.5243 29.2408C52.5003 30.0488 55.9643 29.9788 57.6333 29.8798L59.1823 27.0088ZM65.2543 29.8788C66.9203 29.9778 70.3894 30.0498 73.3704 29.2408C75.6264 28.6288 77.6814 27.5538 77.8054 25.1888C78.0184 21.1508 76.6194 18.0538 74.8944 16.3108C73.9944 15.4028 73.0604 14.8298 72.2844 14.9408C72.1034 14.9668 71.8954 15.0938 71.6474 15.2488C71.0294 15.6338 70.3114 16.2378 69.5484 16.9678C67.2254 19.1898 64.5033 22.5528 63.0683 24.9798C63.3163 25.4898 63.4944 25.9398 63.5874 26.3078C63.6484 26.5538 63.6904 26.7928 63.7134 27.0248L65.2543 29.8788Z" fill="black"/>
</g>
<defs>
<clipPath id="clip0_77393_5161">
<rect width="120" height="120" fill="white"/>
</clipPath>
</defs>
</svg>
