<svg width="51" height="50" viewBox="0 0 51 50" fill="none" xmlns="http://www.w3.org/2000/svg">
<path d="M44.5916 22.1068C43.9639 21.8895 43.3075 21.766 42.6437 21.7403C42.5118 21.73 42.3505 21.7183 42.22 21.7022C42.2852 21.6156 42.3615 21.5203 42.4252 21.4397C42.9758 20.8261 43.3726 20.0903 43.5828 19.2932C44.008 17.4362 44.1026 13.9415 41.7603 12.622C41.2466 12.3464 40.682 12.179 40.1011 12.1299C39.5203 12.0809 38.9355 12.1513 38.3829 12.3368C36.9025 12.7813 35.6502 13.7789 34.886 15.1226C34.0518 16.7354 34.499 18.3753 34.8589 19.6927C35.0788 20.5079 35.2914 21.2777 35.0282 21.5255C34.7225 21.8187 33.8106 21.5731 32.9279 21.3319C32.6515 21.2586 32.3678 21.1853 32.0834 21.112C31.6183 20.0843 30.867 19.2124 29.9194 18.6005C28.9717 17.9887 27.8678 17.6629 26.7398 17.662C26.7193 17.662 26.7002 17.662 26.6797 17.662C26.6086 17.1044 26.4687 16.5578 26.2633 16.0345C24.8015 12.3228 20.6968 10.4461 18.0042 11.2459C17.2335 11.4864 16.5439 11.9343 16.0109 12.5406C15.411 11.6813 14.6341 10.9604 13.7324 10.4263C12.7086 9.88373 11.5839 9.55811 10.4286 9.46982C9.27332 9.38152 8.11223 9.53244 7.01789 9.91314C6.40738 10.0799 5.8397 10.3756 5.35308 10.7803C4.86647 11.185 4.47223 11.6892 4.19691 12.2591C3.51293 13.9907 4.78339 15.9561 7.09266 19.5241C7.33899 19.9053 7.59631 20.2785 7.85143 20.6538C7.24293 20.8792 6.65171 21.1487 6.08245 21.4602C5.29821 21.8385 4.66532 22.4714 4.28708 23.2556C4.05454 24.0573 3.96204 24.893 4.01364 25.7262C4.02004 31.3627 6.26198 36.7665 10.2476 40.7521C14.2332 44.7378 19.6371 46.9797 25.2736 46.9861H26.7398C32.3763 46.9797 37.7802 44.7378 41.7658 40.7521C45.7514 36.7665 47.9934 31.3627 47.9998 25.7262C47.9879 25.6127 47.9613 25.5013 47.9206 25.3948C47.27 23.9149 46.0794 22.7389 44.5916 22.1068ZM32.5474 22.7549C33.8238 23.1009 35.1419 23.4587 36.0443 22.5899C36.935 21.7366 36.5986 20.5035 36.2731 19.3108C35.9476 18.118 35.6169 16.904 36.188 15.7999C36.7692 14.8101 37.7034 14.0767 38.803 13.7473C39.1677 13.6221 39.5539 13.5716 39.9385 13.5988C40.3232 13.626 40.6984 13.7303 41.0419 13.9056C42.5176 14.7369 42.5154 17.3886 42.1533 18.9684C41.9879 19.5469 41.6894 20.0787 41.2816 20.5211C40.8799 21.0233 40.3799 21.6472 40.7457 22.3876C41.0991 23.0936 41.8622 23.1508 42.5352 23.2006C43.0592 23.2178 43.5779 23.3116 44.0747 23.4792C44.8363 23.79 45.4908 24.316 45.9581 24.993H38.6161C38.7847 24.0671 38.9701 23.1405 39.1842 22.2285C39.5837 20.5255 40.0705 18.8211 40.6306 17.1635L39.2421 16.6943C38.6666 18.3959 38.1667 20.145 37.7561 21.8928C37.5164 22.9154 37.3097 23.955 37.1264 24.993H32.4125C32.6099 24.264 32.6558 23.5023 32.5474 22.7549ZM27.4729 20.5944V19.1942C28.2908 19.3338 29.0527 19.7016 29.6708 20.2551C30.2889 20.8086 30.7382 21.5255 30.9669 22.3231L29.4405 22.8319L29.9039 24.2248L31.123 23.8186C31.0992 24.2193 31.019 24.6147 30.8848 24.993H22.5948C22.426 24.5227 22.3402 24.0266 22.3412 23.5268C22.3414 23.3799 22.349 23.2331 22.3639 23.087L23.5757 23.4909L24.0391 22.098L22.7576 21.6706C23.059 21.0262 23.512 20.4643 24.0778 20.0331C24.6436 19.6018 25.3054 19.314 26.0067 19.1942V20.5944H27.4729ZM18.4228 12.6542C20.4212 12.0589 23.7568 13.6754 24.8997 16.5756C25.0628 16.9905 25.1734 17.4242 25.2289 17.8666C23.7367 18.2581 22.4602 19.2246 21.6788 20.5548C20.8974 21.8849 20.6745 23.4704 21.059 24.9645L20.9981 24.993H17.6171C17.9308 24.6668 18.238 24.3333 18.5173 23.9814C20.2497 21.7538 21.3194 19.0833 21.6037 16.2757L20.1463 16.1159C19.8877 18.6486 18.9252 21.0584 17.3678 23.0723C17.3268 23.1244 17.2769 23.1698 17.2351 23.2189C18.3117 20.1668 18.1587 16.8155 16.8085 13.8741C17.1997 13.3029 17.7664 12.8746 18.4228 12.6542ZM5.56121 12.8008C5.76472 12.4316 6.0419 12.108 6.37557 11.8502C6.70924 11.5925 7.0923 11.406 7.501 11.3024C8.39679 10.9936 9.34588 10.8697 10.2909 10.9381C11.236 11.0065 12.1573 11.2659 12.9993 11.7004C16.5064 13.7253 17.3084 19.56 15.6582 23.2277C15.6003 23.3568 15.5321 23.4755 15.4662 23.5943C15.3247 22.9968 15.1656 22.4052 14.972 21.8282C13.7742 18.317 11.683 15.1781 8.90416 12.7202L7.92034 13.8066C10.5118 16.0964 12.463 19.021 13.5821 22.293C13.8748 23.1751 14.1019 24.0775 14.2617 24.993H12.9941C11.2992 23.012 9.73889 20.9197 8.32354 18.7302C6.2408 15.5096 5.17194 13.7839 5.56121 12.7994V12.8008ZM5.62646 23.8472C5.8693 23.3557 6.27836 22.9661 6.7811 22.7476C7.40015 22.4078 8.04865 22.1246 8.71869 21.9016C9.47965 22.9616 10.2702 23.9921 11.0903 24.993H5.51869C5.44152 24.6088 5.479 24.2103 5.62646 23.8472ZM26.7398 45.5199H25.2736C20.1526 45.5142 15.2326 43.5262 11.545 39.9729C7.85741 36.4195 5.68854 31.5765 5.49304 26.4593H46.5204C46.3249 31.5765 44.156 36.4195 40.4684 39.9729C36.7808 43.5262 31.8608 45.5142 26.7398 45.5199Z" fill="#F66141"/>
<path d="M27.473 22.0605H26.0068V23.5268H27.473V22.0605Z" fill="#F66141"/>
<path d="M27.4734 11.7971V13.2633C27.4734 13.4578 27.5506 13.6442 27.6881 13.7817C27.8256 13.9192 28.0121 13.9964 28.2065 13.9964H31.1389C32.8882 13.9945 34.5653 13.2987 35.8022 12.0618C37.0391 10.8249 37.7349 9.14781 37.7368 7.39852V5.93232C37.7368 5.73789 37.6596 5.55142 37.5221 5.41394C37.3846 5.27646 37.1981 5.19922 37.0037 5.19922H34.0713C32.322 5.20116 30.6449 5.89692 29.408 7.13385C28.1711 8.37078 27.4753 10.0479 27.4734 11.7971ZM34.0713 6.66542H36.2706V7.39852C36.2691 8.75906 35.7279 10.0634 34.7659 11.0255C33.8038 11.9875 32.4994 12.5287 31.1389 12.5302H30.1859L33.8133 9.42115L32.8602 8.3083L28.9455 11.6637C28.9802 10.327 29.5354 9.05659 30.4928 8.12304C31.4501 7.18948 32.7341 6.6665 34.0713 6.66542Z" fill="#F66141"/>
<path d="M20.8762 7.39853C20.8762 7.83351 21.0052 8.25872 21.2469 8.62039C21.4885 8.98207 21.832 9.26396 22.2339 9.43042C22.6358 9.59688 23.078 9.64043 23.5046 9.55557C23.9312 9.47071 24.3231 9.26125 24.6307 8.95367C24.9383 8.64609 25.1477 8.25421 25.2326 7.82759C25.3174 7.40096 25.2739 6.95876 25.1074 6.55689C24.941 6.15502 24.6591 5.81153 24.2974 5.56987C23.9357 5.32821 23.5105 5.19922 23.0755 5.19922C22.4922 5.19922 21.9328 5.43093 21.5204 5.84338C21.1079 6.25583 20.8762 6.81523 20.8762 7.39853ZM23.8086 7.39853C23.8086 7.54352 23.7656 7.68526 23.6851 7.80582C23.6045 7.92637 23.49 8.02034 23.3561 8.07582C23.2221 8.13131 23.0747 8.14583 22.9325 8.11754C22.7903 8.08925 22.6597 8.01943 22.5571 7.91691C22.4546 7.81438 22.3848 7.68375 22.3565 7.54155C22.3282 7.39934 22.3427 7.25194 22.3982 7.11798C22.4537 6.98402 22.5477 6.86953 22.6682 6.78897C22.7888 6.70842 22.9305 6.66542 23.0755 6.66542C23.27 6.66542 23.4564 6.74266 23.5939 6.88014C23.7314 7.01763 23.8086 7.20409 23.8086 7.39853Z" fill="#F66141"/>
<path d="M11.3438 5.19931C11.3438 5.63429 11.4727 6.0595 11.7144 6.42118C11.9561 6.78285 12.2995 7.06474 12.7014 7.2312C13.1033 7.39766 13.5455 7.44121 13.9721 7.35635C14.3987 7.27149 14.7906 7.06203 15.0982 6.75445C15.4058 6.44687 15.6152 6.05499 15.7001 5.62837C15.785 5.20175 15.7414 4.75954 15.575 4.35767C15.4085 3.9558 15.1266 3.61231 14.7649 3.37065C14.4033 3.12899 13.978 3 13.5431 3C12.9598 3 12.4004 3.23171 11.9879 3.64416C11.5755 4.05661 11.3438 4.61601 11.3438 5.19931ZM14.2762 5.19931C14.2762 5.3443 14.2332 5.48604 14.1526 5.6066C14.0721 5.72715 13.9576 5.82112 13.8236 5.8766C13.6896 5.93209 13.5422 5.94661 13.4 5.91832C13.2578 5.89003 13.1272 5.82021 13.0247 5.71769C12.9221 5.61516 12.8523 5.48453 12.824 5.34233C12.7958 5.20012 12.8103 5.05272 12.8658 4.91876C12.9212 4.7848 13.0152 4.67031 13.1358 4.58975C13.2563 4.5092 13.3981 4.4662 13.5431 4.4662C13.7375 4.4662 13.924 4.54344 14.0614 4.68092C14.1989 4.81841 14.2762 5.00488 14.2762 5.19931Z" fill="#F66141"/>
<path d="M10.5046 33.4097L9.25098 34.1706C11.2469 37.4637 14.1551 40.1072 17.623 41.781L18.2608 40.4614C15.0481 38.91 12.354 36.4606 10.5046 33.4097Z" fill="#F66141"/>
<path d="M20.8764 41.1213H19.4102V42.5875H20.8764V41.1213Z" fill="#F66141"/>
</svg>
