<svg width="100" height="100" viewBox="0 0 100 100" fill="none" xmlns="http://www.w3.org/2000/svg">
<path fill-rule="evenodd" clip-rule="evenodd" d="M45.0118 39.7588C45.0118 39.7588 42.0193 46.5174 42.253 49.9054C42.4867 53.2934 47.7444 53.9045 48.3286 55.9941C48.9122 58.0837 48.2118 65.7952 48.4455 68.7158C48.6785 71.6364 46.5759 75.9592 46.2253 79.1142C45.8747 82.2685 45.8747 85.4228 46.6927 87.1756C47.5107 88.9284 48.4455 89.1621 50.3144 89.5119C52.1841 89.8625 53.7024 87.8767 54.2867 86.8251C54.8709 85.7734 54.3977 80.3793 54.2867 77.8289C54.225 76.4092 52.1572 71.3555 52.0345 69.0918C51.9583 67.6866 51.422 56.8905 52.1841 55.9941C52.8888 55.1652 57.9773 52.0451 58.0252 50.0281C58.0644 48.4016 56.4677 40.714 56.1367 39.3509C61.2209 36.8107 65.0996 31.1771 64.6851 25.9542C64.1009 18.594 56.7406 17.5423 54.5204 17.5423L60.4792 15.3228L52.3009 15.9071L49.1459 11V15.9071L40.8508 15.5565L45.3217 16.9537C45.3217 16.9537 35.1257 17.8929 36.0606 27.0059C36.8001 34.2167 39.8804 38.0619 45.0118 39.7588ZM46.663 40.2168C46.7667 42.2113 46.9264 45.4171 46.9264 46.2837C46.9264 47.5691 49.3796 46.4006 49.3796 46.4006L49.4638 40.6719C48.4803 40.5681 47.5462 40.4179 46.663 40.2168ZM54.053 40.1921C53.1639 40.4672 52.253 40.6443 51.3349 40.7067C51.3109 42.781 51.2935 45.6319 51.3661 46.2837C51.4829 47.3354 54.053 46.6343 54.053 46.6343V40.1921ZM42.208 24.1935C42.3634 25.5899 44.5451 26.2496 46.0402 26.3433C47.5361 26.4369 49.405 25.5957 49.5923 24.5673C49.7788 23.5395 45.6664 23.0721 44.5451 22.9785C43.423 22.8849 42.1144 23.3523 42.208 24.1935Z" fill="#F66141"/>
</svg>
