<svg width="100" height="100" viewBox="0 0 100 100" fill="none" xmlns="http://www.w3.org/2000/svg">
<path fill-rule="evenodd" clip-rule="evenodd" d="M42.3531 35.0036C38.4216 35.0931 35.6676 37.772 34.3766 39.3586C34.3766 39.3586 34.32 39.4262 34.2747 39.4825C34.2209 39.4666 34.1679 39.4478 34.1161 39.4262C31.4194 38.4584 28.3717 38.2783 25.3011 38.8973C22.3447 39.504 18.1063 41.0241 15.0235 43.4887C9.61986 47.8211 6.77587 53.0428 7.01381 58.1967C7.1498 61.1799 8.53211 63.7559 11.0022 65.6464C15.0584 68.7637 21.7546 68.0432 24.4517 67.5932C27.4655 67.0869 74.6339 58.6917 80.8319 57.5102C86.463 56.4411 91.8222 54.5393 92.8991 47.9337C92.9667 47.5434 93.0008 47.1481 93.001 46.7521V46.7063C93.001 45.0868 92.4903 43.5778 91.6075 42.5539C89.9532 40.6521 87.1771 40.4271 85.2397 40.4158C82.543 40.4045 53.6052 40.9559 50.3196 41.0235H50.1045C50.093 40.9223 50.0817 40.8208 50.0817 40.8208C49.9211 39.5431 49.3802 38.3432 48.5293 37.3774C47.5312 36.2527 45.6505 34.9248 42.3531 35.0036ZM42.3187 44.5912C43.9613 44.5236 45.5703 43.7923 45.695 42.093C45.7856 40.9564 44.902 39.7861 43.1004 39.6851C42.1908 39.6043 41.2814 39.8429 40.5284 40.3602C40.0257 40.7361 39.6724 41.2784 39.5315 41.8905C39.3502 42.6221 39.4409 43.2296 39.792 43.7018C40.2681 44.3208 41.1743 44.6359 42.3187 44.5912ZM88.2302 48.485C88.661 48.4174 89.1481 47.8772 89.3861 47.3597C89.4476 47.4374 89.4815 47.5179 89.5096 47.5848C89.5385 47.6536 89.5614 47.708 89.6021 47.7304C89.3752 48.5975 88.4916 49.3397 87.8456 49.4072L87.7437 49.4185L87.6986 49.5197C87.0752 50.9828 85.9536 51.8718 84.3106 52.1194C83.6562 52.2222 82.9874 52.0659 82.446 51.6837C81.9047 51.3014 81.5332 50.7231 81.4102 50.0714L81.3536 49.8012C80.1865 52.3444 78.8152 52.8846 77.7843 53.0307C77.3538 53.0983 75.8921 53.1096 76.0508 51.3878C76.1559 50.4084 76.3493 49.4404 76.6287 48.4958C76.8333 47.8991 76.9627 47.2791 77.0139 46.6503C77.0336 46.4144 76.9603 46.1801 76.8098 45.9976C76.7655 45.9527 76.7123 45.9175 76.6537 45.8942C76.5951 45.8709 76.5323 45.8602 76.4692 45.8625C75.8348 45.9075 75.2798 47.5391 75.0757 48.3944C75.0757 48.3944 73.9085 53.3461 73.8519 53.5937C73.7399 53.6055 72.965 53.733 72.1901 53.8605C71.476 53.9781 70.7617 54.0956 70.5661 54.1226L71.5751 50.0379L71.3599 50.1843C71.1163 50.3498 70.8539 50.4857 70.5782 50.5892L70.4761 50.6229L70.4537 50.7354C69.9321 53.2786 68.2214 54.7414 65.3776 55.1578C63.1795 55.484 61.7179 54.7414 61.3893 52.9071L61.3101 52.4458L61.1739 52.6934L61.0719 52.8735C60.3685 54.1002 58.8732 56.2147 56.7737 56.5211C56.0148 56.6336 55.3686 56.4648 54.9155 56.0485C54.4284 55.5984 54.1904 54.8669 54.2132 53.9442C54.2464 52.7072 54.6518 51.5351 55.0089 50.5026L55.029 50.4447L55.1424 50.1072C55.1424 50.1031 55.225 49.8157 55.3355 49.4312C55.5286 48.7593 55.8069 47.791 55.8788 47.519C55.9922 47.0801 55.6864 46.5062 55.0858 46.7539C54.8536 46.8758 54.6756 47.0806 54.5871 47.3277C54.4711 47.5279 54.3842 47.9944 54.2525 48.7009C54.2437 48.7484 54.2346 48.7971 54.2253 48.8468C54.2177 48.8875 54.2099 48.929 54.2019 48.9713C53.8806 50.6843 53.3146 53.7011 52.2201 55.2607C50.7931 57.2976 49.173 57.7252 48.5382 57.8152C46.9977 58.0402 45.638 57.6351 44.8563 56.9598C43.1452 58.2876 40.6979 59.0753 39.3043 59.2554C35.9619 59.6829 35.2255 57.5673 35.7693 55.5869C35.7786 55.5464 35.7824 55.5047 35.7805 55.4631C33.4803 58.1638 30.3645 60.7406 26.5575 61.4495C22.2859 62.2484 19.8499 61.5966 17.8898 59.8067C16.4734 58.5239 15.6238 55.6881 16.2695 53.3476C18.1958 46.4042 24.9034 43.2646 29.3336 43.1408C32.1897 43.0611 33.4701 43.6236 34.5691 44.7602C35.2491 45.4692 35.5777 46.4257 35.5437 47.596C35.4756 49.7573 33.8894 51.2088 31.9405 51.3889C31.0681 51.4675 30.2977 51.2312 29.7765 50.7249C29.244 50.2073 28.972 49.4196 29.0061 48.4406C29.051 46.9216 30.3199 45.695 31.1131 45.2787C31.4132 45.1083 31.7279 44.9652 32.0535 44.851C32.3598 44.3558 27.4199 42.8929 24.3492 49.3746C23.7657 50.5445 23.3651 51.7971 23.1614 53.0887C22.6515 55.7893 23.4107 57.7141 24.7251 58.5239C25.6881 59.1203 27.2177 59.2102 29.1665 58.7039C32.8376 57.7587 36.3954 53.1234 37.6191 49.7354C38.2091 48.095 38.7889 46.3234 38.9836 45.7285C38.9945 45.695 39.0043 45.6652 39.0127 45.6394C39.1116 45.6345 39.997 45.6045 41.0307 45.5694C42.4846 45.5201 44.2318 45.4608 44.4966 45.4476C44.3493 45.9203 41.7435 53.6059 41.7435 53.6059C41.6641 53.8422 41.0976 55.654 41.5168 56.2166C41.64 56.344 41.7912 56.4409 41.9584 56.4995C42.1256 56.5581 42.3042 56.5768 42.4799 56.5541C43.0599 56.4798 43.4386 56.252 43.8406 56.0101C43.9254 55.9591 44.0112 55.9074 44.1001 55.8565C43.6898 55.2289 43.5357 54.4676 43.6696 53.7297C43.9526 52.2436 45.5614 51.074 47.0344 52.0305C47.7709 52.5144 48.0881 53.5272 47.3857 54.6862C47.0271 55.2452 46.561 55.7272 46.0145 56.1041C46.356 56.2692 46.7425 56.3167 47.1137 56.2392C49.006 56.0029 49.6413 54.1462 50.0031 51.4343L50.0258 51.3444C50.2861 49.0938 50.7509 46.8095 52.4503 45.2904C54.0593 43.8499 56.2008 45.2002 56.2914 46.213L56.6428 44.9752C56.6428 44.9752 60.2345 44.9077 60.6537 44.8964C60.5175 45.3464 58.6481 52.1319 58.6481 52.1319L58.5802 52.7499V52.7612C58.5766 52.8395 58.5889 52.9177 58.6161 52.9911C58.6433 53.0646 58.685 53.1318 58.7387 53.1888C58.7861 53.2387 58.845 53.2761 58.9103 53.2977C58.9756 53.3193 59.0451 53.3244 59.1129 53.3126C59.8607 53.2338 60.8238 51.681 61.3788 50.2519C61.3851 50.2456 61.3879 50.2358 61.3911 50.2245C61.3937 50.2155 61.3965 50.2056 61.4016 50.1956L61.4129 50.1843V50.1607C61.4903 49.7545 61.5887 49.3525 61.7076 48.9565L61.8211 48.5627C61.8211 48.5627 62.5447 45.5469 62.715 44.8493C62.9529 44.838 66.2387 44.7142 66.2387 44.7142C66.2387 44.7142 64.4148 52.2986 64.392 53.2102C64.375 53.3735 64.3914 53.5387 64.4402 53.6955C64.489 53.8524 64.5692 53.9976 64.6759 54.1224C64.7337 54.1786 64.8035 54.2209 64.88 54.2463C64.9565 54.2716 65.0377 54.2793 65.1175 54.2688C66.2168 54.1226 67.0098 53.1437 67.3156 51.2868L67.3612 51.0056L67.1004 51.0844C64.8349 51.7482 64.721 47.0784 68.5168 46.7632C69.9902 46.639 70.3756 48.1357 70.4322 48.5745C70.4788 48.7705 70.5092 48.9701 70.5229 49.1711L70.5457 49.3737L70.7372 49.3288C71.1337 49.2276 71.5977 48.8562 71.9382 48.4061L72.9125 44.5013C73.0816 44.5013 74.3419 44.4575 75.1168 44.4306C75.3804 44.4215 75.5879 44.4143 75.6771 44.4114C75.6205 44.6703 75.4164 45.6156 75.4164 45.6156L75.8589 45.1203C76.4116 44.6287 77.1059 44.3254 77.8418 44.2539C79.0768 44.1632 80.2667 44.5459 80.0854 46.47C79.9966 47.2685 79.845 48.0586 79.6318 48.8331C79.4939 49.2768 79.3992 49.7328 79.3488 50.1948C79.3441 50.2662 79.3538 50.3378 79.3772 50.4054C79.4006 50.4731 79.4372 50.5353 79.485 50.5886C79.5209 50.6227 79.5639 50.6485 79.6109 50.664C79.658 50.6795 79.7078 50.6845 79.757 50.6785C80.2554 50.6222 80.9465 49.238 81.3206 48.2591C81.3288 48.2415 81.3326 48.2222 81.3319 48.2028L81.3432 48.1915V48.1803C81.6833 45.3564 83.8926 44.0511 85.4107 43.9611C87.8795 43.8269 88.2541 45.4692 88.22 47.0445C88.2089 47.3822 88.0387 48.5299 88.0387 48.5299L88.2302 48.485ZM46.3644 53.8976C46.693 53.1784 46.455 52.8174 45.8659 52.7948C45.1291 52.761 44.404 54.0663 45.1406 55.2253C45.741 54.7753 46.2058 54.2464 46.3644 53.8976ZM66.9744 50.0266C67.3477 49.9591 67.5748 49.8577 67.6883 49.7002C67.6883 49.7002 67.8128 49.0814 67.5523 48.7777C67.4839 48.7329 67.4048 48.7071 67.3232 48.7032C67.2415 48.6992 67.1603 48.7171 67.0879 48.7552C66.7706 48.9013 66.3966 49.4528 66.4758 49.7903C66.4873 49.8803 66.5892 50.0942 66.9744 50.0266ZM84.5817 51.0844C85.2162 51.0056 85.5337 50.2404 85.7717 49.5314L85.8285 49.3175C85.5795 49.1639 85.3766 48.9459 85.241 48.6864C85.1055 48.427 85.0423 48.1357 85.0583 47.8434C85.183 46.1779 86.3046 46.1329 86.3046 46.1329L86.3161 46.0654C86.3725 45.5028 86.2818 45.0302 86.0554 44.7826C86.0055 44.7272 85.9442 44.6835 85.8758 44.6543C85.8073 44.6252 85.7332 44.6113 85.6589 44.6138C84.5824 44.659 83.7894 48.4287 83.7553 49.9365C83.7439 50.5779 83.8345 50.7575 84.0497 50.9493C84.1233 51.0091 84.209 51.0522 84.3009 51.0755C84.3927 51.0989 84.4886 51.1019 84.5817 51.0844ZM85.9302 47.3034C85.7261 47.5397 85.7157 48.2037 86.0775 48.4287H86.0777C86.1865 48.0281 86.2512 47.6168 86.2707 47.2022C86.2108 47.179 86.1449 47.1764 86.0833 47.1947C86.0217 47.213 85.9678 47.2512 85.9302 47.3034Z" fill="#F66141"/>
</svg>
